 <svg  version="1.0" xmlns="http://www.w3.org/2000/svg"  width="1350.000000pt" height="1350.000000pt" viewBox="0 0 1350.000000 1350.000000"  preserveAspectRatio="xMidYMid meet">  <g transform="translate(0.000000,1350.000000) scale(0.100000,-0.100000)" fill="#034f42" stroke="none"> <path d="M2360 12240 c-8 -5 -32 -10 -52 -10 -20 0 -40 -5 -43 -10 -4 -6 -19 -16 -35 -23 -35 -15 -156 -124 -346 -312 -78 -77 -265 -260 -415 -408 -151 -147 -282 -283 -291 -303 -27 -52 -24 -161 4 -216 31 -59 44 -74 383 -420 77 -79 273 -280 435 -447 162 -167 324 -334 360 -370 36 -37 164 -169 285 -295 222 -229 286 -286 325 -286 12 0 30 -5 40 -10 31 -17 148 6 196 38 50 33 98 77 368 336 429 412 665 649 684 684 10 21 24 66 31 102 10 54 10 74 -3 120 -30 113 9 70 -923 1009 -265 268 -544 549 -620 627 -150 153 -183 175 -294 193 -78 13 -70 13 -89 1z m163 -165 c26 -15 52 -36 58 -46 5 -10 16 -19 23 -19 14 0 28 -35 18 -44 -3 -4 -12 0 -21 8 -14 12 -70 26 -111 27 -65 1 -123 -13 -177 -45 -13 -7 -159 -148 -325 -313 -167 -165 -339 -336 -383 -379 -45 -43 -90 -92 -100 -108 -11 -16 -28 -40 -37 -55 -34 -50 -19 -123 34 -178 79 -82 160 -62 314 77 66 60 92 70 86 34 -1 -10 -5 -58 -8 -106 -6 -108 1 -142 63 -275 26 -56 149 -173 222 -211 66 -34 183 -62 259 -62 27 0 45 -5 48 -14 8 -21 -22 -72 -61 -103 -38 -30 -109 -140 -119 -186 -16 -70 126 -208 184 -177 30 16 43 12 37 -12 -4 -14 0 -29 10 -41 10 -10 17 -30 18 -44 0 -22 10 -32 60 -58 49 -26 67 -31 107 -27 l48 5 0 -81 c0 -93 15 -129 82 -198 44 -46 147 -102 193 -105 81 -6 114 1 160 37 54 41 69 38 32 -6 -80 -95 -166 -130 -239 -97 -42 19 -354 321 -559 540 -113 122 -146 155 -205 209 -34 31 -198 197 -365 369 -166 173 -352 364 -412 425 -163 166 -191 226 -148 319 17 39 149 173 514 526 71 68 135 136 143 152 8 15 22 27 31 27 20 0 73 48 73 67 0 7 17 24 39 37 21 14 48 37 60 51 21 28 89 75 144 100 51 23 153 14 210 -20z m86 -222 c114 -120 153 -171 142 -192 -14 -26 -104 -107 -139 -125 -17 -9 -33 -24 -36 -33 -8 -25 -62 -53 -102 -53 -58 0 -144 68 -144 115 0 9 7 27 16 41 12 17 14 28 7 35 -7 7 -23 -3 -49 -33 -49 -54 -631 -633 -663 -659 -31 -25 -57 -24 -97 3 -81 56 -50 110 195 338 15 14 170 166 344 339 l317 314 67 -6 68 -7 74 -77z m242 -97 c125 -125 153 -156 146 -162 -3 -3 -14 -2 -24 4 -10 5 -53 7 -97 6 -73 -3 -78 -2 -73 16 10 37 -11 152 -32 181 -12 16 -21 31 -21 34 0 16 26 -4 101 -79z m92 -265 c63 -24 78 -91 30 -136 -16 -14 -35 -27 -44 -30 -8 -3 -25 -23 -37 -44 -20 -36 -22 -51 -21 -233 l1 -195 -38 -77 c-39 -78 -88 -137 -159 -191 -59 -45 -103 -62 -195 -76 -141 -22 -266 18 -360 113 -56 57 -74 86 -102 163 -58 160 31 351 206 440 57 29 194 26 254 -5 102 -54 148 -147 127 -265 -16 -95 -50 -143 -124 -176 -54 -23 -58 -23 -102 -1 -46 23 -72 49 -93 89 -21 42 -20 65 4 91 33 35 62 28 117 -29 44 -46 52 -50 71 -40 12 6 29 26 38 43 14 26 14 38 4 72 -24 82 -115 134 -210 121 -38 -5 -59 -16 -104 -57 -31 -27 -56 -58 -56 -68 0 -9 -7 -23 -15 -30 -10 -9 -15 -31 -15 -74 1 -58 19 -103 67 -172 35 -48 163 -114 223 -114 28 0 108 24 159 49 48 22 132 107 161 161 23 43 24 54 27 280 1 129 5 249 8 266 15 87 107 152 178 125z m229 -55 c77 -62 268 -266 268 -285 0 -11 -16 -21 -47 -30 -27 -7 -61 -20 -78 -28 -48 -26 -138 -99 -168 -138 -15 -19 -33 -35 -40 -35 -7 -1 -28 -14 -47 -30 -39 -34 -66 -38 -72 -12 -3 11 -2 86 2 168 6 121 12 158 30 197 12 27 28 51 35 53 21 8 45 79 45 134 0 28 4 50 9 50 5 0 33 -20 63 -44z m-862 -31 c18 -22 4 -32 -52 -40 -55 -8 -62 3 -22 34 32 25 57 27 74 6z m325 -43 c5 -32 -6 -92 -18 -92 -14 0 -66 33 -70 44 -9 24 3 51 31 68 41 25 50 21 57 -20z m831 -357 c25 -38 11 -65 -63 -132 -38 -34 -82 -74 -99 -89 -71 -65 -552 -526 -747 -716 -57 -56 -75 -68 -102 -68 -24 0 -37 7 -50 26 -16 25 -16 28 0 58 10 17 41 51 69 75 50 42 332 310 485 461 42 41 156 150 254 243 147 139 182 167 207 167 20 0 35 -8 46 -25z m174 -43 c16 -10 43 -38 60 -61 17 -23 43 -49 58 -59 24 -15 59 -50 224 -227 75 -81 150 -177 166 -215 16 -37 17 -96 2 -134 -7 -19 -65 -86 -75 -86 -11 0 -11 58 0 70 7 8 18 42 24 74 11 57 10 61 -14 86 -14 14 -25 36 -25 48 0 26 -69 105 -120 137 -48 30 -171 49 -216 34 l-21 -8 18 39 c50 103 4 213 -102 243 -44 13 -57 31 -45 63 7 19 29 18 66 -4z m14 -154 c44 -41 42 -61 -11 -111 -26 -25 -97 -93 -158 -150 -60 -58 -128 -122 -150 -142 -66 -62 -300 -288 -471 -456 -173 -171 -198 -186 -248 -154 -32 21 -33 53 -3 91 24 32 22 29 128 129 41 38 182 173 314 300 336 323 333 320 431 416 112 109 126 115 168 77z m176 -238 c0 -4 11 -10 24 -14 27 -7 128 -105 162 -158 28 -45 30 -79 7 -116 -20 -30 -411 -420 -605 -603 -68 -64 -154 -146 -193 -182 -130 -123 -168 -125 -297 -11 -85 76 -114 120 -104 160 7 25 50 71 166 178 41 37 125 116 185 175 61 58 157 151 215 206 58 54 168 160 246 236 77 75 147 138 155 141 17 6 39 -1 39 -12z"/> <path d="M2433 11750 c-35 -21 -49 -42 -54 -79 -3 -21 2 -26 30 -33 18 -5 43 -15 55 -22 11 -8 33 -16 49 -20 23 -5 30 -2 47 26 29 47 25 66 -20 110 -46 43 -62 46 -107 18z"/> <path d="M3736 10389 c-68 -54 10 -143 97 -110 24 9 27 16 27 55 0 35 -5 48 -22 60 -31 22 -70 20 -102 -5z"/> <path d="M3557 10192 c-31 -33 -34 -68 -7 -100 47 -57 131 -24 133 52 2 73 -75 102 -126 48z"/> <path d="M3370 10013 c-24 -10 -49 -46 -50 -71 0 -31 52 -82 83 -82 16 0 35 12 52 32 22 26 26 39 21 67 -3 19 -9 38 -13 42 -11 11 -75 19 -93 12z"/> <path d="M3146 9808 c-8 -13 -17 -33 -20 -45 -4 -11 -22 -33 -41 -48 -43 -32 -47 -71 -11 -105 40 -37 72 -30 129 29 28 29 59 68 69 87 19 35 19 36 -2 70 -19 30 -26 34 -66 34 -34 0 -47 -5 -58 -22z"/> <path d="M5265 12240 c-11 -5 -34 -9 -52 -9 -34 -1 -68 -14 -172 -65 -75 -37 -207 -162 -240 -228 -12 -24 -26 -50 -30 -58 -17 -29 -39 -95 -51 -150 -18 -83 -3 -268 28 -340 6 -14 13 -32 16 -40 4 -8 15 -28 26 -45 11 -16 24 -39 29 -50 13 -29 149 -165 165 -165 8 0 19 -7 26 -15 7 -8 20 -15 30 -15 20 0 37 -35 46 -93 10 -66 45 -94 154 -125 99 -28 214 -18 310 26 55 26 79 54 85 103 12 83 14 87 45 94 16 4 30 11 30 16 0 28 47 0 117 -69 135 -134 317 -306 360 -339 59 -47 107 -46 156 4 32 32 37 43 37 83 l0 48 -143 143 c-79 79 -188 185 -241 236 l-97 92 31 42 c16 23 30 48 30 55 0 7 6 25 14 41 21 41 41 140 41 203 -1 64 -20 163 -41 203 -8 16 -14 36 -14 46 0 9 -5 22 -11 28 -12 12 -33 46 -48 79 -12 27 -139 153 -166 165 -11 5 -33 18 -50 29 -16 11 -37 22 -45 26 -8 3 -26 11 -40 17 -56 24 -297 44 -335 27z m233 -136 c79 -15 117 -31 177 -77 109 -83 148 -140 195 -281 29 -87 24 -173 -20 -331 -34 -125 -36 -157 -14 -210 8 -20 13 -40 10 -43 -3 -3 -30 3 -60 13 l-55 19 -58 -28 c-81 -40 -137 -88 -163 -140 -19 -40 -36 -56 -61 -56 -21 0 -6 33 32 75 37 40 41 49 35 79 -9 46 59 192 108 233 46 39 94 133 106 211 13 78 8 105 -35 197 -38 82 -119 165 -191 196 -60 27 -179 36 -240 19 -104 -29 -220 -139 -266 -252 -30 -75 -19 -211 22 -289 7 -11 37 -48 67 -81 53 -58 92 -125 93 -159 0 -27 32 -123 47 -140 7 -8 13 -21 13 -27 0 -20 -22 -13 -27 8 -3 11 -9 20 -13 20 -4 0 -34 26 -68 58 -33 31 -87 80 -119 108 -33 29 -81 84 -107 123 -43 63 -50 80 -62 163 -18 113 -17 144 1 216 38 146 143 280 262 334 153 69 216 76 391 42z m-20 -253 c84 -43 152 -149 152 -238 0 -104 -89 -231 -152 -219 -27 5 -28 5 -30 -47 -1 -28 -1 -89 1 -135 3 -66 -1 -91 -15 -117 -29 -53 -97 -62 -139 -17 -25 26 -26 32 -24 122 1 52 2 116 1 143 -2 43 -4 47 -28 47 -35 0 -88 43 -124 101 -25 42 -30 60 -30 114 0 76 19 122 75 184 37 40 90 72 140 85 37 9 135 -4 173 -23z m-180 -869 c3 -9 -2 -13 -14 -10 -9 1 -19 9 -22 16 -3 9 2 13 14 10 9 -1 19 -9 22 -16z"/> <path d="M5277 11727 c-35 -29 -67 -89 -67 -124 0 -32 22 -69 63 -107 27 -25 36 -56 17 -56 -5 0 -10 -8 -10 -17 1 -17 1 -17 14 0 23 29 82 34 116 8 39 -29 43 -27 35 17 -5 34 -2 44 29 81 42 51 47 92 15 145 -44 75 -152 102 -212 53z"/> <path d="M5310 11250 c0 -14 45 -23 75 -16 42 11 28 26 -25 26 -27 0 -50 -4 -50 -10z"/> <path d="M6706 12224 c-9 -8 -19 -27 -22 -42 -3 -15 -13 -44 -21 -64 -13 -31 -21 -38 -45 -38 -15 0 -28 4 -28 8 0 5 -16 16 -35 25 -30 14 -38 15 -67 2 -18 -8 -42 -22 -54 -32 -29 -26 -84 -99 -84 -113 0 -7 14 -29 30 -50 17 -21 30 -44 30 -51 -1 -27 -37 -58 -76 -65 -73 -13 -74 -15 -74 -113 0 -102 3 -107 90 -139 38 -14 56 -26 58 -39 3 -22 -34 -93 -49 -93 -40 0 51 -115 126 -159 l34 -19 48 34 c26 19 54 34 60 34 7 0 22 -21 34 -47 53 -124 47 -118 119 -121 35 -2 74 -1 85 2 19 5 55 74 55 107 0 23 38 59 55 53 8 -4 15 -9 15 -13 0 -10 67 -41 89 -41 24 0 151 126 151 149 0 10 -9 30 -20 44 -11 14 -23 39 -26 56 -6 29 -4 32 41 51 25 11 53 20 61 20 7 0 21 11 30 25 13 20 15 39 9 104 -4 48 -13 85 -21 92 -7 6 -32 13 -54 16 -74 10 -86 60 -32 131 23 30 24 35 11 59 -22 42 -86 101 -126 118 -33 14 -40 14 -69 0 -18 -9 -36 -20 -39 -25 -10 -16 -41 -12 -57 8 -8 9 -21 39 -28 65 -7 27 -19 55 -27 63 -21 21 -156 19 -177 -2z m148 -273 c3 -5 18 -12 32 -15 39 -10 82 -45 122 -101 35 -48 36 -53 36 -140 1 -86 -1 -93 -33 -144 -38 -59 -80 -89 -160 -114 -51 -16 -55 -16 -124 5 -194 58 -261 281 -128 425 27 30 61 50 131 81 31 13 117 15 124 3z"/> <path d="M8159 12210 c-36 -10 -75 -23 -85 -28 -10 -6 -37 -19 -59 -29 -130 -60 -256 -185 -327 -323 -10 -19 -18 -41 -18 -50 0 -9 -6 -24 -14 -35 -7 -11 -16 -40 -19 -65 -4 -25 -11 -67 -15 -93 -5 -27 -5 -79 0 -120 22 -181 28 -155 -44 -219 -66 -59 -129 -114 -164 -145 -40 -34 -208 -188 -266 -244 -48 -45 -58 -61 -58 -88 0 -49 26 -94 66 -116 35 -19 36 -19 72 0 20 11 48 30 62 42 14 12 61 52 105 90 44 37 91 79 105 93 14 14 62 56 105 94 44 38 92 82 107 99 33 36 64 32 93 -14 22 -35 151 -135 205 -160 85 -39 112 -49 133 -49 12 0 44 -7 71 -15 56 -17 160 -19 226 -4 25 6 63 14 85 19 84 18 200 77 279 143 40 33 156 178 156 195 0 5 7 15 15 22 8 7 15 21 15 30 0 10 6 31 14 47 30 60 40 121 40 248 0 141 -8 181 -58 285 -69 144 -182 262 -316 330 -25 12 -54 27 -65 33 -87 45 -327 60 -446 27z m313 -236 c134 -51 218 -122 287 -244 42 -73 64 -256 37 -309 -9 -16 -16 -37 -16 -45 0 -20 -63 -124 -97 -161 -36 -38 -98 -85 -143 -107 -87 -43 -233 -59 -310 -34 -27 9 -53 16 -59 16 -25 0 -137 79 -180 127 -224 252 -126 640 191 752 71 25 230 28 290 5z m-657 -717 c14 -30 25 -59 25 -64 0 -18 -32 -24 -49 -9 -9 8 -28 18 -43 21 -19 5 -28 14 -28 26 0 25 39 79 57 79 7 0 24 -24 38 -53z"/> <path d="M8295 11765 c-22 -8 -48 -15 -57 -15 -9 0 -39 -22 -66 -49 -39 -39 -52 -60 -66 -114 -17 -64 -17 -69 0 -119 19 -55 77 -138 96 -138 6 0 20 -8 30 -17 28 -25 178 -25 205 0 11 9 24 17 29 17 13 0 64 56 89 95 14 22 19 49 18 105 0 68 -3 80 -32 122 -38 57 -78 87 -146 110 -60 21 -51 20 -100 3z m62 -161 c12 -3 31 -21 42 -40 18 -29 18 -37 7 -59 -31 -60 -73 -69 -117 -26 -36 36 -37 60 -3 100 27 32 34 35 71 25z"/> <path d="M9650 12204 c-67 -38 -89 -70 -90 -127 0 -36 -4 -49 -17 -53 -42 -12 -69 -32 -100 -72 -29 -39 -33 -51 -33 -107 0 -112 65 -201 164 -225 48 -11 62 -11 108 4 62 20 73 27 114 81 69 88 66 217 -6 276 -19 16 -44 29 -56 29 -62 0 -74 35 -16 46 20 4 46 11 57 16 27 14 115 100 115 113 0 17 -93 45 -146 45 -34 -1 -63 -9 -94 -26z m24 -285 c34 -40 41 -72 26 -110 -23 -54 -89 -67 -129 -25 -20 21 -22 30 -16 81 7 51 11 58 39 71 44 19 51 18 80 -17z"/> <path d="M11835 12170 c-38 -3 -79 -10 -90 -17 -11 -6 -38 -19 -59 -29 -22 -11 -74 -52 -115 -92 l-76 -74 -67 7 c-138 14 -110 34 -501 -354 -444 -440 -431 -425 -439 -469 -3 -20 -12 -68 -18 -107 -6 -38 -18 -93 -26 -121 -8 -28 -14 -63 -14 -78 0 -15 -7 -43 -15 -63 -8 -19 -15 -53 -15 -75 0 -22 -4 -47 -9 -56 -5 -10 -14 -49 -20 -87 -21 -137 -39 -185 -110 -295 -20 -30 -39 -66 -43 -80 -23 -72 33 -115 108 -84 21 9 41 19 44 23 3 3 21 15 40 25 19 11 70 46 112 78 42 32 83 58 90 58 12 0 29 5 154 44 29 9 62 16 75 16 13 0 37 7 53 15 15 8 40 15 55 15 14 1 37 7 51 15 14 8 40 14 58 15 18 0 45 6 60 14 15 7 55 16 88 19 86 9 107 21 204 113 47 44 121 114 165 155 44 40 105 98 135 127 30 30 117 113 193 186 76 72 145 144 152 160 9 16 15 57 15 92 l0 63 81 62 c79 60 169 165 169 198 0 9 7 25 15 35 10 14 15 45 15 103 0 82 -3 93 -53 203 -22 48 -130 163 -168 180 -13 5 -31 14 -39 19 -62 37 -139 50 -255 41z m126 -230 c97 -50 150 -130 95 -144 -24 -6 -156 -138 -156 -156 0 -36 110 45 157 116 23 36 50 31 62 -13 6 -20 7 -41 4 -47 -12 -21 -78 -101 -85 -104 -5 -2 -8 -10 -8 -18 0 -8 -7 -14 -15 -14 -8 0 -15 -4 -15 -10 0 -15 6 -13 49 14 63 40 121 134 121 196 0 54 13 67 35 34 23 -35 17 -113 -14 -175 -13 -25 -57 -79 -98 -120 -72 -71 -143 -177 -143 -213 0 -58 -79 -144 -477 -521 -167 -158 -205 -187 -263 -204 -25 -8 -63 -19 -85 -26 -64 -20 -133 -35 -162 -35 -15 0 -41 -5 -60 -12 -18 -6 -35 -9 -38 -6 -10 10 22 61 54 88 17 14 31 32 31 41 0 9 7 19 15 23 20 7 18 53 -3 92 -56 102 -89 148 -138 189 -29 26 -54 51 -54 56 0 23 84 8 139 -24 31 -18 74 -42 96 -53 22 -10 44 -25 48 -31 9 -15 37 -18 37 -5 0 5 -9 17 -19 26 -11 10 -24 30 -31 46 -6 15 -21 31 -33 34 -12 3 -36 25 -54 49 -44 58 -49 76 -27 83 52 16 111 55 166 111 34 34 72 64 84 67 12 3 32 22 44 41 12 20 38 46 57 59 36 25 117 129 134 173 5 14 7 34 4 44 -6 19 -7 19 -33 0 -15 -10 -63 -53 -106 -96 -44 -42 -140 -133 -214 -203 -74 -70 -145 -144 -158 -164 l-24 -38 -75 0 c-72 0 -75 1 -75 23 0 15 15 35 48 60 26 20 156 144 289 275 133 130 251 246 262 256 21 19 22 19 142 -102 66 -67 129 -124 139 -127 10 -3 24 -12 30 -20 16 -19 30 -19 30 0 0 18 -49 96 -67 108 -7 4 -21 27 -32 50 -18 40 -153 187 -172 187 -5 0 -9 8 -9 19 0 16 11 20 75 26 80 7 105 -1 105 -35 0 -52 168 -213 260 -250 14 -6 38 -17 53 -26 36 -20 50 -8 20 16 -13 10 -23 28 -23 39 0 13 -9 25 -24 31 -13 5 -41 30 -62 56 -41 50 -52 61 -109 109 -37 32 -43 49 -21 62 7 4 33 24 56 43 87 71 167 87 241 50z m-1286 -857 c3 -16 17 -40 31 -54 l24 -25 -30 -22 c-16 -12 -35 -22 -42 -22 -7 0 -26 -7 -41 -15 -24 -12 -29 -12 -33 0 -10 24 16 118 38 142 28 30 44 29 53 -4z m101 -265 c11 -15 23 -28 29 -28 14 0 145 -132 145 -146 0 -6 -12 -14 -27 -17 -72 -15 -91 -22 -125 -49 -33 -26 -46 -29 -118 -32 -44 -2 -83 0 -85 4 -4 7 6 61 35 180 6 25 15 65 21 90 15 67 24 73 69 48 21 -12 46 -35 56 -50z m-161 -403 c-34 -27 -113 -65 -135 -65 -23 0 -25 20 -11 104 6 34 16 55 32 67 24 18 24 18 79 -36 53 -53 54 -55 35 -70z"/> <path d="M11845 11843 c-29 -8 -85 -53 -85 -69 0 -8 9 -14 20 -14 27 0 121 19 145 30 11 5 30 12 43 15 69 19 -50 56 -123 38z"/> <path d="M11504 11427 c-6 -7 -48 -46 -94 -87 -45 -41 -124 -115 -175 -165 -52 -49 -106 -102 -122 -116 -41 -38 -75 -81 -68 -87 3 -3 11 0 17 6 7 7 20 12 30 12 9 0 22 9 28 20 6 11 17 20 25 20 8 0 20 9 27 21 7 11 34 36 61 55 26 19 47 41 47 49 0 9 11 20 24 26 13 6 40 31 60 55 20 24 44 44 53 44 16 0 73 53 73 68 0 5 11 21 25 36 27 29 33 56 13 56 -7 -1 -18 -6 -24 -13z"/> <path d="M11537 11223 c-213 -206 -345 -341 -340 -347 3 -3 17 4 31 14 13 11 33 20 44 20 10 0 22 10 28 24 5 14 26 39 46 58 83 74 311 305 327 331 35 55 -6 24 -136 -100z"/> <path d="M11133 10843 c-18 -2 -33 -8 -33 -14 0 -15 56 -10 70 6 7 8 9 14 4 13 -5 0 -24 -3 -41 -5z"/> <path d="M10770 10769 c0 -7 -6 -20 -14 -28 -27 -31 -76 -135 -68 -143 5 -5 24 7 43 25 45 44 75 136 49 152 -5 3 -10 1 -10 -6z"/> <path d="M3146 12139 c-30 -35 -32 -49 -11 -88 30 -59 104 -59 138 -1 24 40 21 65 -10 95 -39 36 -84 34 -117 -6z"/> <path d="M10238 12085 c-24 -32 -23 -52 8 -92 l25 -33 163 0 c161 0 163 0 191 26 23 21 27 31 22 61 -10 59 -22 62 -217 62 -173 0 -175 0 -192 -24z"/> <path d="M1285 12085 c-54 -24 -70 -50 -70 -119 0 -69 21 -107 78 -138 40 -22 60 -22 99 -2 38 20 61 46 84 96 16 35 16 39 -2 82 -33 79 -114 114 -189 81z"/> <path d="M3935 12083 c-41 -7 -66 -28 -254 -213 -158 -158 -163 -164 -158 -197 8 -44 42 -72 90 -73 32 0 45 7 81 45 40 41 76 58 76 37 0 -5 41 -52 91 -105 60 -65 98 -97 113 -97 21 0 180 146 212 194 18 28 49 24 66 -8 24 -47 50 -66 92 -66 24 1 50 8 62 18 26 22 39 74 26 99 -11 20 -302 310 -344 343 -28 22 -98 32 -153 23z m111 -215 c24 -23 44 -48 44 -55 0 -18 -89 -103 -108 -103 -20 0 -102 79 -102 98 0 25 73 100 98 101 15 1 40 -15 68 -41z"/> <path d="M10831 12053 c-45 -51 -9 -152 55 -153 11 0 34 15 52 33 43 44 43 86 1 121 -40 34 -77 33 -108 -1z"/> <path d="M3331 11994 c-27 -34 -27 -88 -1 -114 51 -51 140 -13 140 60 0 75 -94 111 -139 54z"/> <path d="M10156 11603 c-31 -8 -55 -45 -56 -85 0 -30 6 -42 37 -67 48 -39 66 -39 108 3 43 40 47 89 12 122 -24 23 -70 35 -101 27z"/> <path d="M9628 11373 c-41 -5 -68 -32 -68 -70 0 -51 -70 -84 -100 -48 -7 9 -29 15 -50 15 -30 0 -44 -6 -64 -31 -14 -17 -26 -42 -26 -55 0 -29 -25 -82 -51 -106 -11 -11 -34 -18 -56 -18 -55 -1 -75 -31 -71 -112 3 -54 6 -63 23 -66 49 -9 62 -86 20 -127 -13 -14 -29 -25 -35 -25 -5 0 -10 -21 -10 -46 0 -63 31 -106 74 -104 17 1 38 2 48 1 22 -1 58 -65 58 -104 0 -35 35 -81 70 -92 21 -7 84 17 95 35 19 31 75 -8 75 -52 0 -14 9 -37 21 -52 17 -22 28 -26 73 -26 29 0 59 6 67 13 9 6 23 38 33 70 16 53 19 57 47 57 16 0 29 -4 29 -9 0 -10 54 -31 80 -31 9 0 29 11 44 25 20 18 26 34 26 64 0 22 5 43 11 46 5 4 14 18 19 31 8 21 16 24 62 24 l53 0 18 49 c23 66 22 70 -18 107 -27 24 -35 40 -35 65 0 51 11 79 29 79 30 0 41 22 41 80 0 80 -17 100 -85 100 -50 0 -55 2 -74 34 -12 18 -21 50 -21 71 0 21 -9 53 -21 71 -17 28 -27 34 -54 34 -19 0 -37 -5 -40 -11 -10 -15 -53 -29 -70 -23 -15 6 -55 85 -55 110 0 16 -32 35 -57 32 -10 -1 -35 -3 -55 -5z m123 -323 c116 -60 170 -202 118 -309 -11 -24 -40 -62 -64 -85 -107 -105 -287 -77 -373 58 -22 35 -26 52 -26 117 0 69 3 81 33 127 37 57 82 96 132 111 48 15 133 6 180 -19z"/> <path d="M9569 10946 c-19 -13 -43 -42 -53 -65 -18 -39 -18 -43 -2 -86 23 -60 69 -95 125 -95 82 0 136 54 136 135 0 111 -114 173 -206 111z"/> <path d="M4175 11303 c-50 -14 -105 -87 -105 -138 0 -28 20 -65 59 -107 20 -22 34 -28 70 -29 45 -1 47 -2 106 -77 38 -48 69 -78 83 -80 30 -5 81 37 81 66 1 20 -61 111 -81 120 -4 2 -16 18 -27 36 -18 28 -19 37 -9 63 15 40 -3 100 -38 126 -25 19 -104 30 -139 20z"/> <path d="M12226 10959 c-49 -39 -28 -119 37 -143 27 -9 79 19 100 55 17 30 17 32 -3 64 -32 51 -87 61 -134 24z"/> <path d="M4726 10729 c-36 -42 -34 -78 7 -117 40 -39 69 -40 114 -6 28 21 33 31 33 68 0 56 -30 86 -87 86 -34 0 -46 -6 -67 -31z"/> <path d="M12358 10628 c-13 -13 -44 -40 -66 -61 -45 -40 -54 -72 -24 -81 11 -4 25 -18 32 -31 17 -31 46 -32 82 -2 24 20 26 29 30 107 3 95 -8 109 -54 68z"/> <path d="M1006 10616 l-29 -24 0 -159 c1 -183 10 -212 91 -283 77 -68 116 -80 263 -80 l128 0 30 37 c38 46 39 72 5 112 l-26 31 -108 0 c-83 0 -110 3 -120 15 -7 8 -18 15 -24 15 -7 0 -22 14 -35 31 -21 28 -22 41 -22 158 l0 128 -29 21 c-38 29 -87 28 -124 -2z m104 -176 c-20 -13 -61 -12 -80 0 -13 9 -10 14 14 36 l29 26 26 -27 c22 -22 24 -27 11 -35z"/> <path d="M8693 10589 c-32 -20 -41 -46 -33 -99 4 -34 42 -60 87 -60 39 0 45 3 68 40 33 53 32 72 -10 109 -42 36 -68 39 -112 10z"/> <path d="M6637 10557 c-17 -14 -30 -35 -33 -58 -5 -31 -2 -41 23 -68 59 -61 143 -28 143 57 0 33 -6 45 -31 66 -38 32 -65 33 -102 3z"/> <path d="M5450 10470 c-86 -18 -143 -35 -170 -51 -8 -5 -22 -12 -30 -15 -164 -65 -329 -222 -408 -389 -41 -88 -52 -117 -52 -139 0 -49 -27 -65 -128 -75 -52 -5 -99 -14 -105 -20 -6 -6 -20 -11 -30 -11 -10 0 -31 -6 -45 -14 -15 -7 -47 -24 -72 -36 -25 -13 -66 -38 -91 -56 -55 -40 -171 -161 -192 -201 -48 -88 -87 -176 -87 -196 0 -12 -6 -33 -13 -47 -12 -24 -26 -29 -122 -50 -42 -9 -113 -33 -143 -49 -9 -5 -24 -12 -32 -15 -8 -4 -28 -15 -45 -26 -16 -11 -39 -24 -50 -29 -67 -31 -200 -181 -253 -286 -75 -149 -92 -210 -100 -362 l-7 -128 -95 -6 c-114 -6 -195 -26 -305 -74 -16 -7 -37 -16 -45 -19 -42 -17 -173 -111 -220 -158 -89 -88 -219 -287 -220 -335 0 -10 -7 -27 -15 -37 -8 -11 -15 -30 -15 -42 0 -12 -7 -38 -15 -58 -23 -53 -23 -1217 0 -1290 8 -27 15 -60 15 -74 0 -13 6 -36 13 -50 8 -15 22 -45 32 -67 9 -22 21 -47 26 -55 5 -8 15 -28 23 -45 37 -79 167 -224 254 -283 81 -56 106 -71 122 -78 29 -12 85 -37 112 -51 14 -7 36 -13 48 -13 12 0 42 -6 68 -14 26 -8 88 -18 137 -23 l90 -8 6 -132 c3 -72 10 -137 16 -145 6 -7 13 -26 16 -43 7 -41 31 -103 45 -117 7 -7 12 -18 12 -25 0 -42 205 -278 264 -304 12 -5 35 -18 51 -29 17 -11 37 -23 45 -26 8 -3 29 -12 45 -19 75 -33 114 -45 167 -51 56 -6 58 -7 67 -43 5 -20 12 -65 16 -101 5 -49 19 -91 58 -170 45 -92 64 -117 147 -201 52 -53 107 -102 122 -110 149 -77 267 -115 378 -121 40 -3 45 -6 48 -28 4 -35 51 -148 85 -205 51 -85 138 -178 227 -245 65 -48 207 -120 236 -120 8 0 25 -5 37 -12 75 -40 421 -39 537 2 84 30 227 99 242 117 6 7 15 13 20 13 21 0 238 214 238 235 0 3 11 21 24 38 14 18 29 43 35 57 6 14 15 32 20 40 27 46 68 156 76 205 4 22 11 60 15 85 5 25 9 366 9 758 l1 712 95 0 94 0 5 -717 c3 -697 8 -824 34 -870 7 -12 12 -32 12 -45 0 -13 7 -33 15 -44 8 -10 15 -26 15 -35 0 -9 7 -22 15 -29 8 -7 15 -18 15 -26 0 -21 115 -185 172 -245 73 -77 170 -148 258 -189 25 -12 58 -28 73 -35 16 -8 38 -15 48 -15 11 0 30 -5 42 -12 94 -52 480 -33 603 30 11 5 51 25 89 43 115 56 243 172 312 284 31 50 83 168 83 188 0 44 27 67 79 67 80 0 191 38 349 119 33 17 220 206 233 235 5 12 13 28 17 36 45 79 62 134 75 240 l12 94 35 9 c19 4 54 12 78 16 24 4 48 13 54 19 7 7 19 12 27 12 27 0 144 62 206 109 115 88 190 179 251 303 39 80 54 119 54 143 0 13 5 36 12 52 6 15 14 80 17 143 l6 115 60 5 c33 3 78 12 100 19 67 24 187 82 235 115 96 65 198 184 244 281 10 22 24 49 29 60 6 11 14 38 18 60 4 22 12 60 18 85 6 28 10 313 11 750 0 620 -2 713 -16 775 -17 72 -39 139 -55 165 -5 8 -12 22 -15 30 -3 8 -10 22 -15 30 -5 8 -12 22 -16 30 -11 25 -89 123 -125 157 -68 65 -155 118 -253 155 -97 37 -113 41 -165 47 l-55 6 -5 142 c-3 94 -9 146 -17 155 -7 6 -13 22 -13 35 0 20 -19 74 -41 113 -4 8 -20 38 -35 65 -15 28 -30 52 -33 55 -4 3 -27 31 -51 63 -42 56 -188 177 -214 177 -8 0 -19 7 -26 15 -7 8 -20 15 -30 15 -10 0 -23 7 -30 15 -7 8 -21 15 -31 15 -10 0 -33 6 -51 14 -18 8 -62 20 -98 28 l-65 13 -9 50 c-22 131 -122 286 -260 403 -26 22 -116 76 -146 88 -8 3 -27 12 -42 20 -14 8 -35 14 -45 14 -10 0 -24 5 -30 11 -6 6 -53 16 -105 21 -51 5 -96 12 -100 16 -4 4 -14 32 -21 63 -14 51 -59 155 -90 204 -53 86 -178 211 -262 262 -31 19 -156 78 -195 92 -119 43 -351 64 -445 40 -22 -5 -60 -14 -85 -18 -70 -14 -204 -70 -275 -114 -184 -115 -331 -310 -406 -542 -29 -89 -32 -168 -38 -850 l-6 -710 -92 -3 -93 -3 0 714 c0 610 -2 721 -15 757 -8 23 -15 52 -15 64 0 11 -7 34 -15 50 -8 15 -15 36 -15 46 0 10 -7 23 -15 30 -8 7 -15 20 -15 29 -1 9 -12 34 -25 56 -14 22 -28 47 -32 55 -13 29 -94 130 -148 183 -85 86 -279 207 -330 207 -11 0 -25 4 -31 10 -5 5 -34 15 -64 21 -30 6 -73 15 -95 20 -67 14 -234 8 -325 -11z m332 -121 c57 -6 112 -17 124 -24 12 -8 49 -25 83 -40 34 -14 101 -55 149 -92 108 -82 180 -167 241 -288 14 -27 33 -61 43 -74 10 -13 15 -27 13 -32 -3 -4 4 -43 16 -86 21 -76 21 -98 23 -728 2 -497 5 -661 15 -697 17 -61 97 -145 148 -154 94 -18 160 14 222 106 l36 55 6 690 c7 734 8 756 58 852 11 23 21 48 21 56 0 7 13 31 30 53 16 21 30 46 30 54 0 14 124 148 185 201 40 33 198 119 222 119 10 0 37 7 59 15 60 20 252 29 365 16 83 -9 108 -17 190 -59 115 -58 148 -81 232 -157 57 -53 75 -79 137 -200 77 -151 109 -192 182 -233 27 -15 47 -30 45 -34 -5 -13 -110 -78 -127 -78 -9 0 -28 -8 -41 -17 -13 -10 -41 -27 -63 -38 -21 -11 -50 -34 -63 -52 -14 -18 -31 -33 -37 -33 -7 0 -32 -20 -56 -45 -30 -30 -66 -53 -110 -71 -60 -23 -71 -25 -124 -15 -31 6 -64 17 -72 26 -9 8 -19 15 -23 15 -16 0 -41 74 -41 124 0 42 5 57 23 73 40 37 65 45 120 38 45 -6 59 -3 106 22 30 15 58 35 61 43 4 8 12 26 19 39 19 36 4 118 -30 165 -16 22 -29 46 -29 53 0 21 -111 128 -168 162 -153 90 -357 93 -529 9 -121 -59 -271 -212 -312 -318 -7 -19 -20 -53 -29 -75 -11 -29 -15 -71 -14 -155 9 -773 19 -1249 26 -1265 16 -35 46 -68 79 -89 29 -18 50 -20 222 -20 208 -1 222 2 279 63 24 25 30 41 36 103 8 91 -7 139 -61 191 -75 72 -78 86 -38 197 6 19 14 41 15 48 3 8 11 11 23 7 11 -3 22 -1 26 4 15 25 99 51 164 51 90 -1 137 -13 180 -48 105 -84 109 -181 12 -264 -48 -41 -65 -97 -59 -195 4 -65 5 -67 52 -109 32 -27 60 -43 84 -46 31 -5 206 -4 400 0 55 1 103 30 167 101 100 111 96 108 163 116 53 6 68 4 114 -18 35 -16 63 -38 83 -66 88 -124 115 -135 335 -135 80 0 154 2 165 6 11 4 25 7 32 7 21 2 72 64 78 96 4 16 13 45 22 64 17 38 13 120 -10 181 -69 185 -235 332 -440 386 -74 20 -257 22 -332 4 -27 -7 -89 -14 -138 -17 l-87 -5 -35 35 c-75 75 -25 157 129 214 60 22 123 83 136 133 20 76 -39 208 -139 308 -30 30 -51 60 -51 73 0 13 5 19 13 16 6 -3 37 -15 67 -28 60 -25 150 -82 205 -131 45 -39 124 -152 141 -202 25 -69 74 -144 126 -190 27 -26 55 -46 62 -46 6 0 62 -20 123 -44 285 -112 433 -305 465 -610 10 -93 15 -112 37 -136 15 -15 33 -41 41 -56 21 -38 72 -71 139 -90 70 -19 166 -61 208 -91 17 -13 35 -23 39 -23 14 0 106 -104 142 -160 46 -72 79 -157 98 -250 21 -108 20 -1363 -1 -1473 -26 -135 -62 -209 -147 -299 -84 -88 -220 -168 -348 -204 -56 -15 -74 -27 -128 -80 l-62 -63 -21 -122 c-35 -211 -46 -240 -141 -376 -89 -127 -181 -189 -398 -269 -97 -36 -162 -100 -186 -183 -44 -157 -61 -199 -104 -264 -26 -40 -68 -92 -94 -117 -25 -24 -46 -50 -46 -57 0 -7 -9 -13 -21 -13 -11 0 -33 -9 -48 -19 -15 -11 -55 -29 -90 -41 -35 -11 -73 -27 -85 -35 -11 -7 -44 -16 -72 -20 -37 -5 -67 -18 -107 -46 -49 -35 -64 -54 -114 -147 -65 -122 -112 -189 -174 -248 -53 -50 -159 -117 -214 -134 -22 -7 -49 -19 -60 -25 -32 -20 -172 -38 -275 -36 -239 4 -423 88 -594 273 -41 44 -82 96 -92 116 -9 19 -30 58 -47 86 -16 28 -34 67 -39 86 -5 19 -16 62 -25 95 -14 51 -17 166 -22 760 -3 385 -10 709 -15 720 -15 34 -89 106 -125 121 -59 25 -115 18 -176 -20 -29 -19 -59 -45 -66 -58 -7 -12 -18 -29 -26 -36 -8 -8 -13 -39 -14 -80 -1 -37 -5 -362 -9 -722 -7 -614 -9 -659 -28 -726 -25 -87 -100 -238 -142 -284 -8 -9 -28 -33 -45 -54 -47 -59 -169 -152 -248 -190 -138 -66 -224 -86 -375 -86 -178 0 -307 38 -437 126 -108 73 -202 183 -260 301 -40 83 -79 134 -130 171 -31 23 -183 67 -193 57 -3 -3 -12 1 -21 8 -19 15 -158 74 -186 79 -11 2 -20 10 -20 18 0 8 -24 37 -53 65 -30 27 -65 69 -79 92 -14 24 -28 43 -33 43 -12 0 -48 96 -74 196 -19 76 -29 97 -59 128 -20 20 -37 40 -37 45 0 10 -47 34 -135 67 -117 44 -190 81 -223 112 -18 16 -38 32 -46 35 -8 3 -40 36 -71 74 -99 119 -144 225 -171 401 -17 113 -19 119 -61 167 -51 60 -83 77 -183 100 -186 43 -301 93 -407 177 -73 58 -152 147 -183 206 -12 23 -26 42 -31 42 -11 0 -40 56 -32 63 3 4 -2 25 -11 48 -9 23 -26 93 -37 156 -16 94 -18 138 -13 243 4 80 3 134 -3 142 -6 8 -7 123 -1 317 5 222 5 308 -4 318 -8 10 -8 24 -1 51 6 20 18 73 26 117 32 173 115 317 259 449 106 98 237 156 428 191 115 21 124 25 178 83 49 55 57 77 71 194 14 122 69 276 123 344 72 92 148 163 217 204 65 38 174 81 240 95 23 5 53 27 95 70 53 53 68 77 100 159 21 53 42 96 47 96 4 0 26 25 48 57 23 31 53 64 68 74 16 9 42 30 59 46 29 27 76 49 174 81 46 16 65 -1 31 -27 -13 -10 -21 -23 -17 -29 6 -11 -52 -62 -71 -62 -6 0 -16 -15 -23 -32 -6 -18 -21 -49 -31 -69 -10 -20 -19 -48 -19 -62 0 -13 -7 -31 -16 -38 -12 -10 -15 -24 -11 -52 8 -60 60 -107 163 -147 131 -51 168 -118 104 -187 -48 -52 -91 -59 -216 -38 -194 31 -327 24 -455 -25 -70 -26 -185 -106 -209 -145 -11 -18 -28 -35 -37 -37 -16 -3 -52 -60 -98 -153 -29 -61 -45 -169 -34 -237 7 -41 17 -59 56 -99 l48 -49 155 0 c258 0 301 15 377 133 43 67 89 91 178 91 89 0 137 -27 181 -100 6 -11 40 -41 75 -69 l63 -50 227 0 c202 0 229 2 246 18 11 9 24 17 29 17 5 0 22 14 39 31 27 27 30 38 34 106 5 104 -8 137 -79 211 -56 58 -61 66 -54 95 10 50 41 104 70 124 15 10 36 28 48 40 30 29 112 37 204 20 81 -16 133 -51 182 -125 36 -55 35 -90 -5 -132 -14 -14 -25 -30 -25 -34 0 -5 -13 -22 -30 -37 -50 -49 -65 -192 -25 -245 25 -32 35 1 35 119 l0 107 48 0 c84 1 119 57 106 170 -16 130 -105 216 -274 263 -54 15 -77 14 -192 -8 -21 -4 -43 -14 -49 -21 -6 -8 -19 -14 -29 -14 -24 0 -104 -88 -129 -143 -31 -67 -29 -151 4 -200 27 -38 50 -49 100 -45 l30 3 0 -123 0 -123 -272 0 c-150 0 -280 0 -288 1 -11 0 -15 12 -15 44 0 63 -46 120 -130 164 -58 30 -72 33 -130 30 -81 -4 -174 -46 -213 -96 -14 -19 -33 -58 -42 -88 l-15 -53 -213 -3 c-116 -2 -220 1 -230 5 -14 6 -17 15 -13 33 4 14 11 60 16 102 9 70 25 123 50 162 6 8 14 24 19 36 11 25 119 132 146 145 11 5 40 21 64 34 24 14 51 25 60 25 9 0 29 7 45 15 34 18 239 21 283 4 26 -10 87 -23 174 -35 74 -11 178 43 225 117 72 115 231 228 364 259 102 23 171 45 220 70 57 29 130 94 130 115 0 7 7 18 15 25 11 9 15 33 15 89 -1 69 -4 80 -33 124 -18 26 -58 64 -88 83 -54 36 -55 36 -136 31 l-83 -6 0 29 c0 51 65 159 135 223 104 97 292 142 420 101 102 -33 172 -76 245 -151 38 -40 75 -83 80 -95 6 -13 14 -30 19 -38 23 -42 41 -90 51 -140 6 -30 14 -67 17 -83 3 -15 -2 -42 -11 -61 -13 -27 -14 -40 -5 -63 7 -18 12 -225 15 -593 l4 -566 -190 4 c-231 5 -323 -2 -318 -26 6 -33 84 -51 229 -51 169 -1 244 12 282 47 62 58 60 36 62 632 2 468 5 553 19 599 31 104 14 211 -55 351 -78 157 -270 316 -407 336 -23 4 -45 11 -48 15 -3 5 -47 9 -97 9 -168 0 -291 -51 -404 -168 -40 -41 -73 -80 -73 -87 0 -8 -14 -43 -30 -79 -27 -58 -30 -70 -21 -104 6 -21 21 -47 33 -58 48 -42 105 -74 132 -74 63 0 126 -68 126 -137 0 -60 -68 -123 -132 -123 -33 0 -108 47 -176 110 -32 30 -66 60 -74 65 -8 6 -42 28 -74 50 -33 22 -90 56 -128 75 -37 19 -70 40 -73 47 -5 14 46 83 62 83 27 0 103 117 118 181 4 14 26 55 51 91 24 37 45 70 47 76 7 16 93 87 165 134 172 114 327 145 586 117z m2057 -325 c102 -30 135 -48 202 -114 44 -43 75 -85 94 -125 15 -33 31 -68 36 -78 6 -10 7 -22 4 -27 -3 -5 -57 -6 -124 -3 -109 5 -122 4 -153 -15 -48 -30 -73 -61 -86 -108 -16 -55 -15 -76 4 -135 20 -59 88 -138 144 -168 50 -26 184 -30 216 -6 10 8 25 15 33 15 14 0 103 67 109 82 2 5 10 8 17 8 8 0 18 6 22 14 12 20 84 66 195 125 123 64 154 66 208 14 71 -70 140 -196 140 -257 0 -17 -23 -26 -65 -24 -32 1 -99 -20 -152 -47 -104 -53 -159 -186 -122 -295 16 -45 74 -95 136 -116 55 -19 50 -19 208 23 69 18 301 29 318 15 7 -5 28 -13 47 -17 116 -25 257 -138 318 -255 36 -68 62 -210 48 -263 l-6 -26 -211 -3 c-116 -2 -219 0 -230 4 -14 6 -19 17 -19 47 0 92 -135 191 -262 191 -32 0 -62 -6 -74 -15 -10 -8 -26 -15 -36 -15 -24 0 -98 -66 -120 -105 -10 -19 -18 -51 -18 -70 l0 -35 -265 -2 c-146 -1 -275 -2 -287 -2 -23 -1 -23 2 -26 122 l-3 122 51 0 c45 0 55 4 81 32 26 30 29 39 29 104 0 88 -24 148 -83 205 -94 90 -225 120 -364 84 -31 -8 -61 -19 -67 -25 -5 -5 -17 -10 -26 -10 -22 0 -102 -86 -129 -138 -16 -32 -21 -59 -21 -120 0 -73 2 -80 29 -106 24 -23 36 -27 73 -24 l43 3 5 -120 c3 -66 4 -122 3 -124 -4 -8 -496 -2 -504 6 -5 5 -5 23 1 42 5 19 10 295 11 650 0 339 5 636 9 661 52 284 364 498 619 424z m-3059 -497 c146 -79 237 -137 290 -188 35 -33 61 -53 135 -103 19 -13 31 -26 28 -30 -4 -3 -46 -6 -94 -6 -78 0 -94 -3 -148 -31 -62 -32 -102 -70 -134 -129 l-18 -33 -24 23 c-14 13 -25 28 -25 33 0 16 -71 98 -94 108 -11 5 -28 13 -36 18 -35 20 -99 34 -148 33 -60 -3 -74 13 -49 51 8 12 18 37 21 54 4 17 14 37 22 44 8 6 14 16 14 21 0 18 63 90 103 119 45 33 113 39 157 16z"/> <path d="M5570 9930 c-8 -5 -24 -10 -34 -10 -26 0 -134 -54 -166 -83 -36 -32 -82 -95 -78 -106 1 -5 45 4 98 21 97 31 107 35 169 70 30 17 47 19 98 15 66 -7 80 -12 155 -60 56 -36 134 -150 164 -241 20 -62 79 -126 116 -126 24 0 23 16 -2 23 -14 4 -20 14 -20 34 0 37 -27 165 -42 200 -13 29 -74 121 -92 138 -21 20 -101 80 -123 92 -56 32 -214 53 -243 33z"/> <path d="M5450 9720 l-25 -19 34 -7 c48 -10 166 -128 176 -175 4 -19 12 -48 18 -66 9 -26 7 -43 -8 -90 -22 -65 -69 -145 -109 -185 -29 -28 -141 -98 -158 -98 -5 0 -24 -6 -41 -14 -18 -7 -57 -19 -87 -25 -105 -22 -125 -29 -183 -58 -57 -30 -139 -106 -209 -194 -23 -29 -59 -57 -94 -75 -55 -28 -63 -29 -188 -28 -73 1 -144 7 -160 13 -16 7 -64 15 -105 18 -61 4 -92 1 -155 -17 -189 -53 -307 -164 -353 -330 -20 -74 -17 -83 15 -53 15 14 36 32 48 39 11 8 27 26 35 42 35 69 131 152 176 152 8 0 13 6 10 13 -7 19 134 61 203 60 30 -1 116 -6 189 -12 118 -10 148 -10 234 6 56 9 106 24 115 32 8 9 30 25 48 36 17 11 64 56 104 100 82 90 188 157 300 189 114 33 215 68 231 82 8 8 19 14 23 14 13 0 106 81 106 92 0 5 13 26 29 46 46 59 63 116 63 212 0 67 -5 96 -21 130 -23 51 -117 160 -136 160 -7 0 -26 7 -41 15 -38 20 -54 19 -84 -5z"/> <path d="M3220 7969 c-97 -24 -242 -96 -308 -155 -60 -52 -168 -188 -200 -252 -12 -23 -32 -77 -44 -120 -19 -69 -21 -104 -23 -347 -1 -148 2 -367 7 -485 7 -183 12 -226 33 -295 42 -140 141 -276 272 -374 52 -38 94 -59 178 -88 105 -35 116 -37 250 -37 118 -1 154 3 230 23 l90 24 55 -26 c74 -35 152 -43 209 -23 59 22 109 61 113 88 2 14 11 24 23 26 11 2 32 21 47 42 35 50 57 45 108 -25 21 -28 62 -67 91 -86 l54 -34 414 -2 c350 -2 419 0 444 12 17 8 36 15 44 15 17 0 116 101 156 159 l31 45 17 -41 c9 -22 33 -57 53 -76 20 -20 36 -40 36 -44 0 -4 16 -21 35 -36 79 -63 202 -76 291 -31 53 27 128 103 156 159 23 44 41 170 34 234 -7 65 7 208 23 224 22 22 24 19 234 -361 80 -146 141 -213 237 -262 38 -19 54 -22 110 -16 102 9 135 23 186 73 66 67 91 109 109 185 13 56 15 174 15 794 -1 729 -5 835 -37 897 -62 122 -212 213 -304 187 -19 -6 -44 -10 -56 -10 -27 0 -134 -79 -167 -123 -59 -79 -61 -88 -62 -287 -1 -180 -6 -230 -24 -230 -17 0 -116 144 -126 183 -3 14 -14 33 -25 43 -10 9 -19 24 -19 32 0 7 -8 26 -18 40 -11 15 -36 61 -57 102 -28 54 -61 96 -118 152 -111 109 -186 131 -299 88 -61 -23 -164 -110 -193 -164 -11 -20 -24 -36 -30 -36 -5 0 -30 25 -55 55 -46 56 -111 109 -165 134 -38 17 -462 33 -680 25 -179 -7 -222 -22 -304 -104 -95 -95 -100 -120 -101 -485 -1 -159 -6 -307 -11 -328 -10 -38 -11 -38 -32 -23 -12 9 -31 20 -42 25 -11 5 -31 21 -45 36 -14 15 -44 38 -67 52 -41 24 -51 25 -235 27 l-193 3 -64 -29 c-60 -27 -128 -86 -168 -145 -23 -34 -41 -128 -33 -170 11 -60 57 -133 84 -133 6 0 18 -13 28 -29 9 -16 29 -37 45 -47 72 -45 91 -86 59 -129 -12 -16 -27 -19 -91 -19 l-78 0 -43 47 c-31 35 -45 59 -49 90 -4 23 -5 179 -3 347 3 295 4 306 25 341 14 22 42 46 76 63 69 35 97 32 266 -29 39 -14 48 -14 95 0 66 20 118 60 215 168 131 144 148 209 78 286 -19 21 -36 42 -38 47 -12 28 -165 115 -239 136 -160 45 -389 57 -510 27z m370 -113 c99 -18 183 -51 275 -107 28 -16 60 -35 73 -41 12 -6 22 -19 22 -28 0 -9 -60 -77 -134 -152 -108 -111 -137 -136 -155 -131 -11 3 -21 9 -21 13 0 19 -165 80 -216 80 -47 0 -153 -37 -193 -67 -106 -80 -120 -143 -120 -543 0 -345 10 -402 86 -486 52 -58 106 -78 213 -77 86 1 102 4 175 36 l80 36 3 146 3 145 -78 -2 c-68 -3 -82 0 -111 21 -83 58 -107 162 -56 237 55 81 94 94 287 93 84 0 157 1 162 2 20 6 91 -24 118 -50 16 -14 37 -43 48 -63 18 -35 19 -63 19 -453 l0 -415 -24 -38 c-47 -74 -70 -87 -149 -87 -78 0 -107 14 -144 67 -18 28 -46 37 -57 19 -9 -14 -86 -48 -141 -62 -66 -17 -287 -17 -345 1 -45 13 -102 36 -130 51 -8 5 -25 13 -37 19 -12 5 -55 42 -95 82 -60 59 -83 91 -120 168 -65 136 -69 175 -68 640 0 388 7 491 35 555 8 17 16 37 19 45 10 25 66 109 106 156 35 41 126 107 185 134 28 12 59 27 70 33 11 6 65 19 120 28 106 19 171 18 295 -5z m2285 -36 c39 -9 90 -55 118 -107 7 -12 31 -59 55 -105 24 -46 61 -117 83 -158 23 -41 56 -104 76 -140 19 -36 49 -92 68 -125 18 -33 52 -96 75 -140 22 -44 45 -87 50 -95 5 -8 30 -60 57 -114 47 -97 65 -120 76 -94 2 8 1 94 -5 193 -5 99 -8 314 -6 480 3 297 3 300 27 331 51 69 118 94 215 80 57 -9 118 -66 135 -128 16 -59 11 -1641 -5 -1678 -34 -75 -126 -116 -220 -99 -42 8 -114 52 -114 69 0 5 -6 15 -12 22 -7 7 -23 33 -36 58 -13 25 -38 72 -57 105 -18 33 -45 83 -60 110 -14 28 -41 77 -59 110 -19 33 -53 96 -75 140 -23 44 -64 121 -91 170 -54 98 -120 231 -120 243 0 4 -11 21 -24 37 l-25 30 -8 -23 c-5 -12 -5 -71 0 -130 4 -59 7 -269 5 -467 -3 -344 -4 -361 -24 -392 -31 -49 -68 -73 -123 -80 -82 -9 -132 3 -177 45 -76 70 -74 42 -74 917 0 688 2 777 16 811 46 111 134 153 259 124z m-578 -35 c52 -44 73 -90 73 -155 0 -65 -21 -111 -68 -146 l-35 -28 -280 3 c-174 1 -282 -1 -286 -7 -3 -6 -5 -94 -3 -196 l3 -186 255 0 c270 0 276 -1 324 -51 75 -79 63 -225 -22 -290 l-33 -24 -262 0 c-171 0 -263 -3 -264 -10 -3 -63 4 -381 9 -385 4 -3 115 -3 247 0 270 6 311 -1 371 -60 59 -57 59 -190 1 -250 -59 -61 -59 -61 -502 -61 -418 -1 -421 0 -464 41 -9 9 -24 27 -33 42 -17 25 -18 84 -18 860 l1 833 27 33 c61 74 40 70 503 71 l415 1 41 -35z m189 -562 c5 -239 -1 -303 -24 -303 -5 0 -17 20 -26 45 -20 52 -97 149 -135 170 -99 55 -109 57 -269 61 -85 3 -163 9 -173 15 -10 5 -22 21 -25 34 -7 29 13 85 30 85 6 0 99 1 206 2 219 3 190 -6 320 97 41 32 79 56 83 52 4 -4 10 -120 13 -258z m-11 -403 c9 -14 13 -550 4 -555 -8 -6 -60 33 -96 72 -16 17 -59 45 -96 62 -66 31 -67 31 -235 31 -156 0 -171 2 -196 21 -19 15 -26 30 -26 54 0 57 12 61 187 68 172 6 232 20 290 66 42 33 143 158 143 177 0 16 16 19 25 4z"/> <path d="M9203 7920 c-59 -26 -108 -67 -147 -120 -40 -55 -45 -69 -61 -150 -7 -36 -21 -92 -30 -125 -29 -103 -33 -124 -76 -340 -23 -115 -45 -226 -49 -245 -4 -19 -13 -60 -20 -90 -6 -30 -18 -82 -26 -115 -8 -33 -16 -85 -19 -115 -2 -30 -8 -68 -14 -83 -6 -15 -20 -65 -30 -110 -70 -290 -77 -378 -36 -455 45 -86 125 -154 198 -166 53 -10 156 13 197 43 19 14 36 26 38 27 2 1 5 9 6 18 1 9 16 29 33 45 18 16 40 54 53 90 23 61 49 91 80 91 14 0 60 -60 60 -78 0 -13 79 -133 109 -166 35 -39 117 -76 168 -76 51 0 160 48 190 84 35 40 90 37 125 -7 36 -46 134 -80 204 -71 103 13 181 70 246 180 19 33 22 56 27 208 3 94 4 477 1 851 l-5 680 -34 53 c-19 28 -37 52 -40 52 -3 0 -26 18 -51 41 -62 57 -90 69 -158 69 -89 0 -143 -23 -212 -90 -94 -93 -94 -93 -97 -335 -3 -183 -11 -609 -13 -687 0 -16 -5 -28 -10 -28 -9 0 -30 62 -30 88 0 7 -4 20 -9 30 -14 27 -85 336 -95 417 -4 28 -16 84 -26 125 -10 41 -28 117 -39 167 -27 123 -41 153 -98 214 -87 94 -209 125 -310 79z m157 -97 c65 -13 140 -124 140 -208 0 -17 5 -46 11 -65 6 -19 14 -60 18 -90 5 -30 13 -75 19 -100 6 -25 18 -79 26 -120 8 -41 20 -97 26 -125 6 -27 15 -75 20 -105 4 -30 13 -68 19 -83 6 -16 11 -42 11 -58 0 -16 6 -55 14 -87 19 -76 58 -263 76 -367 5 -27 14 -66 19 -85 6 -19 11 -49 11 -66 0 -17 7 -51 16 -75 8 -24 16 -74 16 -110 1 -55 -2 -71 -21 -95 -39 -49 -70 -64 -138 -64 -56 0 -66 3 -99 32 -43 38 -74 103 -75 161 0 23 -6 65 -13 92 l-11 50 -150 3 -150 2 -18 -77 c-9 -43 -17 -92 -17 -109 0 -72 -55 -140 -124 -153 -74 -14 -129 3 -171 52 -32 37 -35 46 -35 104 0 34 6 80 14 100 14 40 31 114 45 200 5 28 13 58 17 65 5 7 11 36 15 63 10 74 28 164 45 216 8 26 14 61 14 78 0 18 5 42 11 53 7 12 15 47 19 77 10 75 29 165 46 225 8 26 14 61 14 76 0 16 5 41 12 57 6 15 15 51 19 78 12 73 29 153 45 211 8 28 14 62 14 76 0 60 72 152 132 170 32 8 79 9 118 1z m874 -20 c13 -10 35 -34 50 -54 l26 -37 0 -841 c0 -821 0 -841 -20 -874 -31 -52 -97 -80 -175 -75 -70 4 -87 15 -136 82 l-29 39 0 844 0 844 45 44 c25 24 55 46 68 49 44 9 147 -3 171 -21z"/> <path d="M9279 7054 c-7 -9 -16 -55 -20 -103 -8 -90 -19 -157 -46 -278 -17 -76 -13 -109 13 -99 9 3 47 6 85 6 l69 0 0 33 c0 17 -5 48 -11 67 -6 19 -14 64 -19 100 -5 36 -14 94 -19 130 -6 36 -11 86 -11 113 0 50 -15 62 -41 31z"/> <path d="M7374 7101 c-22 -4 -53 -17 -69 -29 -15 -12 -33 -22 -38 -22 -13 0 -97 -80 -97 -93 0 -4 -12 -25 -27 -44 -25 -33 -28 -45 -28 -118 0 -60 4 -87 17 -105 77 -111 101 -139 141 -168 30 -22 64 -36 103 -42 53 -9 573 -13 874 -8 164 4 182 11 288 118 46 47 71 106 78 182 9 97 -19 159 -106 242 -39 36 -82 68 -97 71 -16 3 -47 10 -71 15 -47 11 -902 12 -968 1z m1043 -136 c17 -10 45 -41 62 -67 25 -38 31 -57 31 -102 0 -90 -33 -144 -112 -186 -36 -19 -58 -20 -528 -20 -432 0 -495 2 -523 16 -47 24 -95 73 -102 105 -4 16 -11 31 -16 34 -16 10 -10 81 11 128 20 46 77 100 115 110 11 3 247 4 525 4 483 -2 506 -3 537 -22z"/> <path d="M4810 5583 c-80 -6 -91 -12 -190 -107 -93 -90 -99 -94 -154 -100 -51 -7 -61 -5 -109 23 -29 17 -59 41 -66 54 -20 38 -91 92 -145 110 -58 20 -325 24 -373 7 -15 -6 -45 -30 -66 -53 -38 -42 -38 -42 -34 -112 5 -81 19 -141 48 -197 28 -55 162 -191 218 -221 99 -53 291 -80 505 -71 157 7 183 3 229 -40 33 -30 37 -39 37 -83 0 -72 -37 -118 -120 -149 -25 -9 -52 -25 -62 -35 -9 -11 -25 -19 -35 -19 -20 0 -52 -31 -73 -70 -15 -28 -5 -86 16 -94 11 -4 14 -14 11 -28 -9 -31 14 -77 67 -132 25 -28 46 -53 46 -56 0 -4 25 -19 55 -35 48 -24 64 -27 118 -23 55 5 123 27 181 59 10 6 49 27 85 47 36 20 73 44 81 54 16 18 68 40 161 66 79 22 132 5 160 -51 19 -37 20 -59 3 -120 -7 -24 -49 -43 -113 -50 -47 -6 -61 -12 -97 -49 -23 -24 -52 -51 -63 -60 -41 -35 -25 -110 39 -187 22 -26 40 -52 40 -58 0 -18 50 -73 66 -73 7 0 21 -11 29 -24 39 -59 176 -103 325 -105 117 -1 196 17 245 53 17 13 41 26 53 31 35 10 154 131 196 197 20 32 50 97 67 145 40 118 44 190 44 860 -1 581 -4 623 -46 623 -18 0 -19 -10 -20 -227 -6 -933 -8 -1069 -19 -1136 -28 -170 -129 -323 -269 -412 -23 -14 -46 -25 -53 -25 -7 0 -26 -7 -43 -16 -22 -12 -61 -17 -150 -18 -124 -1 -128 0 -234 52 -65 32 -161 144 -161 188 0 8 -7 17 -15 20 -8 3 -17 22 -21 41 -11 57 9 69 115 65 87 -3 89 -2 131 30 90 69 113 162 65 261 -32 67 -42 78 -90 107 -33 20 -52 24 -125 25 -90 0 -160 -21 -225 -69 -46 -34 -141 -90 -230 -135 -97 -50 -154 -54 -214 -17 -43 27 -97 92 -123 146 -17 38 -48 132 -48 149 0 7 26 11 67 11 54 0 78 6 130 31 67 33 120 87 130 132 3 15 10 30 14 33 13 8 11 53 -6 109 -15 48 -67 115 -91 115 -6 0 -17 7 -24 15 -10 12 -56 14 -300 12 -207 -1 -294 1 -311 10 -13 7 -46 21 -72 33 -46 20 -77 42 -137 100 -24 23 -90 123 -90 136 0 3 -6 20 -14 37 -8 18 -19 68 -25 111 -13 89 -7 100 43 91 16 -3 116 -5 222 -5 l194 0 6 -27 c7 -34 29 -82 46 -103 41 -50 141 -100 202 -100 25 0 72 11 111 27 73 29 145 117 145 178 l0 24 278 3 c152 2 283 1 290 -1 9 -2 11 -37 8 -145 -3 -77 -5 -142 -5 -143 -1 -2 -14 -3 -30 -3 -50 0 -79 -17 -101 -61 -24 -47 -24 -123 1 -193 16 -45 90 -125 140 -151 96 -50 267 -50 365 -1 50 26 120 93 144 138 31 60 34 196 5 228 -31 34 -73 52 -106 45 -34 -8 -31 -18 -29 125 1 58 -2 118 -5 133 -20 79 -70 -37 -61 -143 6 -75 27 -114 103 -199 28 -30 33 -44 33 -84 0 -53 -21 -99 -54 -116 -12 -6 -36 -22 -54 -36 -38 -27 -127 -49 -191 -46 -108 5 -220 104 -221 195 0 40 20 74 82 141 59 63 74 225 29 299 -29 46 -54 63 -117 77 -50 11 -312 19 -394 12z"/> <path d="M5745 5581 c-46 -8 -85 -30 -85 -48 0 -6 20 -15 43 -18 60 -9 453 -2 464 8 15 16 -41 45 -108 56 -73 12 -248 13 -314 2z"/> <path d="M7300 5580 c-97 -15 -145 -58 -161 -145 -6 -36 -9 -273 -7 -668 l4 -612 29 -85 c33 -99 81 -206 106 -235 58 -67 110 -115 124 -115 9 0 33 -16 52 -35 32 -32 84 -55 127 -55 11 0 27 -6 35 -14 32 -28 222 -16 349 23 40 12 143 96 195 159 44 53 69 99 87 160 13 41 12 44 -17 80 -16 20 -35 47 -41 58 -19 36 -77 57 -139 50 -30 -3 -65 -14 -79 -23 -18 -12 -28 -13 -36 -5 -15 15 -38 81 -38 110 0 37 36 97 79 132 38 30 44 31 98 25 89 -10 151 -31 217 -73 107 -67 184 -112 193 -112 5 0 29 -10 54 -22 33 -17 61 -23 114 -23 63 0 76 4 122 33 29 18 67 50 86 71 67 75 110 204 88 264 -13 33 -35 31 -39 -4 -2 -13 -8 -28 -13 -33 -5 -6 -9 -19 -9 -29 0 -22 -38 -105 -58 -126 -7 -8 -21 -25 -30 -38 -23 -37 -91 -76 -132 -77 -19 0 -53 8 -75 17 -70 32 -155 76 -198 104 -60 39 -67 44 -149 87 -69 37 -78 39 -163 40 -72 0 -97 -4 -125 -19 -50 -28 -81 -55 -110 -95 -23 -32 -25 -43 -24 -140 1 -126 18 -168 87 -218 25 -17 48 -32 50 -32 3 0 11 16 17 35 15 47 40 59 106 50 84 -10 105 -48 64 -110 -11 -16 -20 -38 -20 -47 0 -31 -130 -152 -195 -183 -56 -27 -68 -29 -185 -28 -97 0 -132 4 -155 16 -16 9 -38 17 -47 17 -10 0 -18 4 -18 9 0 5 -14 14 -31 20 -46 16 -169 146 -204 216 -72 145 -67 87 -74 840 -3 374 -9 685 -14 692 -4 6 -3 14 2 17 5 3 119 7 252 7 l244 2 3 -140 3 -139 -34 -12 c-18 -7 -43 -12 -54 -12 -59 0 -85 -149 -42 -244 23 -53 91 -125 141 -151 42 -22 132 -44 180 -45 133 -1 269 77 326 188 30 59 31 160 1 209 -21 34 -73 63 -114 63 -21 0 -22 2 -21 143 1 141 1 142 24 141 12 0 141 -1 286 -2 l264 -2 7 -36 c13 -72 57 -125 135 -162 60 -28 153 -41 164 -23 4 6 16 11 26 11 28 0 93 36 121 68 33 37 46 63 54 105 l7 36 220 3 c121 2 225 0 231 -4 14 -9 1 -159 -18 -195 -8 -15 -15 -31 -15 -35 0 -4 -14 -31 -31 -60 -36 -60 -89 -114 -145 -148 -22 -13 -41 -26 -44 -29 -3 -4 -21 -12 -40 -20 -69 -27 -153 -33 -340 -25 -102 4 -206 7 -232 7 -60 -2 -131 -42 -166 -96 -23 -35 -27 -50 -26 -116 1 -113 39 -167 157 -220 54 -25 167 -27 175 -3 2 6 -4 12 -13 12 -9 0 -26 10 -38 23 -12 13 -42 29 -67 37 -27 9 -64 33 -92 61 -42 40 -48 51 -48 86 0 37 5 46 50 87 38 33 62 47 95 51 24 4 48 5 53 1 5 -3 83 -8 174 -11 170 -7 249 1 306 31 15 8 35 14 45 14 44 0 197 121 211 168 4 11 15 23 25 27 23 7 61 87 61 128 0 18 7 42 15 53 9 12 14 42 15 80 0 55 -3 63 -34 97 -53 58 -86 67 -243 66 -187 0 -220 -7 -276 -54 -26 -22 -47 -44 -47 -51 0 -12 -70 -73 -107 -92 -31 -17 -99 -15 -136 4 -33 17 -137 120 -137 135 0 5 -5 9 -12 9 -6 0 -22 10 -36 23 -22 20 -36 23 -185 28 -154 7 -261 4 -336 -7 -33 -5 -91 -56 -91 -80 0 -7 -7 -14 -15 -18 -12 -4 -15 -24 -15 -93 0 -100 15 -151 56 -196 93 -104 101 -129 61 -195 -13 -20 -26 -45 -30 -54 -3 -10 -11 -18 -17 -18 -6 0 -27 -11 -48 -25 -47 -31 -186 -45 -248 -25 -79 26 -144 100 -159 182 -6 33 -2 42 41 94 26 32 53 64 60 71 16 17 34 101 34 162 0 62 -32 134 -73 165 -18 13 -56 29 -85 35 -57 12 -239 13 -312 1z"/> <path d="M5580 4341 c0 -11 4 -22 9 -25 15 -10 41 -103 41 -147 0 -63 -51 -148 -113 -189 -44 -29 -58 -32 -148 -37 -54 -3 -99 -10 -99 -14 0 -14 88 -48 141 -55 79 -10 131 10 199 77 33 32 62 71 66 86 4 15 11 34 17 41 13 17 12 107 -2 160 -8 27 -27 58 -53 83 -45 44 -58 48 -58 20z"/> <path d="M7970 3930 c0 -19 47 -30 80 -19 46 17 36 29 -25 29 -31 0 -55 -4 -55 -10z"/> <path d="M7680 9930 c-8 -5 -26 -10 -40 -10 -14 0 -38 -7 -54 -15 -15 -8 -35 -15 -42 -15 -21 0 -157 -138 -178 -180 -36 -70 -49 -117 -55 -190 -5 -65 -9 -76 -28 -85 -13 -5 -23 -16 -23 -23 0 -15 55 -8 78 11 16 13 72 121 72 138 0 7 6 20 14 28 7 9 22 40 32 70 13 37 28 60 48 72 15 9 33 28 40 40 6 13 25 26 41 30 17 4 55 14 86 23 75 20 170 9 268 -33 40 -17 82 -31 92 -31 10 0 19 -4 19 -10 0 -5 7 -10 15 -10 8 0 15 4 15 8 0 13 -103 108 -146 135 -72 44 -217 71 -254 47z"/> <path d="M8640 9444 c-14 -7 -35 -14 -46 -14 -12 0 -27 -7 -34 -15 -7 -8 -20 -15 -30 -15 -10 0 -23 -6 -29 -14 -7 -8 -23 -17 -37 -20 -14 -4 -22 -11 -19 -16 9 -15 97 -11 125 5 14 8 35 14 48 15 45 0 129 61 115 82 -7 13 -66 7 -93 -8z"/> <path d="M8518 8776 c-16 -19 -28 -39 -28 -43 0 -17 71 -113 92 -124 20 -11 81 -22 118 -21 35 1 252 23 337 34 76 9 100 9 135 -3 75 -24 195 -87 212 -110 8 -13 44 -47 78 -77 35 -29 73 -62 85 -74 38 -34 38 1 1 78 -34 72 -119 168 -173 197 -84 45 -114 56 -216 80 -50 11 -111 5 -279 -28 -65 -13 -110 -15 -190 -10 -107 7 -132 15 -129 44 3 37 -2 91 -8 91 -5 0 -20 -16 -35 -34z"/> <path d="M4638 9455 c-4 -4 4 -23 19 -41 20 -27 33 -34 59 -34 18 0 36 -4 39 -10 3 -5 16 -10 28 -10 12 0 34 -6 49 -14 17 -9 42 -12 68 -9 48 7 61 20 26 29 -13 3 -27 12 -30 20 -3 8 -13 14 -22 14 -10 0 -25 6 -33 14 -31 26 -186 57 -203 41z"/> <path d="M12095 10463 c-33 -8 -73 -53 -80 -90 -11 -59 3 -108 42 -147 32 -32 42 -36 85 -36 27 0 58 5 69 11 35 18 79 89 79 127 0 39 -29 93 -64 115 -25 17 -100 28 -131 20z"/> <path d="M11621 10380 c-17 -15 -24 -31 -25 -59 -1 -43 14 -65 56 -87 27 -14 32 -13 62 6 77 47 47 161 -41 160 -15 -1 -39 -10 -52 -20z"/> <path d="M9067 10292 c-13 -14 -17 -39 -17 -110 0 -87 1 -92 25 -108 38 -25 75 -21 102 10 20 23 23 38 23 105 0 68 -3 80 -23 99 -29 28 -87 29 -110 4z"/> <path d="M12284 10194 l-48 -45 77 -76 c92 -90 107 -90 107 -5 0 92 -7 114 -50 144 l-38 28 -48 -46z"/> <path d="M9680 10032 c0 -73 20 -120 73 -169 38 -36 67 -42 87 -18 7 8 18 15 24 15 6 0 23 13 37 29 20 23 27 45 32 98 4 37 8 77 9 88 3 19 -3 20 -129 20 l-133 0 0 -63z"/> <path d="M10753 10048 c-45 -49 -40 -106 12 -138 43 -27 57 -25 94 9 24 22 31 38 31 65 0 73 -90 115 -137 64z"/> <path d="M11450 10055 c-14 -8 -37 -14 -51 -15 -14 0 -34 -7 -45 -15 -10 -8 -25 -15 -32 -15 -20 0 -96 -57 -155 -115 -37 -36 -97 -127 -115 -175 -8 -19 -18 -66 -24 -105 -5 -38 -15 -75 -21 -81 -15 -13 -93 -31 -173 -39 -60 -7 -61 -6 -83 27 -69 99 -234 149 -356 107 -65 -22 -175 -115 -175 -147 0 -5 -6 -15 -14 -21 -7 -6 -19 -44 -25 -84 -11 -60 -10 -81 2 -128 19 -69 31 -91 82 -147 63 -69 135 -102 227 -102 38 0 60 -5 65 -14 8 -13 121 -139 218 -241 76 -81 135 -152 135 -165 0 -6 -7 -22 -16 -35 -13 -19 -15 -46 -12 -132 3 -98 7 -115 37 -177 33 -69 110 -157 153 -176 13 -6 30 -14 38 -19 73 -42 194 -52 280 -22 73 25 92 36 150 81 52 40 89 80 90 96 0 5 5 15 12 22 6 6 21 40 32 74 l21 63 60 6 c33 4 73 12 88 18 48 19 84 14 91 -12 6 -26 66 -97 82 -97 5 0 15 -5 21 -11 19 -19 115 -48 158 -49 92 -1 222 69 270 145 34 54 65 138 65 176 0 29 -26 125 -41 149 -5 8 -13 24 -18 35 -12 26 -77 85 -121 110 -29 17 -53 20 -140 20 -92 -1 -111 -4 -150 -25 -59 -32 -114 -89 -144 -149 -22 -43 -30 -50 -63 -54 -135 -20 -162 -25 -171 -31 -11 -6 -52 43 -52 62 0 6 -23 33 -51 60 -46 45 -50 53 -44 82 4 17 13 43 21 58 8 15 14 34 14 42 0 18 30 101 43 118 5 7 31 12 59 12 28 0 62 6 76 13 15 8 45 22 67 33 70 33 133 86 185 155 27 37 50 72 50 78 0 5 6 22 14 38 28 55 41 119 40 198 0 79 -23 188 -43 208 -6 6 -11 17 -11 23 0 37 -134 193 -185 215 -11 5 -27 13 -35 18 -24 14 -81 38 -135 55 -64 21 -210 21 -245 1z m237 -276 c48 -23 105 -84 134 -143 24 -49 26 -162 4 -192 -8 -10 -15 -26 -15 -35 0 -9 -21 -37 -46 -62 -134 -137 -333 -111 -441 56 -25 38 -28 51 -28 132 0 87 1 92 37 145 39 58 108 110 162 122 50 11 147 -1 193 -23z m-520 -211 c4 -7 11 -42 16 -78 4 -36 10 -84 13 -107 7 -52 -4 -55 -82 -18 -48 23 -52 27 -52 59 0 26 10 45 39 77 21 24 39 51 39 61 0 21 15 24 27 6z m-605 -175 c38 -36 38 -89 2 -132 -36 -43 -88 -43 -132 0 -42 41 -43 83 -3 127 39 42 92 45 133 5z m201 -8 c26 -11 21 -39 -14 -76 -36 -39 -43 -33 -52 48 l-6 51 27 -8 c15 -4 35 -11 45 -15z m338 -122 c57 -96 184 -213 230 -213 34 0 42 -35 19 -86 -11 -26 -20 -55 -20 -65 0 -10 -8 -34 -17 -54 -16 -34 -18 -35 -77 -35 -44 0 -69 -6 -91 -20 -54 -36 -64 -31 -150 76 -59 72 -103 121 -172 191 -56 55 -78 93 -55 93 5 0 16 18 26 40 24 54 42 70 79 70 18 0 61 9 97 19 95 28 105 27 131 -16z m-441 -128 c0 -79 -18 -95 -56 -49 -29 36 -29 35 -3 78 12 21 29 36 40 36 17 0 19 -8 19 -65z m705 56 c3 -5 31 -15 63 -21 78 -14 130 -31 141 -44 13 -15 -55 -96 -80 -96 -12 0 -32 18 -51 45 -17 25 -39 47 -48 50 -15 5 -24 18 -48 68 -5 10 16 9 23 -2z m70 -474 c11 -23 25 -50 33 -59 12 -14 11 -18 -7 -28 -17 -8 -21 -8 -21 4 0 15 -21 26 -48 26 -22 0 -52 30 -52 52 0 10 10 32 22 48 20 27 23 28 38 15 10 -9 25 -35 35 -58z m-305 -56 l45 -8 -37 -16 c-21 -10 -38 -24 -38 -33 0 -17 -38 -53 -56 -54 -10 0 -31 46 -49 109 -8 26 -7 26 135 2z m1145 -63 c52 -62 11 -153 -69 -153 -32 0 -44 6 -67 35 -38 45 -37 80 2 119 44 44 97 44 134 -1z m-895 -50 c70 -51 89 -138 46 -206 -42 -67 -60 -77 -136 -77 -63 0 -71 3 -100 30 -35 33 -70 94 -70 123 0 52 70 140 125 155 36 10 105 -2 135 -25z m215 -24 c55 -38 66 -50 61 -68 -3 -11 -6 -26 -6 -33 0 -22 -40 -36 -66 -25 -17 8 -24 22 -30 59 -3 26 -13 60 -20 75 -26 51 -22 50 61 -8z m404 4 c4 -13 11 -40 15 -61 l7 -37 -46 32 c-50 35 -53 43 -28 70 22 24 42 23 52 -4z"/> <path d="M11514 9684 c-11 -3 -38 -23 -60 -45 -35 -36 -38 -44 -39 -97 0 -45 5 -64 25 -90 49 -66 120 -88 181 -56 62 32 99 87 99 148 0 38 -6 50 -42 90 -38 42 -48 47 -93 51 -27 2 -59 1 -71 -1z"/> <path d="M10025 9861 l-50 -6 1 -85 c1 -61 5 -86 15 -91 35 -18 127 -39 143 -33 20 8 56 74 56 105 0 24 -35 87 -58 107 -16 12 -24 13 -107 3z"/> <path d="M1430 9828 c-26 -43 -25 -50 6 -87 l26 -32 151 3 150 3 30 37 30 37 -27 36 -27 35 -160 0 -159 0 -20 -32z"/> <path d="M9465 9823 c-29 -44 -34 -116 -9 -151 19 -27 39 -28 87 -2 20 11 44 20 52 20 8 0 15 5 15 10 0 6 -22 10 -50 10 -40 0 -51 4 -61 21 -9 18 -7 26 17 50 15 16 37 29 49 29 12 0 30 6 41 14 18 14 18 15 -9 25 -16 6 -46 11 -67 11 -34 0 -43 -5 -65 -37z"/> <path d="M1090 9773 c-72 -28 -64 -129 13 -156 49 -18 113 52 95 104 -5 15 -15 33 -22 38 -16 14 -67 22 -86 14z"/> <path d="M9758 9727 c-30 -75 -78 -261 -78 -300 0 -32 9 -33 72 -10 44 16 50 16 108 -2 74 -22 87 -15 71 41 -6 22 -11 59 -11 84 0 25 -6 54 -14 65 -7 11 -16 31 -19 45 -7 30 -29 90 -40 108 -5 6 -23 12 -40 12 -28 0 -34 -5 -49 -43z"/> <path d="M12283 9560 c-26 -11 -30 -31 -39 -181 -5 -95 -3 -121 10 -146 26 -51 72 -58 113 -17 25 25 25 26 21 171 -3 138 -4 146 -27 164 -25 20 -44 23 -78 9z"/> <path d="M1564 9537 c-189 -38 -323 -126 -418 -274 -25 -39 -46 -78 -46 -85 0 -7 -6 -22 -14 -33 -18 -27 -26 -79 -33 -209 -3 -71 -1 -112 6 -119 6 -6 11 -27 11 -47 0 -20 7 -45 15 -56 8 -10 15 -25 15 -32 0 -22 91 -155 134 -197 23 -22 63 -57 89 -79 l47 -38 0 -93 0 -92 39 -36 c38 -35 41 -36 67 -23 14 8 49 17 75 21 27 4 52 11 55 16 3 5 6 126 6 269 l0 260 -33 52 c-56 90 -99 109 -153 67 -42 -33 -36 -74 24 -150 52 -67 63 -99 33 -99 -18 1 -63 32 -63 44 0 3 -8 14 -17 24 -39 41 -65 75 -75 100 -67 163 -66 287 4 418 24 43 118 127 175 155 41 20 63 24 154 24 86 0 113 -4 145 -20 96 -49 171 -125 206 -210 28 -66 43 -177 29 -215 -6 -18 -11 -46 -11 -61 0 -15 -4 -30 -9 -34 -5 -3 -12 -18 -16 -33 -3 -16 -35 -65 -70 -110 -50 -64 -71 -82 -90 -82 -39 0 -31 26 33 107 18 24 36 59 39 78 5 30 1 39 -27 65 -18 16 -40 30 -50 30 -28 0 -65 -35 -104 -100 l-36 -61 0 -259 c0 -296 -9 -269 98 -290 63 -13 63 -13 100 17 l37 30 3 96 3 95 37 28 c120 89 262 280 262 353 0 10 7 35 15 54 20 49 20 199 -1 268 -43 142 -92 227 -180 313 -33 31 -78 66 -101 77 -24 11 -45 25 -49 30 -3 5 -14 9 -25 9 -11 0 -32 6 -47 14 -34 18 -236 34 -288 23z m312 -1059 c3 -5 -2 -18 -12 -29 -10 -11 -18 -29 -19 -40 -2 -21 -21 -46 -30 -37 -7 7 -14 125 -8 132 7 6 62 -14 69 -26z m-381 11 c4 -6 9 -37 12 -70 5 -48 3 -59 -9 -59 -21 0 -39 23 -40 52 -1 13 -8 32 -15 43 -7 11 -13 25 -13 32 0 16 56 18 65 2z"/> <path d="M2512 9018 c-7 -7 -12 -36 -12 -64 l0 -53 -52 -3 c-50 -3 -53 -5 -62 -36 -6 -22 -5 -41 2 -57 10 -22 18 -25 62 -25 l50 0 -1 -57 c-2 -48 2 -60 21 -75 50 -40 92 -9 100 75 l5 52 53 1 c60 1 69 7 78 51 9 44 -26 75 -81 72 -69 -3 -67 -4 -60 55 6 48 5 55 -13 65 -27 15 -75 14 -90 -1z"/> <path d="M10482 8690 c-32 -42 -29 -83 8 -113 43 -36 66 -41 94 -20 26 19 56 67 56 88 0 7 -13 27 -29 44 -41 43 -98 44 -129 1z"/> <path d="M2147 8243 c-42 -11 -49 -98 -12 -133 58 -54 138 -18 138 61 0 65 -48 92 -126 72z"/> <path d="M1040 8161 c-5 -11 -10 -40 -10 -64 0 -53 -12 -66 -62 -64 -43 1 -78 -25 -78 -58 0 -31 42 -67 77 -65 52 4 53 3 53 -57 1 -72 15 -93 64 -93 67 0 73 17 71 209 -1 193 -7 211 -67 211 -27 0 -40 -6 -48 -19z"/> <path d="M1434 8062 c-60 -11 -84 -89 -41 -130 22 -21 32 -21 261 -22 234 -1 239 -1 262 21 31 29 32 78 2 104 -21 18 -42 20 -244 25 -122 3 -230 3 -240 2z"/> <path d="M11880 8000 c-42 -10 -94 -37 -119 -62 -14 -13 -45 -37 -70 -53 -49 -32 -79 -81 -88 -144 -3 -20 -11 -42 -17 -50 -20 -26 -39 -86 -39 -126 0 -50 28 -127 57 -157 12 -13 30 -43 41 -68 18 -44 89 -120 111 -120 6 0 17 -7 24 -15 7 -8 22 -15 33 -15 11 0 29 -8 40 -17 16 -15 39 -18 142 -18 103 0 126 3 142 18 11 9 25 17 31 17 6 0 28 9 49 20 67 35 133 106 133 143 0 10 13 35 28 55 57 76 73 156 46 234 -10 29 -24 60 -31 69 -7 8 -13 28 -13 43 0 48 -37 105 -93 140 -29 19 -61 42 -72 53 -44 40 -96 55 -205 57 -58 2 -116 0 -130 -4z m276 -257 c10 -13 13 -56 14 -150 0 -116 -2 -133 -17 -142 -19 -10 -296 -6 -313 4 -11 7 -14 244 -4 283 6 22 9 22 157 22 131 0 151 -2 163 -17z m64 -363 c0 -19 -11 -26 -23 -14 -8 8 3 34 14 34 5 0 9 -9 9 -20z m-150 -69 c0 -8 -55 -21 -92 -21 -31 0 -19 19 15 23 60 7 77 7 77 -2z"/> <path d="M11932 7658 c-15 -15 -16 -82 -2 -109 9 -15 22 -19 63 -19 29 0 58 5 65 12 19 19 16 114 -4 122 -27 10 -110 6 -122 -6z"/> <path d="M1420 7834 c-61 -41 -65 -78 -15 -129 l36 -35 213 0 213 0 36 37 c48 47 47 73 -2 113 l-40 31 -87 -12 c-85 -11 -284 -8 -314 5 -8 3 -26 -1 -40 -10z"/> <path d="M11103 7468 c-29 -33 -35 -57 -21 -94 8 -23 23 -38 49 -50 38 -17 39 -17 74 10 69 53 40 156 -45 156 -25 0 -43 -7 -57 -22z"/> <path d="M1110 7390 c-58 -12 -87 -27 -120 -62 -62 -66 -62 -55 -61 -690 0 -421 3 -589 12 -618 14 -45 67 -105 108 -122 27 -12 676 -13 759 -1 58 7 122 70 140 136 9 35 12 193 12 615 0 626 0 631 -61 690 -58 57 -98 62 -443 61 -171 -1 -327 -5 -346 -9z m638 -227 c24 -20 23 3 23 -573 -1 -173 2 -347 5 -386 7 -80 3 -85 -68 -76 -29 3 -38 9 -38 24 0 35 -40 107 -73 133 -34 25 -115 55 -150 55 -11 0 -44 -7 -74 -16 -74 -21 -138 -84 -150 -145 -10 -51 -50 -82 -80 -63 -17 10 -18 47 -20 523 l-1 511 21 15 c18 12 69 15 303 15 254 0 284 -2 302 -17z m-246 -985 c11 -11 22 -35 25 -54 5 -30 1 -40 -28 -70 -43 -44 -78 -45 -113 -3 -74 88 35 208 116 127z m-337 -117 c3 -5 20 -8 38 -5 40 6 70 -11 47 -26 -20 -13 -96 -13 -121 1 -16 8 -18 13 -8 25 13 16 35 18 44 5z m622 -6 c-2 -5 -13 -10 -24 -10 -11 -1 -27 -6 -34 -12 -23 -18 -63 -20 -89 -3 -13 8 -12 11 4 23 22 16 148 18 143 2z"/> <path d="M1218 6967 c-1 -56 -1 -131 0 -165 l4 -61 216 -3 c120 -2 221 0 226 4 5 4 9 78 9 165 l0 158 -226 3 -225 2 -4 -103z m294 -27 c21 -6 42 -19 48 -30 16 -30 12 -68 -9 -80 -28 -14 -194 -13 -209 2 -20 20 -14 61 13 91 21 22 34 27 73 27 26 0 64 -5 84 -10z"/> <path d="M1213 6623 c-43 -29 -24 -122 25 -124 9 0 102 0 205 0 184 0 189 1 207 23 26 31 25 64 -5 93 -24 25 -25 25 -217 24 -159 0 -197 -3 -215 -16z"/> <path d="M11352 7017 c-32 -7 -52 -21 -78 -53 -31 -37 -35 -49 -36 -102 -1 -46 5 -69 22 -97 29 -47 90 -85 134 -85 49 0 113 36 147 83 24 33 29 50 29 96 0 56 -13 86 -52 125 -15 14 -103 48 -118 45 -3 -1 -24 -6 -48 -12z"/> <path d="M12060 6921 c-32 -5 -77 -30 -106 -56 -6 -5 -161 -156 -345 -335 -184 -179 -382 -372 -440 -428 -102 -99 -107 -105 -117 -160 -20 -102 -20 -117 -6 -151 8 -18 14 -48 14 -66 0 -18 7 -38 15 -45 8 -7 15 -17 15 -22 0 -17 81 -117 118 -145 65 -50 110 -65 197 -65 63 -1 87 3 113 19 37 23 887 864 947 937 l40 49 0 91 c0 100 1 97 -84 211 -88 118 -152 160 -257 168 -38 3 -85 2 -104 -2z m92 -232 c24 -32 53 -63 107 -113 17 -16 31 -33 31 -37 0 -4 -14 -20 -32 -36 -76 -68 -716 -711 -732 -735 -10 -16 -24 -28 -30 -28 -6 0 -34 29 -61 64 -28 36 -65 72 -82 81 -19 9 -35 26 -39 41 -5 21 1 31 37 62 41 34 178 166 430 412 59 58 138 135 175 171 38 37 86 85 107 108 21 22 44 41 52 41 7 0 24 -14 37 -31z m146 12 c3 -8 -1 -12 -9 -9 -7 2 -15 10 -17 17 -3 8 1 12 9 9 7 -2 15 -10 17 -17z m-1073 -823 c14 -21 14 -23 0 -26 -19 -4 -45 15 -45 34 0 22 27 16 45 -8z m92 -88 c6 -16 20 -33 30 -36 10 -3 38 -16 63 -29 52 -27 75 -31 112 -21 14 4 35 6 45 4 15 -4 14 -7 -9 -18 -16 -7 -28 -18 -28 -25 0 -14 -36 -48 -67 -64 -18 -9 -29 -8 -53 4 -16 9 -30 22 -30 30 0 8 -9 19 -20 25 -13 7 -20 21 -20 39 0 20 -12 41 -40 70 -22 22 -40 43 -40 46 0 3 10 5 23 5 16 0 26 -9 34 -30z m-73 -100 c85 -85 99 -103 90 -118 -19 -30 -104 -28 -104 3 0 8 -9 19 -20 25 -11 6 -20 15 -20 21 0 5 -20 35 -45 67 -55 70 -58 97 -11 101 5 1 54 -44 110 -99z"/> <path d="M12090 6563 c-122 -105 -652 -629 -669 -662 -14 -25 -6 -26 53 -10 30 8 65 36 136 107 53 54 191 190 307 304 115 115 215 220 222 235 8 16 17 36 22 45 23 45 -6 37 -71 -19z"/> <path d="M12249 5874 c-20 -6 -49 -56 -49 -86 1 -12 10 -34 21 -48 17 -20 30 -25 69 -25 39 0 52 5 69 25 44 54 13 129 -56 135 -21 2 -45 2 -54 -1z"/> <path d="M1845 5755 c-29 -24 -30 -26 -27 -106 2 -61 -1 -86 -12 -98 -8 -9 -16 -34 -18 -56 l-3 -40 -50 -3 c-69 -4 -109 -27 -135 -79 -12 -24 -23 -43 -25 -43 -2 0 -21 11 -41 25 -20 14 -42 25 -49 25 -52 0 -175 -100 -175 -142 0 -11 -13 -37 -30 -58 -37 -46 -41 -107 -10 -135 20 -18 27 -45 12 -45 -18 0 -56 -42 -73 -80 l-18 -40 -139 0 -138 0 -27 -28 c-38 -39 -36 -79 6 -121 l32 -34 127 7 128 6 25 -38 c14 -22 37 -45 50 -52 28 -15 32 -41 10 -60 -9 -8 -15 -30 -15 -59 0 -38 5 -52 25 -71 14 -13 25 -32 25 -42 0 -53 67 -141 137 -180 42 -24 60 -23 95 7 16 14 33 25 38 25 5 0 22 -17 39 -38 30 -39 81 -62 134 -62 31 0 39 -11 42 -56 1 -19 9 -42 18 -52 13 -14 17 -38 17 -100 0 -75 2 -82 26 -101 35 -27 67 -26 100 3 27 22 28 27 25 109 -1 67 1 87 13 94 9 5 16 26 18 53 l3 45 50 6 c85 11 119 31 127 74 5 30 35 30 73 1 43 -33 63 -33 113 4 72 52 111 101 112 140 0 24 9 43 31 66 38 40 43 103 10 138 -27 29 -27 40 4 54 14 7 35 28 46 47 12 19 26 35 32 36 7 1 69 0 139 -1 141 -2 177 9 198 61 15 34 6 62 -28 95 -26 24 -30 25 -167 23 l-140 -3 -22 44 c-13 24 -36 52 -53 63 -36 23 -37 33 -8 64 29 30 27 72 -4 114 -14 19 -33 51 -42 72 -19 46 -86 112 -134 133 -39 16 -79 7 -103 -22 -19 -23 -29 -16 -50 31 -11 25 -26 45 -33 45 -8 0 -19 7 -26 15 -7 8 -34 15 -68 17 l-57 3 -3 40 c-2 22 -10 47 -18 56 -11 12 -14 37 -12 98 3 81 2 83 -27 107 -38 30 -62 30 -100 -1z m110 -358 c58 -39 97 -65 134 -89 59 -39 126 -69 163 -73 52 -7 92 -28 115 -62 33 -47 45 -88 38 -127 -6 -28 -4 -37 8 -42 9 -3 23 -28 32 -55 9 -27 32 -67 51 -90 19 -22 34 -48 34 -58 0 -9 -22 -47 -50 -83 -27 -37 -50 -73 -50 -82 0 -8 -4 -18 -10 -21 -6 -3 -10 -32 -10 -63 0 -48 -7 -69 -40 -129 -44 -79 -45 -79 -144 -86 -43 -3 -63 -9 -75 -24 -9 -11 -37 -26 -64 -33 -26 -7 -66 -29 -90 -49 -60 -52 -98 -81 -108 -81 -5 0 -31 20 -59 45 -64 57 -237 141 -303 148 -57 6 -88 31 -123 100 -19 37 -40 134 -44 198 0 4 -27 41 -60 84 l-60 77 48 53 c53 58 89 142 99 226 10 96 66 158 140 157 30 0 53 8 85 29 23 17 65 38 91 48 27 10 78 40 114 67 36 26 71 48 77 48 6 0 33 -15 61 -33z"/> <path d="M1831 5179 c-69 -13 -151 -65 -219 -137 -95 -102 -118 -183 -91 -327 19 -101 106 -212 214 -268 56 -30 66 -32 161 -31 84 0 109 4 150 24 54 26 177 146 199 195 45 103 45 218 1 300 -41 75 -117 165 -156 185 -125 63 -176 75 -259 59z m180 -137 c76 -39 121 -96 154 -193 18 -55 18 -58 -1 -120 -37 -123 -171 -219 -285 -206 -78 9 -121 30 -179 87 -99 100 -112 197 -42 325 30 56 96 104 172 126 39 12 142 1 181 -19z"/> <path d="M1811 4881 c-58 -56 -48 -131 22 -185 43 -33 79 -33 123 1 81 61 84 147 7 193 -52 31 -115 27 -152 -9z"/> <path d="M1216 5629 c-14 -11 -26 -29 -26 -40 0 -28 -36 -95 -55 -103 -9 -3 -29 -6 -44 -6 -62 0 -83 -79 -34 -125 22 -19 38 -25 74 -25 29 0 51 6 59 15 7 8 18 15 24 15 24 0 76 60 101 115 38 87 32 135 -22 163 -31 17 -47 15 -77 -9z"/> <path d="M2508 5514 c-82 -44 -15 -183 76 -160 13 3 36 22 51 41 25 33 26 39 14 67 -14 33 -62 68 -94 68 -11 -1 -32 -7 -47 -16z"/> <path d="M11769 5383 c-117 -113 -145 -153 -130 -182 17 -30 61 -61 89 -61 19 0 51 26 128 106 57 58 106 114 109 125 16 49 -28 109 -80 109 -9 0 -61 -44 -116 -97z"/> <path d="M12340 5453 c-8 -3 -171 -162 -362 -352 -229 -228 -349 -355 -353 -374 -13 -52 3 -95 46 -122 39 -25 40 -25 73 -8 36 19 644 607 698 676 65 81 41 173 -47 182 -22 3 -47 2 -55 -2z"/> <path d="M10759 5423 c-31 -35 -59 -96 -59 -129 0 -13 -7 -41 -15 -61 -8 -19 -15 -48 -15 -63 0 -15 -7 -44 -15 -63 -8 -20 -15 -50 -15 -67 0 -25 -14 -45 -82 -111 -46 -44 -92 -84 -103 -89 -11 -4 -60 -11 -108 -15 -83 -6 -90 -9 -121 -41 -25 -25 -35 -47 -39 -77 -5 -45 -28 -165 -46 -237 -6 -25 -15 -65 -21 -90 -36 -147 -35 -177 7 -210 22 -17 35 -19 77 -14 28 4 63 13 78 20 15 8 42 14 60 14 18 1 44 7 58 15 14 8 42 14 62 15 21 0 52 6 70 14 18 8 58 19 88 25 126 26 136 34 145 118 15 144 14 141 62 186 85 80 89 81 262 84 115 2 166 7 198 19 24 9 43 21 43 25 0 5 6 9 13 9 19 0 70 59 90 103 23 51 21 81 -7 125 -22 35 -238 251 -438 440 l-88 82 -58 0 c-51 0 -61 -3 -83 -27z m124 -141 c11 -16 -6 -62 -25 -68 -22 -7 -39 10 -32 33 2 7 6 20 9 28 5 15 40 21 48 7z m96 -196 c96 -112 175 -185 214 -199 18 -6 27 -15 25 -26 -3 -14 -19 -16 -108 -16 -114 0 -140 11 -140 58 0 15 -21 43 -62 81 -60 57 -61 59 -59 110 4 116 25 115 130 -8z m-189 -82 c0 -8 -4 -14 -9 -14 -11 0 -22 26 -14 34 9 9 23 -3 23 -20z m458 -93 c2 -15 9 -21 18 -17 10 4 14 -3 14 -28 0 -22 -6 -36 -16 -40 -28 -11 -34 -6 -27 24 3 17 1 30 -5 30 -11 0 -22 46 -14 55 11 11 27 -2 30 -24z m-462 -49 c6 -4 13 -18 17 -31 5 -20 -6 -36 -68 -98 -83 -82 -114 -93 -137 -45 -13 26 -12 29 67 104 77 74 97 86 121 70z m-339 -234 c11 -13 28 -37 36 -54 9 -17 32 -43 51 -58 71 -54 68 -96 -7 -96 -40 0 -56 -3 -152 -34 -27 -9 -53 -16 -57 -16 -11 0 -10 44 1 56 6 5 14 34 20 64 16 89 27 136 35 148 12 19 51 14 73 -10z m-159 -286 c2 -7 -3 -12 -12 -12 -9 0 -16 7 -16 16 0 17 22 14 28 -4z"/> <path d="M12207 4698 c-37 -50 -39 -56 -26 -80 37 -73 100 -90 153 -42 25 24 28 32 23 70 -6 54 -37 83 -89 84 -30 0 -41 -6 -61 -32z"/> <path d="M3320 4322 c-77 -37 -144 -95 -223 -192 -14 -17 -34 -50 -43 -70 -3 -8 -12 -28 -19 -45 -37 -85 -45 -133 -45 -251 0 -85 4 -132 15 -157 25 -60 20 -99 -16 -124 -33 -23 -184 -169 -313 -303 -82 -85 -90 -89 -141 -54 -11 8 -27 14 -36 14 -9 0 -30 7 -45 15 -16 8 -39 15 -51 15 -12 0 -48 7 -80 15 -74 20 -319 19 -377 -1 -21 -8 -50 -14 -64 -14 -35 0 -112 -30 -134 -52 -22 -22 -23 -38 -3 -64 20 -26 19 -48 -5 -94 -25 -48 -78 -90 -115 -90 -17 0 -44 13 -69 33 -81 67 -75 68 -168 -25 -107 -107 -132 -136 -158 -184 -12 -21 -30 -52 -41 -69 -20 -31 -23 -38 -43 -95 -33 -88 -39 -108 -47 -150 -5 -25 -13 -65 -19 -90 -12 -59 -12 -193 1 -250 6 -25 14 -67 18 -95 4 -27 12 -60 19 -72 7 -12 12 -29 12 -37 0 -37 92 -204 124 -228 5 -3 42 -4 82 -1 67 5 74 4 107 -21 66 -50 97 -153 61 -204 -23 -33 -9 -59 49 -96 100 -62 211 -109 317 -132 36 -8 71 -16 77 -19 12 -4 100 56 114 78 4 5 40 12 80 15 l74 4 59 -46 c33 -25 64 -46 70 -46 28 1 130 30 139 39 6 6 20 11 30 11 17 0 48 14 97 41 8 5 26 14 40 20 39 16 171 117 213 163 135 145 198 272 237 478 5 25 22 65 39 89 30 41 31 45 31 153 0 110 0 112 -31 145 -28 31 -36 54 -58 166 -4 22 -22 70 -39 107 -36 76 -34 88 17 132 19 17 118 112 219 211 101 99 191 182 199 183 9 2 32 -3 52 -11 62 -26 157 -40 228 -33 98 9 165 21 188 33 11 6 42 21 68 34 86 42 94 48 145 103 92 101 124 199 101 308 l-13 63 -221 220 c-310 310 -504 494 -547 521 -45 28 -106 30 -158 6z m161 -178 c27 -27 49 -52 49 -56 0 -4 -28 -5 -63 -1 -80 7 -111 -8 -189 -88 -55 -57 -78 -95 -93 -149 -4 -14 -14 -35 -22 -48 -22 -35 -43 -12 -43 47 1 98 105 277 183 314 20 10 39 22 43 28 4 7 23 9 47 6 30 -4 51 -17 88 -53z m78 -249 c50 -53 91 -99 91 -104 0 -5 -15 -20 -33 -34 -55 -42 -297 -288 -297 -302 0 -7 18 -29 40 -49 39 -35 72 -44 98 -27 23 14 264 254 279 278 14 21 63 33 63 15 0 -4 43 -51 95 -105 52 -53 95 -104 95 -113 0 -8 -14 -28 -32 -44 -39 -36 -99 -47 -176 -31 l-57 11 -119 -120 c-88 -88 -123 -117 -134 -111 -33 18 -362 355 -362 370 0 9 43 58 95 109 88 86 95 95 95 132 0 21 5 62 11 90 9 40 19 56 52 84 81 65 88 63 196 -49z m243 -59 c40 -33 49 -56 21 -56 -25 1 -70 40 -82 72 -9 24 -8 26 7 21 9 -4 34 -20 54 -37z m319 -347 c9 -33 -1 -108 -19 -144 -47 -93 -222 -185 -351 -185 -26 0 -31 4 -31 24 0 33 14 41 108 60 104 20 125 31 188 98 74 78 88 102 81 144 -7 41 13 44 24 3z m-1055 -225 c13 -14 24 -29 24 -35 0 -5 21 -29 46 -53 49 -48 53 -75 13 -96 -10 -6 -94 -83 -184 -172 -91 -89 -174 -167 -184 -174 -15 -11 -24 -10 -57 7 -79 41 -99 56 -118 88 l-19 32 144 137 c79 75 177 172 219 214 41 42 79 77 84 78 5 0 19 -11 32 -26z m223 -100 c29 -37 26 -55 -14 -94 -50 -48 -61 -32 -39 54 10 36 21 66 25 66 4 0 17 -12 28 -26z m-950 -111 c57 -9 124 -24 150 -34 46 -17 46 -18 43 -61 -1 -24 -10 -60 -19 -81 -15 -34 -15 -39 0 -55 25 -27 40 -73 27 -86 -7 -7 -17 -2 -33 18 -13 15 -38 34 -57 41 -115 43 -156 55 -252 70 -113 17 -231 13 -278 -10 -25 -13 -120 -30 -120 -22 0 2 22 50 50 106 33 66 58 105 72 111 35 15 175 28 248 24 36 -3 112 -12 169 -21z m-741 -282 c34 -6 67 -13 73 -16 6 -4 -6 -21 -30 -41 -92 -79 -184 -218 -227 -344 -27 -79 -29 -96 -28 -225 0 -147 17 -223 65 -301 10 -17 19 -39 19 -48 0 -9 5 -16 10 -16 10 0 50 -81 50 -101 0 -15 -20 -10 -47 11 -14 11 -40 20 -57 20 -50 0 -132 54 -157 102 -56 110 -82 318 -61 488 19 149 101 323 208 436 44 47 58 54 94 49 14 -3 53 -9 88 -14z m697 -39 c81 -30 107 -44 165 -88 117 -89 200 -209 240 -344 21 -72 24 -240 6 -285 -9 -21 -16 -46 -16 -55 0 -16 -15 -52 -42 -100 -4 -8 -11 -22 -15 -30 -25 -58 -137 -169 -213 -213 -73 -42 -110 -55 -205 -73 -67 -13 -96 -14 -185 -4 -57 7 -111 16 -120 21 -8 4 -40 20 -70 33 -148 68 -282 229 -328 395 -30 108 -19 292 23 386 8 17 16 37 19 45 8 19 24 46 61 95 90 122 233 213 370 235 79 13 253 3 310 -18z m639 -19 c-4 -16 -11 -36 -15 -45 -5 -9 -9 -29 -9 -45 0 -26 39 -164 81 -288 58 -170 62 -236 20 -356 -16 -46 -36 -111 -46 -144 -16 -59 -21 -71 -69 -175 -31 -66 -159 -207 -233 -256 -32 -21 -96 -57 -143 -80 -104 -51 -151 -52 -252 -5 -86 40 -159 42 -210 8 -74 -51 -177 -56 -285 -14 -81 32 -119 63 -128 104 -15 67 -39 140 -57 170 -20 33 -10 54 13 27 34 -41 255 -164 294 -164 9 0 25 -5 36 -11 11 -5 43 -12 72 -14 172 -12 197 -13 202 -4 4 5 22 9 40 9 36 0 60 9 194 73 70 33 100 55 175 131 50 51 99 110 110 131 10 22 26 58 37 80 53 115 62 156 63 290 1 117 -2 139 -28 220 -16 50 -35 97 -42 106 -8 8 -14 19 -14 22 0 4 -20 41 -45 81 -25 41 -45 79 -45 85 0 7 26 11 67 11 54 0 79 6 122 27 29 15 56 33 58 40 3 7 14 13 24 13 16 0 18 -5 13 -27z"/> <path d="M2983 3098 c-124 -115 -283 -276 -283 -288 0 -48 156 76 323 258 51 57 73 102 48 102 -6 0 -45 -33 -88 -72z"/> <path d="M2020 2636 c-106 -18 -179 -55 -249 -125 -88 -88 -109 -122 -142 -223 -32 -102 -22 -259 22 -338 4 -8 17 -34 29 -56 17 -34 106 -128 161 -169 36 -27 101 -53 176 -70 69 -15 89 -16 135 -6 29 7 71 16 93 20 114 24 250 140 306 261 52 113 67 268 33 347 -60 140 -93 189 -178 261 -101 86 -244 122 -386 98z m158 -175 c57 -19 137 -68 164 -98 8 -10 30 -44 47 -75 28 -51 31 -66 31 -141 0 -74 -4 -91 -30 -140 -60 -112 -169 -187 -274 -187 -91 -1 -163 28 -226 90 -81 79 -105 134 -103 240 0 58 6 95 17 115 9 17 16 35 16 40 0 16 76 93 118 118 20 13 57 29 82 36 25 7 50 15 55 16 23 7 53 3 103 -14z"/> <path d="M2035 2336 c-134 -49 -177 -223 -81 -319 42 -42 108 -77 145 -77 63 0 140 51 186 123 27 42 25 134 -4 180 -52 85 -160 125 -246 93z m106 -146 c40 -22 12 -100 -35 -100 -35 1 -56 24 -56 62 0 19 3 38 7 41 10 11 62 8 84 -3z"/> <path d="M2607 4246 c-53 -26 -97 -63 -97 -82 0 -6 -7 -17 -15 -24 -10 -8 -15 -30 -15 -61 0 -40 5 -53 27 -74 15 -14 37 -25 49 -25 26 0 65 41 79 83 8 25 21 36 60 52 65 26 85 47 85 90 0 28 -5 37 -30 50 -41 21 -87 18 -143 -9z"/> <path d="M1080 4234 c-37 -25 -50 -45 -50 -74 0 -31 28 -60 58 -60 50 0 102 -50 102 -97 0 -29 42 -63 76 -63 44 0 74 36 74 88 0 76 -65 166 -147 202 -55 24 -81 25 -113 4z"/> <path d="M11015 4225 c-22 -13 -60 -35 -85 -48 -25 -14 -61 -34 -80 -46 -19 -11 -48 -27 -65 -35 -16 -8 -52 -29 -80 -45 -27 -16 -72 -41 -100 -56 -27 -14 -63 -34 -80 -45 -16 -10 -48 -28 -70 -40 -193 -105 -205 -115 -205 -154 0 -45 37 -79 143 -131 51 -26 100 -50 110 -56 9 -5 25 -13 35 -18 9 -6 80 -42 157 -81 77 -39 147 -75 155 -80 8 -4 57 -29 108 -54 l93 -46 629 0 630 0 61 32 c61 32 79 54 106 128 9 25 13 117 13 332 l0 297 -25 47 c-29 54 -44 70 -98 102 l-38 22 -637 0 -637 -1 -40 -24z m1258 -109 c18 -7 43 -26 57 -40 25 -27 25 -31 30 -239 7 -281 2 -338 -30 -373 -52 -56 -43 -55 -656 -54 -489 0 -571 3 -612 16 -97 33 -122 57 -107 104 4 11 2 20 -4 20 -5 0 -30 14 -54 30 -25 17 -48 30 -53 30 -4 0 -40 16 -80 36 -72 37 -92 61 -78 97 3 8 1 18 -5 22 -6 3 -11 19 -11 35 0 21 6 31 28 39 32 12 175 90 182 100 3 3 20 16 38 29 52 37 81 14 46 -36 -16 -23 -15 -59 1 -153 5 -27 2 -44 -10 -63 -22 -33 -16 -94 13 -131 l21 -26 11 22 c7 11 20 62 30 112 17 84 34 117 61 117 17 0 49 -70 49 -108 0 -43 18 -67 26 -35 10 38 54 46 182 33 124 -13 652 -10 685 5 35 15 14 23 -80 31 -100 7 -661 -2 -686 -12 -9 -3 -24 12 -42 43 -16 26 -31 50 -34 53 -4 3 -14 18 -24 33 -17 27 -17 29 2 60 16 26 19 43 14 87 l-5 55 465 0 c458 0 466 0 471 -20 3 -11 1 -38 -2 -60 -9 -46 3 -369 14 -386 10 -18 24 11 24 52 0 20 7 56 15 80 14 38 22 91 42 266 4 33 0 48 -16 69 -48 61 -1 95 82 60z m-1173 -16 c12 -8 12 -14 -3 -45 -9 -20 -17 -47 -17 -60 0 -28 -3 -29 -28 -16 -9 5 -24 12 -34 15 -21 6 -34 64 -19 79 10 10 64 34 81 36 3 0 12 -3 20 -9z m-531 -316 c22 -29 29 -98 10 -109 -5 -4 -18 0 -27 8 -9 8 -27 18 -40 22 -12 3 -30 18 -39 32 -16 25 -16 26 11 49 35 31 60 30 85 -2z"/> <path d="M11248 3943 c-41 -6 -34 -21 20 -46 45 -21 61 -22 367 -24 l320 -2 57 26 c32 14 58 29 58 33 0 4 -14 10 -31 14 -34 7 -746 6 -791 -1z"/> <path d="M10790 3778 c-58 -29 -57 -28 -40 -38 25 -16 79 -11 131 11 55 24 63 39 22 39 -16 0 -37 3 -48 5 -11 3 -40 -5 -65 -17z"/> <path d="M11141 3603 c0 -5 4 -17 9 -28 8 -18 9 -17 9 8 1 15 -3 27 -9 27 -5 0 -10 -3 -9 -7z"/> <path d="M11201 3541 c-10 -6 -10 -10 -1 -16 31 -19 700 -18 707 1 7 20 -675 35 -706 15z"/> <path d="M11946 3531 c16 -15 72 -23 79 -11 5 8 10 8 20 0 16 -13 39 -4 30 11 -4 5 -36 9 -73 9 -39 0 -62 -4 -56 -9z"/> <path d="M9347 3933 c-14 -13 -6 -33 42 -105 27 -40 59 -91 71 -113 12 -22 31 -56 42 -75 11 -19 31 -55 45 -80 13 -25 33 -58 44 -75 10 -16 23 -39 29 -50 6 -11 19 -33 30 -50 11 -16 23 -37 27 -45 5 -9 23 -41 41 -72 30 -52 36 -57 75 -62 102 -13 202 -34 245 -52 l32 -14 0 -75 c0 -69 3 -81 33 -126 34 -53 93 -99 127 -99 11 0 38 -21 62 -47 24 -26 103 -107 176 -181 72 -73 132 -135 132 -138 0 -4 -11 -27 -24 -53 -52 -100 -61 -153 -61 -346 0 -149 4 -190 19 -235 29 -85 47 -134 57 -150 5 -8 14 -26 20 -40 6 -14 21 -39 35 -57 13 -17 24 -35 24 -40 0 -26 172 -196 250 -247 84 -56 215 -116 251 -116 11 0 34 -8 52 -17 46 -24 354 -24 411 0 21 10 48 17 60 17 12 0 31 7 42 15 10 8 26 15 35 15 18 0 126 55 150 76 8 8 19 14 23 14 42 0 286 260 286 305 0 7 7 18 15 25 8 7 15 20 15 29 0 9 5 22 12 29 13 13 36 72 48 122 4 19 13 48 19 63 6 17 11 94 11 192 0 98 -5 175 -11 192 -6 15 -15 44 -19 63 -15 65 -53 157 -91 215 -10 17 -22 37 -26 45 -14 32 -93 127 -144 176 -59 55 -173 134 -193 134 -8 0 -19 7 -26 15 -7 8 -18 15 -26 15 -7 0 -28 6 -46 14 -71 29 -135 46 -179 46 -25 0 -59 5 -75 10 -35 12 -299 -10 -354 -30 -100 -36 -225 -98 -247 -122 -9 -10 -19 -18 -22 -18 -3 0 -105 97 -226 216 -121 119 -238 229 -259 245 -48 35 -108 39 -166 9 -22 -11 -46 -20 -54 -20 -22 0 -56 72 -56 120 0 22 -7 57 -15 77 -8 19 -15 51 -15 70 0 35 -29 72 -57 73 -7 0 -41 14 -75 31 -35 18 -76 37 -93 45 -16 7 -61 27 -100 44 -38 18 -83 38 -100 45 -16 8 -59 27 -95 44 -36 17 -70 31 -76 31 -7 0 -17 7 -24 15 -7 8 -18 15 -26 15 -7 0 -30 11 -50 25 -39 27 -47 29 -57 18z m445 -333 c144 -63 156 -71 179 -109 23 -40 49 -127 49 -168 0 -26 0 -26 -62 -19 -103 12 -150 45 -208 145 -32 57 -66 107 -78 116 -16 13 -5 75 14 75 8 0 56 -18 106 -40z m561 -431 c12 -6 41 -30 65 -52 58 -57 57 -80 -12 -146 -30 -28 -61 -51 -68 -51 -21 0 -106 58 -122 82 -16 24 -46 130 -46 160 0 16 10 18 81 18 44 0 90 -5 102 -11z m335 -398 c94 -93 172 -177 172 -185 0 -53 -93 -12 -195 84 -132 127 -180 170 -187 170 -4 0 -15 11 -23 24 -23 34 -5 76 32 76 23 0 62 -33 201 -169z m852 9 c30 -4 71 -13 90 -20 66 -25 105 -41 120 -50 8 -6 24 -14 35 -19 21 -10 117 -89 150 -124 155 -167 218 -375 184 -608 -10 -67 -15 -82 -33 -89 -26 -10 -46 5 -46 34 0 12 -5 27 -11 33 -8 8 -11 54 -10 136 1 90 -2 137 -14 173 -22 66 -58 144 -67 144 -5 0 -8 7 -8 14 0 22 -127 147 -190 188 -50 33 -76 44 -180 76 -19 6 -66 14 -105 18 -115 10 -318 -48 -371 -107 -9 -10 -28 -19 -41 -19 -12 0 -23 -4 -23 -9 0 -13 46 -41 80 -48 38 -7 38 -19 0 -41 -16 -9 -30 -23 -30 -31 0 -8 -11 -28 -24 -46 -93 -122 -79 -305 24 -305 26 0 26 14 -1 41 -30 30 -22 97 21 169 45 74 103 121 219 174 44 21 188 22 228 2 15 -8 45 -22 66 -32 68 -34 169 -142 182 -197 4 -15 11 -30 16 -33 5 -3 9 -50 9 -104 0 -86 -3 -105 -25 -147 -29 -54 -58 -83 -86 -83 -10 0 -19 -4 -19 -8 0 -14 23 -32 42 -32 27 0 92 44 119 80 13 17 39 48 57 68 l33 36 20 -21 c20 -19 20 -22 4 -84 -9 -35 -25 -78 -36 -96 -26 -41 -127 -133 -170 -155 -116 -57 -189 -76 -327 -84 -91 -6 -115 -4 -134 8 -13 9 -39 19 -57 23 -35 7 -127 59 -146 81 -5 6 -30 26 -54 43 -45 32 -85 38 -141 22 -23 -6 -21 -8 21 -19 25 -6 65 -27 90 -45 24 -19 58 -41 76 -50 17 -9 37 -22 45 -29 7 -7 38 -25 69 -40 48 -23 74 -28 175 -33 166 -9 297 17 374 73 14 10 36 22 50 25 30 8 115 88 160 150 55 77 119 91 105 25 -10 -50 -37 -118 -46 -118 -5 0 -9 -5 -9 -11 0 -14 -67 -96 -104 -129 -51 -43 -190 -130 -209 -130 -10 0 -28 -5 -39 -11 -79 -42 -349 -42 -443 1 -123 55 -155 72 -185 96 -83 69 -141 135 -175 199 -21 39 -41 74 -46 80 -5 5 -9 15 -9 23 0 8 -6 28 -14 45 -44 104 -56 233 -31 346 29 136 57 206 107 272 15 20 28 41 28 46 0 14 102 113 116 113 7 0 17 6 21 13 14 23 87 73 133 91 25 10 56 23 70 28 60 25 216 33 320 18z m-810 -1034 c0 -7 18 -23 41 -35 32 -18 40 -28 35 -44 -5 -22 32 -59 172 -172 107 -86 107 -86 154 -97 23 -5 50 -15 58 -22 26 -23 142 -46 231 -46 83 0 198 18 235 38 10 5 38 13 62 17 26 4 57 19 77 36 18 16 37 29 43 29 6 0 20 12 32 27 12 15 35 33 51 40 19 8 35 26 45 48 8 19 18 35 23 35 5 0 12 8 15 18 16 41 32 61 50 64 12 2 24 16 30 36 17 48 66 73 66 33 0 -24 -28 -91 -38 -91 -4 0 -23 -25 -41 -55 -19 -31 -46 -66 -60 -78 -14 -12 -33 -33 -42 -47 -22 -32 -236 -141 -334 -169 -49 -14 -266 -32 -280 -23 -5 4 -23 7 -40 8 -45 3 -155 30 -167 42 -6 6 -17 8 -25 5 -8 -3 -31 8 -51 24 -20 16 -62 41 -92 55 -44 19 -70 42 -123 105 -37 45 -67 88 -67 96 0 9 -7 20 -15 24 -14 8 -65 99 -65 116 0 5 5 5 10 2 6 -3 10 -12 10 -19z"/> <path d="M11336 2341 c-54 -18 -156 -108 -156 -139 0 -9 -7 -26 -15 -36 -8 -11 -15 -26 -15 -35 0 -8 -7 -23 -17 -33 -15 -17 -15 -19 0 -36 10 -10 17 -26 17 -35 0 -36 63 -135 104 -166 106 -75 210 -79 329 -12 71 40 77 45 77 74 0 15 8 42 17 60 11 22 16 57 17 109 0 74 -2 80 -39 133 -82 120 -191 159 -319 116z m149 -208 c15 -17 25 -40 25 -58 0 -40 -42 -85 -79 -85 -45 0 -81 38 -81 85 0 76 84 112 135 58z"/> <path d="M2432 3690 c-46 -43 -37 -110 19 -142 42 -24 53 -23 88 13 43 43 43 96 1 127 -37 27 -80 28 -108 2z"/> <path d="M1160 3660 c-8 -5 -26 -10 -40 -10 -35 0 -123 -79 -149 -133 -29 -59 -29 -177 -1 -232 84 -164 286 -196 423 -67 20 20 37 41 37 48 0 6 7 17 16 25 12 10 15 29 13 90 -2 43 0 81 3 84 3 4 146 6 316 5 l310 -1 26 31 c29 35 30 40 15 73 -22 48 -28 48 -410 47 -295 0 -363 2 -381 14 -23 14 -113 36 -146 36 -9 0 -24 -5 -32 -10z m75 -160 c72 -27 98 -110 50 -162 -48 -52 -113 -46 -160 16 -32 42 -29 66 13 112 40 44 56 50 97 34z"/> <path d="M8983 3510 c-21 -9 -23 -16 -23 -94 0 -47 -3 -87 -7 -89 -5 -3 -34 -1 -65 5 -77 13 -112 -2 -116 -54 -2 -27 2 -41 19 -57 19 -18 30 -20 78 -14 31 3 63 7 71 7 12 1 16 -15 20 -69 5 -63 8 -71 32 -85 25 -13 30 -13 55 2 26 16 28 22 28 77 0 33 5 64 10 70 6 6 32 7 68 2 47 -6 63 -4 86 10 38 23 47 53 27 84 -21 32 -58 41 -120 28 -70 -15 -76 -8 -69 82 l6 73 -31 16 c-35 18 -38 18 -69 6z"/> <path d="M4510 3427 c-26 -20 -50 -60 -50 -82 0 -30 60 -85 92 -85 31 0 88 62 88 95 0 12 -15 35 -33 53 -34 33 -70 41 -97 19z"/> <path d="M6723 3055 c-12 -9 -27 -34 -33 -55 -10 -38 -31 -52 -45 -30 -4 6 -24 19 -46 31 -37 19 -41 19 -68 3 -37 -22 -56 -73 -40 -107 11 -24 62 -57 88 -57 15 0 14 -26 -1 -34 -40 -20 -74 -45 -91 -68 -19 -25 -19 -25 7 -67 24 -37 30 -41 67 -41 26 0 50 7 66 20 38 30 53 26 53 -14 0 -40 41 -96 71 -96 31 0 65 42 73 88 7 47 23 53 51 22 26 -29 91 -27 115 3 45 54 33 108 -30 133 -57 23 -58 40 -4 66 75 35 85 114 19 145 -31 15 -36 15 -68 0 -19 -9 -40 -23 -46 -31 -21 -25 -41 -7 -41 34 0 21 -6 42 -13 48 -24 20 -61 23 -84 7z m77 -185 c23 -23 27 -85 6 -113 -7 -9 -28 -22 -46 -28 -30 -11 -34 -10 -51 12 -36 46 -33 116 5 141 21 14 66 8 86 -12z"/> <path d="M5252 2872 l-743 -2 -37 -24 c-41 -26 -59 -45 -85 -93 -16 -29 -17 -85 -17 -733 0 -650 1 -704 18 -733 24 -43 73 -97 87 -97 7 0 26 -7 41 -15 25 -13 132 -15 770 -15 712 0 743 1 785 19 49 22 88 60 113 108 14 29 16 107 16 728 0 645 -1 699 -17 728 -44 78 -89 115 -153 126 -19 3 -369 5 -778 3z m722 -207 l27 -25 -1 -578 c-1 -607 -4 -638 -46 -669 -15 -11 -20 -10 -33 1 -27 24 -100 27 -641 28 -654 1 -600 3 -600 -22 0 -13 -7 -20 -20 -20 -18 0 -33 11 -68 55 -11 13 -14 128 -12 612 l1 596 22 23 22 24 661 0 661 0 27 -25z"/> <path d="M4693 2551 c-4 -3 -8 -211 -8 -461 0 -337 -3 -464 -12 -489 -7 -18 -10 -37 -7 -42 6 -10 1237 -13 1247 -3 3 4 1 16 -6 28 -9 15 -12 142 -14 486 -1 256 -2 471 -2 478 -1 10 -122 12 -595 11 -327 -1 -598 -5 -603 -8z m448 -111 c25 -14 24 -20 -6 -52 -34 -36 -45 -69 -45 -129 0 -41 -4 -53 -27 -72 -15 -12 -61 -55 -102 -94 -41 -40 -79 -73 -83 -73 -4 0 -8 -7 -8 -15 0 -20 -82 -57 -92 -42 -4 7 -8 107 -8 223 0 274 -12 260 223 263 72 0 137 -4 148 -9z m618 -5 c50 -25 53 -44 49 -398 l-3 -326 -29 -30 c-29 -31 -30 -31 -120 -27 -50 3 -203 5 -339 5 -204 1 -249 4 -253 15 -6 16 223 249 268 272 21 11 45 13 81 9 42 -5 58 -2 85 14 17 12 32 27 32 35 0 8 14 26 30 39 17 14 30 31 30 37 0 6 7 22 16 35 10 16 18 56 21 108 5 70 2 91 -15 130 -12 27 -28 47 -36 47 -22 0 -20 27 2 39 26 16 149 13 181 -4z m-248 -195 c-4 -136 -20 -183 -64 -188 -39 -5 -57 14 -57 59 0 27 -4 39 -14 39 -8 0 -16 -3 -18 -7 -1 -5 -68 -69 -148 -143 -80 -74 -177 -167 -217 -207 -76 -78 -99 -87 -133 -53 -42 42 -29 68 93 186 156 152 284 267 313 282 13 7 24 21 24 32 0 16 -7 20 -30 20 -17 0 -39 9 -50 20 -22 22 -23 25 -14 58 6 22 8 22 163 20 l156 -3 -4 -115z"/> <path d="M7495 2842 c-22 -15 -52 -45 -67 -67 l-27 -40 -1 -607 0 -606 44 -45 44 -44 480 -6 c264 -4 685 -4 936 0 l457 6 39 40 40 39 2 587 c1 322 0 601 -1 620 -3 44 -51 105 -102 131 -37 19 -63 20 -921 20 l-883 -1 -40 -27z m1740 -238 l0 -59 -765 -2 -765 -2 0 -408 0 -408 230 -1 c127 -1 241 -6 254 -11 22 -9 35 2 155 126 72 74 181 185 241 247 147 149 255 265 255 276 0 4 10 8 23 8 15 0 67 -44 169 -145 81 -79 159 -152 173 -161 l25 -16 0 -207 0 -206 -367 3 c-203 1 -566 -1 -808 -6 -242 -4 -444 -5 -449 -1 -4 4 -7 105 -5 226 1 120 2 234 2 253 -4 140 -1 514 4 526 3 9 14 19 24 22 10 4 375 6 811 6 l793 -2 0 -58z m83 -287 c2 -149 1 -168 -14 -174 -13 -5 -48 26 -135 114 -66 67 -119 125 -119 130 1 24 23 34 93 42 59 7 83 15 109 35 60 47 63 41 66 -147z m-1312 103 c33 0 44 -4 44 -16 0 -8 -37 -57 -83 -107 -46 -51 -94 -104 -107 -119 -13 -16 -27 -28 -30 -28 -4 0 -7 39 -9 88 -1 48 -4 95 -7 105 -14 44 56 91 120 81 16 -2 48 -4 72 -4z m688 -10 c12 -12 -8 -40 -83 -120 -33 -36 -61 -73 -61 -82 0 -10 -6 -18 -13 -18 -8 0 -53 -42 -100 -92 -48 -51 -93 -98 -100 -105 -6 -7 -25 -26 -42 -43 -110 -114 -150 -149 -177 -154 -17 -3 -88 -6 -158 -6 -147 0 -152 3 -171 90 -15 70 -5 197 18 222 23 25 30 23 42 -15 12 -37 104 -131 137 -141 61 -18 144 30 261 153 52 54 65 74 74 118 11 47 10 57 -7 90 -10 21 -32 52 -48 70 l-29 32 24 5 c52 12 81 13 249 8 96 -2 179 -8 184 -12z m-472 -110 c16 -16 28 -36 26 -44 -2 -8 -54 -62 -116 -120 l-113 -106 -30 15 c-16 9 -35 27 -41 41 -11 24 -6 31 98 135 60 59 117 109 127 109 10 0 32 -13 49 -30z"/> <path d="M8337 1693 c-26 -2 -45 -8 -42 -14 8 -11 865 -12 883 0 9 5 -3 10 -34 15 -48 6 -721 5 -807 -1z"/> <path d="M3670 2780 c-123 -45 -160 -68 -167 -103 -3 -16 -18 -36 -32 -45 -62 -40 -91 -86 -91 -147 0 -26 5 -55 10 -65 7 -13 7 -21 0 -25 -5 -3 -10 -33 -10 -65 0 -71 21 -111 71 -140 39 -21 49 -37 49 -75 0 -28 15 -41 99 -82 63 -31 71 -33 179 -33 112 0 124 3 192 41 8 5 24 13 36 18 27 12 54 54 54 85 0 18 9 30 28 40 47 25 76 73 75 130 0 28 0 71 0 96 0 150 -4 165 -70 210 -17 12 -38 38 -46 59 -11 26 -27 42 -54 55 -21 11 -50 25 -65 33 -34 17 -222 27 -258 13z m75 -190 c9 -14 41 -13 65 2 26 17 42 7 99 -66 46 -58 46 -59 46 -137 l-1 -78 -51 -50 -50 -51 -77 -4 -77 -4 -54 55 c-39 40 -54 64 -59 93 -13 81 14 151 81 209 46 41 67 49 78 31z"/> <path d="M3738 2470 c-9 -6 -26 -26 -38 -45 -21 -34 -21 -37 -5 -61 9 -13 31 -32 50 -41 34 -16 35 -16 72 14 52 41 56 80 13 117 -33 27 -63 32 -92 16z"/> <path d="M9880 2732 c-88 -42 -113 -81 -113 -174 0 -49 5 -73 17 -86 9 -10 16 -23 16 -29 0 -6 17 -22 38 -35 69 -43 191 -27 240 32 21 26 52 101 52 127 0 55 -63 134 -129 164 -52 23 -74 23 -121 1z m80 -166 c0 -8 -5 -18 -11 -22 -14 -8 -33 11 -25 25 10 16 36 13 36 -3z"/> <path d="M7050 2315 c-14 -8 -31 -14 -39 -15 -19 0 -133 -93 -179 -146 -22 -24 -43 -44 -47 -44 -5 0 -31 24 -59 53 -57 58 -112 107 -123 107 -3 0 -14 6 -22 14 -9 8 -37 20 -62 27 -37 10 -53 10 -78 0 -26 -11 -31 -19 -31 -48 0 -60 124 -200 247 -280 71 -46 94 -93 58 -123 -13 -11 -20 -9 -43 12 -68 64 -167 88 -196 46 -21 -29 -11 -61 35 -123 34 -46 130 -124 187 -154 19 -10 22 -20 22 -67 0 -41 -4 -56 -16 -61 -10 -3 -22 0 -28 8 -22 29 -96 59 -146 59 -56 0 -77 -22 -65 -68 7 -27 53 -91 95 -131 27 -25 119 -71 144 -71 13 0 16 -12 16 -56 0 -80 10 -94 70 -94 60 0 70 14 70 95 0 44 4 57 18 61 26 9 65 25 82 35 8 5 22 12 30 15 32 14 110 107 116 139 12 66 -17 92 -88 78 -36 -7 -104 -38 -130 -61 -26 -22 -38 -6 -38 53 0 53 0 53 46 80 129 76 227 196 207 255 -17 52 -132 30 -206 -38 -35 -33 -49 -20 -45 39 3 38 7 46 33 58 17 8 32 17 35 21 3 3 26 21 51 38 51 35 159 148 159 167 0 7 7 18 15 25 24 20 18 66 -11 89 -31 24 -50 26 -84 6z m-222 -514 c27 -24 27 -29 0 -58 -38 -40 -88 -25 -88 27 0 50 45 66 88 31z m-4 -356 c16 -42 -40 -71 -74 -40 -19 17 -19 19 -4 37 21 22 70 24 78 3z"/> <path d="M10142 2160 c-40 -38 -39 -92 6 -240 48 -160 101 -207 166 -146 33 30 33 51 0 112 -30 55 -39 88 -54 187 -8 51 -16 74 -33 88 -29 24 -58 24 -85 -1z"/> <path d="M9838 2103 c-34 -39 -38 -59 -24 -105 8 -23 22 -70 31 -103 17 -58 38 -113 57 -145 4 -8 11 -22 15 -30 22 -51 121 -185 178 -242 138 -139 201 -173 246 -132 52 47 42 93 -29 138 -36 22 -131 113 -177 167 -37 44 -71 99 -105 169 -41 83 -48 105 -65 185 -19 88 -39 115 -83 115 -16 0 -36 -8 -44 -17z"/> <path d="M3680 1761 c-68 -15 -187 -91 -174 -112 3 -5 34 -9 70 -9 110 0 169 -54 169 -155 0 -53 -4 -66 -32 -102 -34 -43 -99 -70 -146 -61 -20 4 -23 1 -19 -18 4 -23 26 -36 107 -65 186 -67 385 70 385 265 0 39 -5 69 -15 82 -8 10 -15 26 -15 35 0 23 -72 93 -121 118 -44 23 -152 35 -209 22z m213 -225 c6 -16 -2 -28 -14 -20 -12 7 -11 34 0 34 5 0 11 -6 14 -14z"/> <path d="M3339 1540 c-20 -11 -32 -54 -24 -80 3 -11 22 -29 41 -41 28 -17 44 -20 82 -15 108 16 168 30 180 45 20 24 14 58 -14 80 -23 18 -40 21 -138 21 -61 0 -118 -5 -127 -10z"/> <path d="M9767 1522 c-15 -15 -27 -38 -27 -50 0 -30 45 -72 79 -72 62 0 94 85 48 128 -32 30 -68 28 -100 -6z"/> <path d="M7405 1340 c-30 -10 -65 -57 -65 -89 0 -9 14 -33 31 -54 l30 -37 1102 0 c1224 1 1119 -5 1161 66 19 31 19 32 -2 61 -41 57 -23 55 -429 54 -347 -1 -379 -3 -390 -19 -7 -9 -16 -21 -21 -27 -5 -6 -148 -10 -393 -9 l-384 1 -13 26 -13 27 -263 0 c-145 0 -276 2 -292 4 -16 3 -42 1 -59 -4z m2086 -83 c-1 -12 -15 -9 -19 4 -3 6 1 10 8 8 6 -3 11 -8 11 -12z"/> </g> </svg> 