 <svg  version="1.0" xmlns="http://www.w3.org/2000/svg"  width="1350.000000pt" height="1350.000000pt" viewBox="0 0 1350.000000 1350.000000"  preserveAspectRatio="xMidYMid meet">  <g transform="translate(0.000000,1350.000000) scale(0.100000,-0.100000)" fill="#8c127c" stroke="none"> <path d="M6555 11739 c-33 -5 -99 -13 -147 -18 -48 -6 -96 -15 -107 -21 -11 -5 -32 -10 -47 -10 -26 0 -102 -19 -169 -42 -16 -5 -47 -13 -68 -18 -21 -4 -44 -13 -50 -19 -6 -6 -20 -11 -31 -11 -12 0 -34 -7 -50 -15 -15 -8 -32 -15 -37 -15 -18 0 -257 -114 -344 -165 -33 -19 -67 -38 -75 -42 -33 -16 -151 -100 -235 -168 -88 -72 -219 -196 -303 -289 -50 -56 -162 -202 -162 -211 0 -4 -12 -24 -27 -44 -37 -48 -45 -62 -93 -156 -23 -44 -45 -87 -50 -95 -4 -8 -17 -37 -28 -65 l-21 -50 -168 -6 c-166 -6 -247 -18 -311 -45 -18 -8 -45 -14 -60 -14 -16 0 -37 -7 -48 -15 -10 -8 -27 -15 -37 -15 -11 0 -31 -6 -45 -13 -15 -8 -45 -22 -67 -32 -22 -9 -47 -21 -55 -26 -8 -5 -26 -14 -40 -20 -78 -33 -263 -172 -365 -273 -96 -96 -205 -223 -205 -240 0 -3 -12 -22 -26 -43 -14 -21 -30 -47 -35 -58 -5 -11 -13 -27 -18 -35 -15 -25 -68 -142 -84 -185 -34 -95 -40 -112 -46 -150 -4 -23 -10 -46 -14 -52 -4 -7 -12 -40 -17 -75 -4 -35 -13 -81 -19 -103 -6 -23 -11 -127 -10 -248 1 -115 0 -209 -2 -210 -2 -1 -22 -11 -44 -21 -39 -19 -185 -113 -195 -125 -3 -4 -18 -17 -35 -30 -100 -76 -355 -356 -355 -390 0 -5 -4 -11 -8 -13 -4 -1 -25 -32 -46 -68 -20 -36 -41 -72 -46 -80 -5 -8 -18 -35 -30 -60 -12 -25 -28 -58 -35 -73 -8 -16 -15 -36 -15 -45 0 -9 -7 -26 -15 -36 -8 -11 -15 -29 -15 -41 0 -12 -7 -30 -15 -41 -8 -10 -15 -31 -15 -45 0 -15 -7 -40 -15 -55 -8 -16 -15 -42 -15 -59 0 -16 -8 -50 -16 -75 -25 -70 -26 -557 -1 -695 10 -55 23 -113 28 -130 6 -16 15 -48 19 -71 5 -22 13 -51 18 -65 6 -13 18 -44 27 -69 46 -117 167 -350 187 -358 4 -2 8 -8 8 -13 0 -24 163 -225 264 -324 121 -120 186 -172 316 -257 92 -59 101 -64 217 -121 43 -21 91 -44 106 -52 16 -8 35 -15 42 -15 7 0 26 -6 42 -14 35 -17 87 -35 133 -46 41 -10 97 -24 160 -40 25 -6 86 -15 135 -20 50 -5 117 -14 150 -19 39 -7 392 -11 1027 -11 676 0 969 -3 973 -11 4 -6 -7 -23 -23 -37 -17 -15 -38 -47 -47 -70 -17 -41 -17 -45 0 -82 10 -22 33 -53 51 -70 39 -35 41 -44 14 -85 -25 -38 -25 -75 -1 -123 27 -52 63 -83 118 -101 43 -14 51 -22 78 -75 25 -49 40 -64 85 -89 46 -26 65 -31 117 -29 70 1 76 -4 88 -71 9 -45 113 -163 171 -192 22 -11 45 -24 52 -29 8 -6 37 -18 65 -29 70 -25 299 -27 346 -3 16 9 39 16 50 16 11 0 22 4 25 9 4 5 25 19 49 30 88 44 177 150 177 211 0 49 15 59 81 59 37 -1 70 6 102 21 56 27 117 86 117 116 0 27 25 48 73 64 49 15 105 73 113 117 9 45 -2 105 -21 119 -24 17 -18 43 14 62 42 24 61 62 61 123 0 50 -3 55 -45 95 -26 24 -41 45 -36 49 6 3 471 6 1033 6 658 0 1039 3 1068 10 25 5 86 14 136 18 50 5 100 13 112 20 11 6 33 11 49 11 15 0 48 6 73 14 25 8 72 22 105 31 33 9 73 23 88 31 16 8 35 14 44 14 8 0 27 6 41 13 15 8 43 21 62 30 162 72 261 130 395 231 128 97 281 239 343 321 26 33 51 65 58 70 10 9 62 84 106 153 20 32 116 224 134 267 6 17 19 47 28 68 9 21 16 46 16 55 0 10 4 22 10 28 5 5 14 30 19 54 6 25 14 65 20 90 37 168 41 211 41 438 0 164 -4 251 -14 295 -8 34 -19 87 -25 117 -24 117 -32 145 -41 154 -6 6 -10 18 -10 28 0 16 -6 32 -45 123 -24 56 -87 180 -106 210 -10 17 -22 37 -26 45 -11 22 -91 137 -110 159 -10 10 -45 50 -78 88 -68 78 -215 208 -291 256 -28 17 -59 38 -70 44 -10 7 -68 37 -129 67 l-110 55 0 63 c0 85 -34 249 -69 333 -30 71 -101 208 -139 267 -77 120 -311 331 -420 378 -12 6 -29 14 -37 19 -14 8 -47 23 -125 57 -16 7 -41 15 -55 17 -14 3 -38 10 -55 15 -97 33 -169 42 -338 42 l-175 0 -7 38 c-4 20 -11 75 -16 122 -8 82 -20 143 -41 205 -5 17 -13 44 -18 60 -10 36 -28 88 -47 133 -26 64 -45 107 -54 122 -4 8 -20 39 -34 69 -15 29 -43 78 -63 110 -46 69 -59 92 -68 111 -11 21 -150 207 -192 255 -89 101 -218 230 -304 301 -59 50 -156 124 -161 124 -3 0 -34 19 -69 43 -35 23 -81 51 -103 62 -22 11 -42 23 -45 26 -3 4 -30 18 -60 33 -30 15 -62 31 -70 35 -17 10 -79 38 -127 58 -18 7 -48 19 -65 26 -45 19 -97 37 -133 47 -16 5 -43 13 -60 18 -68 23 -143 42 -169 42 -15 0 -37 5 -48 11 -11 6 -57 15 -102 20 -44 5 -112 13 -151 19 -83 11 -315 10 -400 -1z m345 -115 c41 -3 95 -7 120 -8 25 -1 81 -10 125 -20 44 -9 109 -24 145 -32 36 -8 76 -14 89 -14 13 0 48 -13 78 -30 29 -16 59 -30 67 -30 42 0 311 -120 401 -178 51 -34 67 -44 135 -83 30 -18 74 -48 96 -68 23 -20 58 -47 78 -61 20 -14 61 -49 91 -77 31 -29 59 -53 64 -53 5 0 20 -17 33 -37 14 -21 52 -65 84 -98 51 -51 112 -131 149 -193 6 -9 24 -33 40 -53 31 -38 105 -152 105 -163 0 -4 16 -30 35 -59 19 -28 35 -58 35 -65 0 -8 9 -25 19 -38 11 -14 22 -44 26 -67 4 -23 11 -46 15 -52 4 -5 17 -39 28 -75 11 -36 30 -90 42 -120 12 -30 24 -80 26 -110 7 -93 32 -160 75 -203 21 -22 39 -43 39 -48 0 -22 85 -39 200 -39 91 0 351 -53 407 -83 15 -8 48 -22 73 -31 49 -17 175 -130 165 -146 -10 -16 -52 -12 -59 5 -4 11 -21 15 -59 15 -36 0 -59 -5 -67 -15 -7 -8 -18 -15 -25 -15 -6 0 -21 -8 -33 -18 -15 -14 -35 -18 -72 -16 -41 2 -55 7 -78 32 -54 58 -158 53 -277 -13 -65 -37 -107 -75 -111 -101 -2 -9 -12 -26 -23 -38 -14 -15 -21 -36 -21 -63 0 -22 -7 -57 -15 -77 -14 -34 -14 -39 6 -79 40 -82 34 -183 -12 -208 -24 -12 -25 -55 -2 -68 14 -8 15 -13 5 -35 -7 -16 -20 -26 -32 -26 -13 0 -20 -7 -20 -20 0 -17 -7 -20 -45 -20 -25 0 -62 -9 -83 -19 -34 -18 -82 -69 -82 -89 0 -5 -11 -19 -25 -32 -53 -50 -24 -133 78 -220 33 -29 46 -33 100 -35 62 -3 63 -2 130 51 37 30 67 60 67 66 0 20 92 2 109 -21 15 -20 24 -21 125 -18 l109 3 36 42 c20 23 43 42 51 42 27 0 99 -44 109 -67 9 -21 17 -23 73 -21 35 2 70 -1 79 -5 11 -6 27 1 49 20 l33 27 15 -22 c17 -25 47 -29 56 -7 7 20 50 19 68 -2 28 -33 57 -106 46 -115 -2 -1 -203 -5 -448 -8 -245 -4 -465 -11 -490 -17 -61 -12 -135 -63 -194 -133 -85 -100 -97 -153 -97 -427 0 -192 -1 -203 -19 -213 -15 -8 -32 -7 -67 5 -29 10 -61 14 -81 10 -43 -8 -108 -67 -134 -121 -19 -41 -19 -43 -1 -71 20 -31 74 -81 107 -100 40 -23 87 -16 123 19 39 37 62 32 77 -18 5 -16 15 -42 22 -59 7 -16 16 -42 19 -57 3 -17 17 -33 34 -42 15 -8 34 -28 40 -43 11 -26 70 -63 101 -63 7 0 27 -8 44 -19 17 -10 58 -22 90 -26 96 -11 106 -22 61 -65 -24 -22 -75 -104 -75 -119 0 -18 95 -117 119 -124 14 -4 68 -11 119 -16 60 -5 99 -13 108 -23 14 -14 9 -20 -39 -62 -62 -53 -72 -80 -49 -137 12 -32 21 -40 50 -45 22 -4 36 -14 39 -25 4 -15 15 -19 49 -19 39 0 46 3 54 26 9 23 14 25 43 19 17 -4 36 -11 41 -16 17 -15 31 -10 81 27 49 38 64 36 65 -9 0 -11 9 -21 20 -24 11 -3 20 -11 20 -17 0 -7 11 -23 24 -35 13 -13 27 -33 30 -46 4 -14 22 -30 49 -43 24 -11 49 -27 56 -36 8 -9 26 -16 42 -16 35 0 42 -11 24 -36 -11 -16 -32 -20 -117 -26 -149 -11 -201 -21 -233 -46 -15 -12 -36 -22 -46 -22 -10 0 -20 -4 -24 -10 -10 -15 -35 1 -35 23 0 98 -105 237 -180 237 -35 0 -41 -4 -71 -50 -18 -27 -40 -52 -50 -55 -10 -3 -30 -20 -45 -38 l-27 -32 -251 -1 -251 -1 -45 -31 c-37 -25 -48 -28 -69 -19 -34 14 -61 44 -61 68 0 23 -9 24 -40 2 -16 -11 -47 -17 -97 -19 -51 -1 -85 -8 -113 -23 -37 -19 -41 -19 -77 -5 -47 20 -107 13 -137 -15 -25 -24 -53 -26 -91 -9 -24 11 -34 28 -16 28 5 0 19 16 32 35 17 24 29 33 41 29 13 -4 21 2 27 19 6 14 25 36 43 50 18 14 44 46 58 71 13 26 33 49 43 52 22 7 47 -12 47 -36 0 -24 22 -40 65 -47 25 -4 45 -16 63 -39 29 -37 61 -43 107 -22 20 9 36 8 78 -5 48 -15 59 -15 111 -2 31 8 67 15 80 15 12 0 33 11 46 25 13 14 42 34 64 45 23 11 55 32 72 47 66 60 61 60 97 19 46 -53 94 -59 137 -17 18 17 37 31 42 31 5 0 18 21 29 46 19 42 19 47 5 69 -9 13 -16 30 -16 36 0 20 -31 49 -52 49 -11 0 -31 9 -45 20 -14 11 -39 20 -55 20 l-30 0 6 53 c3 28 8 68 12 88 5 32 3 37 -18 43 -12 3 -34 23 -46 43 -19 30 -22 45 -17 80 5 37 4 43 -11 43 -20 0 -54 28 -54 43 0 20 -33 47 -58 47 -15 0 -40 15 -65 41 l-41 41 -120 4 c-142 5 -227 -8 -271 -42 -18 -13 -36 -24 -42 -24 -16 0 -93 -63 -93 -76 0 -7 -8 -15 -18 -18 -10 -4 -29 -27 -43 -53 -13 -25 -30 -57 -38 -71 -7 -14 -14 -37 -15 -51 -1 -14 -8 -45 -16 -69 -11 -35 -11 -52 -1 -92 7 -27 10 -54 6 -59 -3 -6 0 -19 6 -29 16 -26 -16 -79 -37 -61 -8 6 -14 17 -14 25 0 24 -35 33 -119 32 l-82 -1 -14 -34 c-8 -18 -19 -33 -26 -33 -21 0 -49 -32 -49 -56 0 -13 -4 -26 -10 -29 -18 -11 -11 -81 10 -108 11 -14 20 -29 20 -35 0 -18 42 -62 59 -62 9 0 22 -5 29 -12 17 -17 -1 -42 -52 -72 -54 -31 -116 -102 -116 -131 0 -24 26 -131 39 -160 71 -156 75 -186 36 -289 -22 -60 -24 -72 -14 -112 9 -34 19 -49 38 -57 14 -6 41 -24 59 -39 42 -36 77 -36 110 0 15 15 44 38 65 51 26 16 47 41 67 80 31 62 43 75 78 84 16 4 33 -3 55 -22 18 -15 52 -32 77 -38 56 -13 226 -3 259 16 14 8 37 11 60 7 20 -4 51 -9 69 -12 18 -4 38 -1 46 5 7 6 33 14 58 17 34 5 54 1 86 -15 53 -27 73 -26 135 4 l51 26 47 -21 c60 -25 93 -25 135 1 l34 21 52 -26 c66 -33 92 -33 135 2 52 41 113 104 113 117 0 7 8 20 19 29 18 16 20 15 50 -14 17 -17 31 -37 31 -44 0 -7 -13 -31 -30 -54 -16 -22 -32 -53 -36 -67 -9 -36 23 -104 52 -111 12 -3 32 -16 43 -28 l22 -23 -38 -28 c-27 -22 -50 -30 -87 -32 -28 -1 -67 -5 -86 -8 -69 -12 -176 -21 -225 -19 -27 1 -428 3 -890 4 -462 1 -850 6 -862 11 -19 7 -23 16 -23 48 0 27 -6 43 -20 52 -10 8 -22 26 -25 40 -5 21 1 34 35 69 29 30 38 46 31 53 -6 6 -11 23 -11 37 0 31 -45 100 -66 100 -39 0 -40 104 -1 120 12 5 35 20 52 33 28 23 30 30 31 95 0 42 6 77 13 86 9 11 11 28 7 54 -14 72 -18 332 -6 347 7 8 9 27 4 50 -4 25 -1 49 11 78 46 111 116 223 145 232 11 3 27 19 37 36 10 16 26 32 38 35 23 8 84 73 85 91 0 6 17 20 38 30 24 12 38 26 40 41 2 15 22 35 56 57 41 26 55 42 66 74 10 32 18 41 37 41 20 0 23 5 23 38 0 39 16 62 52 75 9 3 27 23 38 44 44 80 69 117 84 125 11 6 16 23 16 54 0 38 5 50 30 72 21 18 30 36 30 56 0 16 11 48 24 71 14 23 30 64 37 91 6 27 18 60 27 74 9 14 15 42 13 67 -1 23 8 79 20 125 34 131 36 160 38 396 1 122 4 229 7 236 3 8 1 17 -5 21 -6 3 -11 18 -11 32 0 15 -7 35 -16 45 -10 10 -20 46 -25 85 -10 86 -24 161 -37 193 -5 14 -18 52 -28 85 -10 33 -24 67 -31 76 -7 8 -13 28 -13 43 0 19 -7 29 -25 36 -17 6 -25 17 -25 32 0 13 -9 36 -19 52 -15 23 -17 34 -9 49 9 18 7 19 -16 15 -22 -4 -27 0 -36 28 -6 19 -9 42 -6 52 4 13 -11 37 -54 82 -33 36 -60 72 -60 81 0 9 -18 30 -40 48 -22 17 -40 38 -40 46 0 8 -16 22 -35 31 -19 9 -35 21 -35 28 0 6 -14 24 -30 40 -16 16 -32 37 -35 47 -4 11 -13 19 -21 19 -8 0 -40 25 -72 55 -31 31 -67 58 -79 61 -13 4 -28 15 -33 25 -6 10 -32 33 -58 50 -26 18 -61 47 -78 66 -21 21 -41 33 -58 33 -23 0 -69 22 -86 40 -15 17 -62 39 -115 55 -33 9 -74 21 -91 27 -18 5 -42 18 -54 28 -14 12 -31 18 -44 15 -12 -3 -36 4 -54 15 -42 26 -37 50 21 100 86 75 85 73 85 161 0 74 -2 85 -29 122 -16 22 -29 44 -29 48 0 18 -59 71 -73 66 -8 -3 -18 -3 -21 0 -10 11 16 33 38 33 12 0 27 5 34 12 9 9 16 8 30 -5 17 -15 22 -16 53 -3 47 20 84 50 109 91 20 32 20 38 8 82 -12 41 -20 51 -68 80 -47 27 -65 32 -121 33 -50 0 -68 4 -73 15 -3 9 0 15 8 15 16 0 56 59 56 82 0 8 11 25 25 38 22 20 29 22 43 12 9 -7 29 -20 44 -30 16 -9 35 -31 43 -48 19 -41 31 -45 119 -37 72 6 75 7 108 47 47 56 53 86 28 137 -15 29 -33 46 -63 60 -50 22 -77 23 -137 5 -53 -16 -90 -6 -90 23 0 11 -4 22 -9 26 -5 3 -12 18 -16 34 -7 33 -48 82 -85 102 -59 32 -89 37 -133 24 -55 -17 -117 -54 -117 -70 0 -7 -13 -18 -29 -24 -15 -7 -45 -30 -67 -52 -21 -21 -44 -39 -51 -39 -7 0 -18 -10 -24 -23 -10 -23 -90 -67 -120 -67 -9 0 -36 -9 -60 -20 -29 -13 -66 -20 -108 -20 -62 0 -66 2 -101 39 -31 32 -45 39 -81 41 -72 4 -76 2 -134 -57 -53 -55 -70 -93 -41 -93 16 0 46 -37 46 -57 0 -8 -11 -18 -25 -23 -14 -5 -38 -19 -54 -31 -22 -16 -38 -20 -61 -15 -27 5 -43 -1 -100 -40 -42 -28 -73 -57 -80 -75 -11 -26 -9 -34 21 -84 18 -30 38 -55 44 -55 25 0 115 -50 115 -64 0 -9 -18 -27 -40 -41 -102 -65 -106 -163 -9 -224 28 -17 59 -31 69 -31 28 0 70 21 70 36 0 7 13 23 30 36 39 30 51 97 24 125 -38 38 -86 104 -80 110 3 3 38 12 77 20 103 19 132 8 205 -78 47 -56 67 -71 113 -88 79 -28 131 -41 171 -41 52 -1 112 -32 149 -79 18 -22 38 -41 45 -41 8 0 34 -22 60 -50 36 -38 56 -51 86 -56 43 -7 53 -28 19 -37 -12 -3 -58 -1 -103 5 -44 5 -189 11 -321 13 -243 2 -311 -4 -475 -40 -41 -10 -95 -20 -120 -24 -25 -4 -55 -13 -67 -19 -12 -7 -37 -12 -57 -12 -19 0 -36 -4 -38 -8 -1 -4 -28 -18 -58 -31 -30 -13 -66 -31 -80 -41 -27 -18 -204 -104 -238 -114 -11 -4 -22 -16 -25 -28 -4 -15 -11 -19 -23 -14 -22 8 -103 -46 -130 -86 -10 -16 -31 -36 -45 -43 -30 -16 -237 -221 -277 -275 -15 -19 -37 -46 -50 -60 -13 -14 -33 -41 -43 -60 -50 -90 -68 -115 -88 -118 -12 -2 -21 1 -21 6 0 5 -11 14 -24 20 -14 6 -29 26 -36 46 -6 20 -16 36 -21 36 -17 0 -59 48 -59 68 0 18 128 110 183 131 15 6 27 15 27 20 0 6 10 19 22 30 30 29 31 99 1 140 -14 18 -23 45 -23 65 0 30 -4 37 -25 42 -29 7 -28 27 1 33 10 2 30 12 43 22 13 11 34 19 47 19 24 0 64 42 64 68 0 8 14 30 31 50 28 32 31 40 26 86 -3 38 -11 55 -30 70 -13 12 -28 32 -32 46 -9 30 -44 70 -61 70 -7 0 -21 8 -31 19 -10 10 -34 24 -53 31 -33 11 -41 10 -103 -20 -45 -23 -67 -39 -67 -51 0 -10 -9 -20 -19 -24 -10 -3 -24 -19 -31 -36 -7 -16 -24 -39 -38 -50 -22 -17 -26 -27 -23 -67 1 -34 8 -52 23 -65 42 -36 68 -80 68 -117 l0 -37 -60 0 c-49 0 -65 -4 -85 -23 -21 -20 -28 -21 -52 -12 -40 17 -131 7 -164 -17 -18 -14 -51 -22 -102 -27 l-74 -7 -42 -53 c-30 -39 -41 -62 -41 -87 0 -44 8 -67 24 -67 7 0 23 -11 36 -25 13 -14 32 -25 42 -25 28 0 58 -18 58 -35 0 -20 26 -19 34 0 8 21 45 19 84 -5 18 -11 38 -20 45 -20 6 0 25 -7 41 -15 23 -12 36 -13 62 -5 23 8 38 8 51 1 10 -6 31 -15 46 -21 l28 -10 -23 -30 c-12 -16 -25 -30 -29 -30 -18 0 -69 -86 -69 -117 0 -32 28 -73 50 -73 6 0 10 -6 10 -13 0 -17 63 -47 99 -47 19 0 43 14 77 45 59 54 94 60 94 15 0 -16 -4 -30 -9 -30 -10 0 -71 -113 -71 -130 0 -15 -48 -122 -75 -170 -8 -14 -15 -41 -15 -60 0 -19 -11 -64 -25 -100 -13 -36 -27 -95 -30 -132 -5 -56 -10 -69 -31 -83 -28 -18 -30 -32 -10 -54 12 -13 13 -29 6 -81 -21 -145 -27 -225 -18 -243 5 -10 10 -44 10 -75 0 -64 23 -195 44 -260 8 -23 14 -56 14 -73 0 -17 6 -45 14 -62 18 -42 76 -239 76 -258 0 -9 9 -24 20 -34 11 -10 20 -26 20 -35 0 -10 16 -41 35 -69 19 -28 35 -56 35 -63 0 -7 18 -39 40 -71 22 -31 40 -61 40 -66 0 -4 9 -16 20 -26 11 -10 20 -26 20 -37 0 -10 37 -55 83 -101 45 -46 105 -111 132 -145 28 -33 61 -67 73 -74 13 -7 30 -25 38 -40 8 -15 28 -35 44 -43 17 -9 30 -19 30 -24 0 -5 38 -41 85 -80 47 -40 85 -77 85 -83 0 -6 11 -35 25 -64 24 -51 25 -59 30 -351 2 -164 8 -316 13 -338 5 -22 25 -64 45 -92 54 -77 51 -105 -19 -183 -55 -62 -56 -64 -52 -112 4 -36 13 -57 33 -78 l27 -28 -26 -59 c-15 -32 -39 -71 -54 -86 l-26 -28 -391 0 c-214 1 -595 1 -845 1 -561 0 -621 3 -792 46 -32 8 -70 14 -85 14 -16 1 -39 7 -53 15 -14 8 -40 14 -58 15 -17 0 -49 9 -69 20 -21 11 -43 20 -48 20 -18 0 -219 80 -235 94 -8 6 -40 25 -70 41 -30 16 -68 38 -85 49 -43 30 -67 44 -95 58 -14 7 -47 35 -75 61 -27 27 -67 60 -87 73 -21 13 -38 28 -38 32 0 13 -132 148 -158 161 -13 7 -22 21 -22 35 0 12 -11 33 -25 46 -14 13 -38 47 -54 75 -16 28 -36 57 -45 64 -9 7 -16 21 -16 30 0 10 -13 30 -30 46 -17 16 -30 37 -30 46 0 10 -11 39 -24 66 -22 45 -71 176 -94 253 -6 19 -14 64 -18 100 -4 36 -10 70 -14 75 -5 6 -14 47 -20 92 -14 95 -8 479 8 533 5 19 15 58 21 85 12 51 39 148 49 175 3 8 11 33 18 55 26 86 74 199 101 238 46 66 56 82 91 141 18 31 41 61 50 68 9 7 30 32 46 56 47 69 261 262 335 301 23 13 45 32 136 116 53 50 63 83 70 240 4 107 18 185 31 185 11 0 51 -25 86 -53 34 -27 42 -29 94 -25 52 4 60 8 88 44 17 21 41 47 54 58 12 11 22 26 22 33 0 22 -41 97 -61 111 -10 7 -19 22 -21 34 -7 46 -127 42 -177 -6 -19 -18 -37 -26 -52 -24 -21 3 -24 8 -21 38 1 19 6 44 11 55 5 11 12 37 16 57 4 24 12 39 25 43 21 7 80 -19 80 -35 0 -6 9 -10 19 -10 11 0 23 -4 26 -10 3 -5 28 -10 56 -10 58 0 84 -21 95 -74 5 -29 11 -36 30 -36 23 0 29 -12 25 -47 -2 -17 150 -163 171 -163 17 0 58 -45 58 -64 0 -27 -51 -44 -190 -62 -48 -6 -129 -32 -145 -46 -5 -4 34 -8 86 -8 52 0 132 -5 179 -11 70 -8 92 -7 133 6 39 13 59 14 100 6 90 -19 201 -17 247 4 37 17 42 17 78 2 43 -19 108 -23 208 -12 65 7 73 6 93 -14 47 -47 14 -110 -50 -97 -61 12 -76 -15 -33 -61 15 -15 58 -64 97 -108 39 -44 84 -90 99 -103 32 -27 37 -66 11 -94 -25 -28 -57 -22 -92 17 -17 19 -36 35 -43 35 -6 0 -27 -15 -46 -32 -30 -30 -38 -33 -97 -33 -59 0 -67 3 -98 33 -31 30 -67 43 -67 23 0 -5 -16 -18 -36 -30 -26 -16 -52 -21 -104 -21 l-70 0 -89 93 c-147 152 -171 180 -196 229 -14 26 -28 49 -32 51 -5 3 -31 1 -58 -4 -28 -6 -83 -10 -124 -10 -86 0 -136 20 -146 60 -7 25 -8 24 -27 -17 -12 -26 -38 -54 -63 -72 -54 -37 -150 -141 -171 -186 -14 -30 -15 -39 -4 -62 7 -15 20 -42 29 -61 9 -19 45 -58 80 -87 34 -29 70 -62 78 -73 8 -12 25 -21 39 -21 35 0 30 -11 -21 -45 -77 -51 -101 -156 -50 -217 48 -57 38 -64 -104 -67 -69 -2 -96 1 -102 11 -15 22 -10 70 8 91 17 18 17 19 0 32 -12 9 -17 26 -17 66 0 29 -6 77 -12 106 -11 48 -15 53 -40 53 -21 0 -32 7 -40 25 -23 50 -131 57 -191 11 -75 -58 -87 -69 -87 -84 0 -8 -8 -24 -17 -34 -12 -13 -19 -41 -21 -86 -3 -62 -1 -70 27 -109 41 -57 40 -70 -11 -83 -90 -23 -131 -44 -179 -92 -89 -89 -98 -109 -109 -263 -20 -288 27 -414 190 -502 59 -32 192 -53 205 -33 4 6 11 8 16 4 11 -6 66 -7 252 -1 65 2 120 1 122 -3 7 -12 324 -11 345 0 15 8 28 6 51 -5 25 -13 37 -14 62 -5 18 6 109 13 202 16 155 4 171 6 184 24 7 11 24 20 36 20 25 0 115 89 115 115 0 8 9 23 19 32 14 11 18 24 15 43 -8 39 31 109 65 115 67 14 161 49 177 66 9 10 20 38 24 61 17 89 -36 137 -175 159 -49 8 -69 18 -112 55 -37 32 -53 53 -53 70 0 14 -12 36 -26 49 l-27 25 57 0 c59 0 126 21 126 40 0 6 10 15 23 21 12 5 34 17 50 25 34 19 55 13 98 -29 80 -77 161 -110 209 -86 22 11 82 69 107 104 l21 31 -19 54 c-10 30 -19 55 -19 56 0 2 -20 16 -45 33 -61 41 -105 48 -152 24 -77 -40 -83 -39 -156 30 -37 35 -67 69 -67 77 -1 8 -23 26 -51 39 -71 35 -64 57 16 54 116 -5 161 -6 210 -4 28 1 61 2 75 2 70 -1 87 0 116 9 33 11 94 79 94 104 0 9 5 16 11 16 6 0 9 14 7 33 -2 23 -8 32 -21 32 -12 0 -28 18 -46 52 -15 28 -41 67 -58 87 -44 49 -48 70 -24 109 17 28 19 38 9 76 -6 23 -18 45 -27 49 -9 3 -28 19 -42 36 -25 28 -30 30 -110 32 -127 4 -185 13 -213 35 -13 10 -34 19 -46 19 -19 0 -11 13 51 78 79 84 102 101 137 102 24 0 29 20 11 49 -14 22 -5 67 16 75 11 4 15 -2 14 -27 -1 -51 12 -89 43 -129 l30 -38 142 0 142 0 27 31 c34 39 35 84 4 130 -34 51 -61 61 -145 55 -61 -4 -74 -2 -79 12 -4 9 -1 18 5 20 7 2 12 13 12 24 0 11 20 43 45 71 55 63 53 81 -17 154 -54 55 -78 63 -197 67 -42 1 -56 5 -65 20 -32 57 -218 216 -252 216 -28 0 -57 51 -68 119 -14 91 -29 122 -71 146 -75 44 -85 43 -148 -20 -59 -58 -63 -66 -71 -150 -3 -36 0 -55 11 -67 14 -16 12 -19 -30 -39 l-45 -22 -54 22 c-74 31 -107 61 -101 94 6 31 69 107 89 107 8 0 17 7 20 15 11 27 115 98 209 143 22 11 46 27 54 36 7 9 22 16 32 16 10 0 20 4 23 9 3 5 36 21 73 36 38 15 82 33 98 41 52 22 207 53 301 59 113 7 212 25 244 44 48 29 110 82 110 96 0 7 15 35 33 61 19 27 39 66 46 86 7 20 19 42 27 49 9 7 24 29 34 49 10 20 31 45 45 54 17 11 24 23 20 35 -3 12 13 37 55 80 33 35 60 67 60 72 0 9 149 172 163 178 5 2 30 24 56 50 61 60 172 147 199 156 12 3 27 15 32 26 6 10 34 31 63 45 29 15 59 32 67 39 25 23 141 85 157 85 8 0 29 11 46 24 45 33 112 66 136 66 12 0 44 9 73 20 29 11 63 20 75 20 12 0 23 5 25 10 2 6 41 20 88 31 47 12 91 26 99 32 7 6 34 13 60 14 25 2 61 8 79 14 18 6 76 12 130 15 53 2 122 8 152 12 55 9 106 8 250 -4z m423 -275 c26 -17 48 -38 48 -47 4 -53 2 -56 -223 -287 -116 -120 -125 -138 -91 -196 14 -24 15 -32 4 -52 -17 -31 -8 -48 56 -108 26 -26 71 -73 100 -105 29 -33 70 -79 93 -104 47 -51 58 -82 40 -114 -13 -25 -69 -56 -100 -56 -33 0 -77 33 -202 152 -131 123 -164 146 -181 129 -19 -19 -129 -13 -172 9 -95 49 -140 126 -139 240 1 112 42 176 149 230 41 21 123 27 153 11 13 -7 33 6 93 62 165 156 273 252 288 259 27 11 36 9 84 -23z m137 -174 c0 -8 -4 -15 -10 -15 -5 0 -10 7 -10 15 0 8 5 15 10 15 6 0 10 -7 10 -15z m232 -12 c22 -20 23 -56 3 -73 -24 -20 -157 -15 -172 7 -18 24 -16 60 5 72 29 17 143 13 164 -6z m-1216 -38 c23 -19 52 -51 64 -70 21 -34 21 -35 3 -59 -27 -38 -56 -32 -117 25 -62 58 -71 75 -57 113 15 38 54 34 107 -9z m991 -287 c28 -26 29 -49 3 -73 -18 -16 -33 -17 -162 -11 -149 8 -178 17 -178 56 0 37 25 42 239 48 65 2 78 -1 98 -20z m-1017 -9 c16 -29 4 -68 -23 -74 -12 -3 -96 -4 -187 -3 l-165 3 -3 33 c-6 60 2 62 194 62 166 0 174 -1 184 -21z m-208 -298 c62 -32 35 -141 -36 -141 -20 0 -62 40 -70 67 -4 12 -2 31 4 42 10 20 59 53 70 48 3 -2 17 -9 32 -16z m-1255 -303 c19 -66 14 -61 105 -82 29 -7 43 -34 33 -66 -5 -16 -15 -20 -55 -20 -57 0 -75 -18 -92 -92 -10 -44 -21 -58 -50 -58 -21 0 -48 58 -48 101 0 35 -12 42 -75 49 -47 5 -50 7 -53 35 -4 45 11 59 70 65 l53 5 6 40 c8 60 25 85 58 85 27 0 31 -5 48 -62z m2067 -143 c27 -8 65 -15 83 -15 19 0 43 -5 54 -10 10 -6 38 -14 61 -19 43 -9 88 -24 143 -47 17 -7 50 -20 75 -29 25 -9 52 -21 60 -26 8 -5 22 -12 30 -15 8 -3 22 -10 30 -15 8 -5 38 -20 65 -35 127 -66 209 -123 363 -255 225 -193 388 -417 509 -699 9 -19 22 -48 29 -63 8 -16 14 -36 14 -46 0 -9 6 -25 14 -36 7 -11 16 -33 18 -50 3 -16 10 -43 16 -60 20 -59 34 -121 42 -195 5 -41 14 -91 19 -110 17 -56 14 -425 -4 -484 -8 -27 -15 -66 -15 -86 0 -21 -7 -54 -15 -73 -8 -20 -15 -49 -15 -65 0 -15 -4 -32 -9 -37 -6 -6 -14 -28 -20 -50 -21 -85 -109 -286 -175 -400 -26 -44 -133 -202 -156 -229 -138 -162 -189 -215 -333 -339 -87 -75 -133 -124 -169 -180 -64 -99 -63 -91 -66 -465 -1 -204 -6 -348 -12 -355 -6 -7 -19 -23 -29 -37 l-19 -25 -284 -8 c-155 -4 -294 -5 -307 -2 -26 7 -565 5 -719 -2 -51 -3 -105 -1 -120 4 -15 5 -94 6 -177 3 -202 -8 -229 0 -267 83 -16 33 -18 74 -18 355 0 264 -2 321 -15 338 -8 10 -15 29 -15 41 0 12 -4 24 -9 27 -5 4 -19 25 -30 49 -12 23 -57 76 -102 117 -202 188 -373 363 -441 455 -41 55 -78 107 -81 115 -4 8 -16 29 -27 45 -11 17 -22 37 -26 45 -3 8 -9 22 -14 30 -10 17 -44 89 -66 140 -9 19 -22 48 -30 63 -8 16 -14 36 -14 46 0 9 -7 26 -15 37 -8 10 -15 30 -15 44 0 14 -6 34 -14 45 -7 11 -16 36 -18 55 -5 35 -17 88 -39 170 -6 26 -13 148 -16 284 -4 194 -2 256 12 330 17 96 39 191 56 241 6 17 14 44 19 60 36 131 128 327 211 453 16 24 29 47 29 53 0 5 4 9 9 9 5 0 22 20 37 44 52 78 179 218 279 306 48 43 234 184 255 193 8 4 29 16 45 27 17 10 77 42 135 70 58 28 118 58 133 66 16 8 36 14 46 14 9 0 26 7 37 15 10 8 27 15 37 15 11 0 33 6 50 14 42 17 108 34 183 46 33 5 72 14 85 19 13 5 149 10 304 10 221 1 290 -2 329 -14z m-2139 -235 c4 -6 -8 -10 -29 -10 -19 0 -38 5 -41 10 -4 6 8 10 29 10 19 0 38 -4 41 -10z m-1134 -10 c17 -10 19 -22 19 -113 0 -92 -2 -103 -21 -115 -27 -17 -58 -6 -70 25 -5 13 -9 60 -9 103 0 70 2 81 22 94 26 19 33 19 59 6z m977 -34 c20 -13 44 -31 51 -40 19 -23 65 -46 90 -46 53 0 89 -38 76 -79 -5 -17 -82 -51 -114 -51 -6 0 -38 -20 -72 -45 -34 -25 -66 -45 -71 -45 -28 0 -51 71 -28 85 6 3 10 13 10 21 0 10 -13 14 -50 14 -52 0 -53 -1 -64 -52 -8 -36 -53 -50 -73 -22 -7 10 -10 27 -7 37 10 31 -12 36 -133 30 -100 -5 -115 -4 -133 12 -26 23 -25 47 1 71 18 16 37 19 143 19 l121 0 -3 24 c-2 25 23 61 43 61 19 0 39 -29 40 -58 0 -26 3 -27 55 -30 35 -2 58 -9 63 -18 4 -8 12 -14 17 -14 13 0 13 27 0 32 -5 2 -16 19 -24 39 -13 32 -13 38 0 57 19 27 16 27 62 -2z m-1362 -247 c30 -29 54 -60 54 -70 0 -22 -34 -59 -53 -59 -7 0 -39 23 -70 51 -60 53 -71 83 -41 113 26 27 53 18 110 -35z m540 -46 c83 -38 194 -145 194 -187 0 -8 10 -27 23 -41 21 -25 23 -26 52 -11 40 21 182 22 212 1 24 -17 33 -52 21 -85 -8 -22 -10 -23 -138 -18 -146 5 -140 9 -140 -76 0 -30 -6 -60 -15 -72 -8 -10 -15 -26 -15 -34 0 -22 -75 -106 -125 -140 -56 -38 -155 -70 -220 -70 -53 1 -122 21 -192 58 -97 51 -183 185 -183 286 0 30 -3 62 -6 71 -6 14 -8 14 -26 -2 -15 -14 -42 -18 -124 -21 -99 -4 -105 -3 -123 19 -17 21 -18 27 -5 51 22 43 47 51 145 46 69 -3 93 -8 110 -23 21 -20 21 -20 40 4 10 13 19 30 19 38 0 7 17 37 39 66 68 92 146 150 216 161 65 10 200 -2 241 -21z m-707 -67 c33 -53 28 -64 -30 -68 -33 -2 -53 1 -56 9 -6 15 47 91 64 93 1 0 11 -15 22 -34z m1541 -126 c25 -14 41 -65 30 -96 -18 -47 -95 -54 -125 -11 -45 64 26 144 95 107z m5344 -83 c6 -9 7 -19 3 -23 -9 -9 -37 15 -37 33 0 18 20 12 34 -10z m-530 -32 c10 -11 13 -26 9 -48 -9 -49 -28 -60 -98 -53 -48 5 -66 2 -85 -11 -53 -37 -59 -53 -60 -145 l0 -86 -31 -11 c-18 -6 -37 -11 -44 -11 -32 0 -45 110 -25 207 11 50 50 102 103 136 50 32 206 47 231 22z m349 0 c53 -6 61 -11 111 -61 59 -58 58 -55 69 -212 5 -63 -9 -82 -57 -82 -49 0 -58 17 -50 93 6 58 4 70 -16 102 -31 50 -72 66 -152 58 -62 -5 -64 -5 -76 21 -17 38 -15 73 6 85 9 6 37 8 62 6 25 -2 71 -7 103 -10z m261 -41 c18 -7 21 -40 5 -50 -7 -4 -20 4 -30 17 -24 33 -13 48 25 33z m-455 -120 c37 -52 35 -72 -8 -80 -21 -5 -80 -56 -205 -182 l-176 -176 0 -59 c0 -49 5 -66 25 -93 25 -33 26 -33 118 -36 l92 -3 3 -57 3 -58 -94 0 c-87 0 -97 2 -139 30 -26 17 -59 47 -74 67 -24 32 -28 48 -35 142 -5 58 -11 120 -14 137 -8 39 10 55 76 65 44 7 58 16 120 77 74 75 86 102 44 102 -33 0 -55 41 -35 65 10 12 29 16 74 14 69 -3 88 4 134 55 18 20 38 36 45 36 7 0 28 -21 46 -46z m530 14 c18 -18 44 -60 58 -93 14 -33 34 -66 44 -73 11 -7 19 -25 19 -40 0 -15 13 -61 29 -102 18 -46 33 -110 40 -167 5 -50 14 -100 19 -110 5 -10 15 -31 23 -48 8 -16 27 -36 41 -43 15 -7 36 -24 46 -37 11 -13 38 -31 61 -41 22 -9 41 -19 41 -23 0 -4 27 -20 60 -36 33 -17 60 -34 60 -38 0 -4 14 -14 31 -21 56 -24 294 -255 354 -344 18 -26 49 -72 69 -101 21 -30 47 -75 58 -100 11 -26 31 -59 44 -74 14 -17 24 -42 24 -60 0 -18 9 -43 20 -57 11 -14 20 -32 20 -40 0 -8 12 -46 25 -85 14 -38 25 -80 25 -92 0 -12 4 -32 9 -45 34 -87 43 -444 16 -649 -23 -179 -62 -328 -99 -381 -9 -12 -16 -30 -16 -39 0 -20 -74 -165 -98 -192 -8 -9 -12 -20 -9 -23 10 -10 -25 -63 -45 -70 -10 -3 -18 -10 -18 -16 0 -12 -55 -92 -91 -133 -15 -16 -39 -47 -53 -69 -14 -21 -54 -61 -88 -88 -35 -28 -83 -69 -108 -93 -25 -24 -54 -46 -66 -49 -12 -4 -37 -24 -56 -45 -20 -20 -51 -44 -69 -51 -19 -7 -55 -30 -81 -52 -26 -21 -53 -38 -61 -38 -23 0 -82 -27 -97 -44 -7 -9 -22 -16 -34 -16 -12 0 -40 -8 -62 -19 -21 -10 -70 -28 -109 -40 -38 -12 -83 -27 -100 -32 -62 -22 -102 -28 -131 -20 -34 9 -39 35 -6 39 31 5 72 48 72 75 0 13 4 27 9 32 6 6 7 28 4 51 -4 33 -10 42 -34 51 -16 6 -29 18 -29 26 0 26 71 31 382 28 l188 -2 52 28 c76 41 134 101 149 154 22 81 7 155 -46 213 -19 22 -35 43 -35 48 0 19 44 6 73 -23 38 -35 77 -35 129 2 17 13 45 23 62 23 40 1 52 36 12 36 -28 0 -41 27 -34 71 2 19 9 24 32 24 48 1 41 21 -11 34 -26 7 -56 17 -65 22 -10 5 -38 9 -63 9 -59 0 -105 -32 -105 -72 0 -41 -32 -68 -81 -68 -22 0 -50 5 -61 11 -11 6 -48 12 -82 14 -33 1 -69 5 -78 9 -10 3 -25 8 -33 11 -24 7 2 53 35 60 15 3 35 14 43 23 9 9 34 36 56 60 26 28 41 55 43 75 4 40 49 67 81 48 16 -11 190 -24 282 -22 179 4 189 5 218 33 19 18 31 41 34 67 5 36 2 44 -26 71 -18 16 -30 34 -26 39 10 17 -71 33 -112 22 -25 -7 -50 -7 -81 1 -34 8 -56 8 -93 -1 -34 -9 -53 -10 -68 -2 -29 16 -62 13 -106 -9 -56 -29 -93 -26 -105 6 -11 27 -74 110 -100 131 -12 10 -9 12 23 13 25 0 43 7 55 20 9 12 34 39 55 61 20 22 37 47 37 57 0 25 37 82 58 88 42 14 150 60 178 76 20 12 34 29 37 48 4 20 17 35 39 46 39 20 48 31 48 60 0 12 7 35 15 50 8 16 15 39 15 50 0 29 26 50 43 36 7 -6 34 -18 61 -27 45 -15 49 -15 73 2 14 10 34 23 44 29 56 32 82 100 58 147 -22 42 -104 107 -135 107 -10 0 -36 -11 -60 -25 -44 -26 -45 -26 -76 8 -1 1 -4 110 -7 242 -6 233 -7 242 -33 297 -31 66 -114 155 -179 191 -54 31 -161 47 -303 47 -156 0 -287 11 -283 24 2 6 23 18 48 27 29 11 52 29 68 53 13 20 28 36 32 36 9 0 49 72 49 88 0 18 -65 111 -78 111 -7 1 -41 19 -74 41 -34 22 -65 40 -70 40 -4 0 -14 15 -23 33 -12 27 -14 43 -6 76 8 35 6 48 -9 74 -31 54 -34 97 -10 191 13 50 20 103 18 128 -3 31 0 46 11 55 22 17 23 17 60 -19z m-5941 0 c20 -20 14 -28 -23 -28 -19 0 -35 4 -35 8 0 12 22 32 35 32 6 0 16 -5 23 -12z m5622 -48 c11 -11 20 -24 20 -29 0 -18 -56 -78 -269 -288 -223 -221 -253 -242 -267 -189 -3 14 -4 32 -2 40 1 9 86 100 188 204 102 103 204 209 227 235 46 51 72 58 103 27z m-5525 -36 c27 -18 31 -43 14 -77 -23 -42 -53 -48 -87 -17 -29 27 -29 73 1 93 29 21 42 21 72 1z m173 -10 c30 -20 28 -53 -5 -81 -32 -28 -43 -29 -77 -2 -31 24 -36 72 -8 88 25 15 64 13 90 -5z m-1391 -62 c48 -58 11 -132 -66 -132 -39 0 -57 13 -80 57 -9 18 -8 29 4 52 34 66 99 77 142 23z m6753 -146 c0 -7 -7 -30 -15 -50 -9 -20 -13 -41 -9 -47 8 -13 -14 -39 -43 -50 -28 -10 -30 -29 -3 -29 23 0 43 -32 38 -63 -5 -33 -39 -28 -63 10 -11 18 -25 32 -31 33 -5 0 -41 -27 -80 -60 -38 -32 -77 -59 -86 -60 -38 0 -65 89 -36 118 7 7 30 12 53 12 49 0 67 12 98 63 12 20 50 60 82 87 60 49 95 63 95 36z m150 -30 c14 -17 7 -230 -9 -285 -28 -94 -101 -138 -235 -142 -77 -3 -90 -1 -102 16 -18 25 -18 65 1 92 14 20 21 21 84 16 94 -8 113 -1 140 48 22 39 23 49 17 149 -3 58 -3 110 1 113 12 13 90 7 103 -7z m-990 -337 c49 -67 52 -72 39 -96 -8 -14 -32 -41 -55 -59 -59 -48 -91 -46 -143 11 -23 25 -41 54 -41 67 0 13 18 51 40 86 36 56 43 62 73 62 31 0 40 -7 87 -71z m1180 15 c40 -27 50 -45 50 -89 0 -99 -139 -125 -169 -32 -16 47 -5 82 33 112 37 29 53 31 86 9z m-7024 -56 c20 -46 50 -77 74 -78 18 0 70 -46 71 -63 5 -46 -26 -86 -67 -87 -29 0 -48 -19 -75 -73 -21 -43 -26 -48 -53 -45 -31 3 -45 21 -63 83 -6 21 -15 31 -33 33 -14 2 -44 10 -67 19 -37 13 -43 20 -43 44 0 32 61 89 97 89 28 0 53 25 53 55 0 26 42 65 70 65 10 0 24 -16 36 -42z m218 2 c18 -6 26 -17 26 -33 0 -22 46 -67 70 -67 6 0 15 -11 20 -25 5 -14 14 -25 19 -25 5 0 12 -11 15 -25 4 -14 17 -31 30 -37 14 -6 26 -18 29 -28 3 -10 32 -30 66 -45 65 -29 76 -46 69 -101 -3 -26 -8 -29 -40 -32 -30 -3 -38 -7 -38 -22 0 -12 -16 -30 -41 -46 l-41 -26 -66 33 c-58 28 -75 32 -142 31 -98 -2 -150 6 -157 25 -3 9 21 41 65 86 106 108 109 112 109 187 0 41 -5 71 -13 81 -18 20 -30 79 -16 79 6 0 22 -4 36 -10z m456 -350 c13 -9 13 -11 0 -20 -30 -19 -80 -5 -80 22 0 11 62 10 80 -2z m6782 -22 c29 -6 60 -17 69 -25 8 -7 21 -13 27 -13 14 0 67 -65 92 -115 19 -37 20 -59 20 -403 0 -321 -2 -370 -17 -416 -23 -66 -71 -118 -141 -151 -50 -24 -65 -27 -124 -22 -45 4 -70 2 -76 -6 -12 -15 -26 -125 -24 -199 1 -38 -4 -60 -13 -68 -18 -15 -35 2 -234 230 l-34 40 -493 0 c-437 0 -499 2 -536 17 -65 25 -97 51 -134 109 l-34 53 0 400 c0 361 2 402 18 432 43 80 92 117 182 135 79 17 1378 18 1452 2z m-7961 -84 c49 -33 68 -94 46 -146 -39 -93 -159 -105 -229 -23 -26 30 -24 109 3 147 44 62 111 70 180 22z m1225 -7 c13 -11 57 -37 97 -57 59 -29 73 -41 75 -62 4 -34 -32 -68 -71 -68 -26 0 -92 -32 -107 -50 -13 -18 -54 -31 -77 -25 -23 5 -25 10 -21 51 3 41 2 45 -17 39 -11 -4 -44 -9 -73 -12 -42 -4 -57 -2 -72 12 -42 38 -12 105 47 105 46 0 136 -33 141 -52 5 -21 28 -24 35 -4 3 7 -10 28 -29 47 -39 38 -44 71 -12 93 25 18 50 13 84 -17z m-392 -96 c21 -17 21 -49 -1 -73 -15 -16 -35 -18 -226 -18 -182 0 -213 2 -229 17 -26 24 -24 72 4 82 13 5 116 8 229 7 158 -1 210 -4 223 -15z m867 -50 c51 -52 36 -122 -31 -142 -52 -16 -91 0 -113 46 -14 30 -15 37 -1 64 33 67 96 80 145 32z m-764 -106 c11 -30 -48 -55 -91 -39 -25 10 -19 23 17 38 43 19 66 19 74 1z m-837 -35 c0 -5 -9 -10 -20 -10 -11 0 -20 5 -20 10 0 6 9 10 20 10 11 0 20 -4 20 -10z m952 -136 c49 -31 87 -70 100 -104 15 -38 21 -356 7 -412 -12 -53 -51 -97 -114 -128 -38 -19 -59 -20 -690 -20 -629 0 -653 1 -692 20 -53 25 -98 80 -113 139 -15 55 -14 294 0 366 12 59 60 119 117 146 35 16 90 17 691 18 l652 1 42 -26z m416 -236 c15 -25 15 -28 -3 -47 -16 -19 -30 -21 -118 -21 -110 0 -137 11 -137 57 0 34 30 42 143 40 95 -2 99 -3 115 -29z m4626 5 c36 -35 42 -65 20 -100 -25 -38 -33 -43 -75 -43 -58 0 -96 61 -72 118 23 55 84 68 127 25z m2379 5 c36 -35 40 -55 15 -88 -26 -36 -67 -46 -106 -26 -47 24 -55 66 -21 110 27 34 78 36 112 4z m-2392 -458 c29 -6 74 -20 98 -32 44 -21 152 -118 165 -148 3 -8 10 -22 15 -30 44 -76 56 -214 25 -287 -37 -85 -51 -107 -96 -151 -44 -45 -66 -59 -151 -96 -42 -18 -185 -23 -215 -7 -9 6 -38 20 -64 32 -74 35 -139 98 -178 175 -34 66 -35 73 -34 174 0 88 4 113 23 154 20 42 96 129 142 161 29 21 96 46 144 54 70 12 67 12 126 1z m1355 -70 c30 -10 144 -121 144 -141 0 -4 -9 -11 -20 -14 -11 -3 -20 -13 -20 -20 0 -23 -16 -26 -64 -14 -43 11 -46 10 -87 -22 -23 -19 -50 -43 -60 -54 -39 -42 -89 -107 -89 -115 0 -4 -15 -13 -32 -19 -30 -11 -35 -10 -56 15 -13 14 -22 36 -20 47 3 21 6 23 81 59 45 21 56 35 88 100 6 12 2 28 -11 50 -11 18 -26 45 -32 60 -7 14 -22 31 -35 37 -25 12 -30 27 -11 33 29 10 192 8 224 -2z m-214 -130 c22 -27 22 -39 3 -64 -14 -18 -30 -19 -292 -18 -153 0 -281 1 -284 1 -4 1 -14 12 -23 26 -19 29 -8 71 21 78 10 3 139 4 288 2 264 -3 269 -3 287 -25z m366 -162 c67 -16 90 -32 154 -107 7 -8 12 -48 12 -95 1 -65 -3 -87 -19 -111 -98 -149 -288 -149 -383 0 -20 31 -25 52 -26 105 0 105 55 180 155 208 46 14 53 14 107 0z m-573 -40 c30 -13 16 -28 -27 -28 -28 0 -43 13 -33 30 8 13 28 13 60 -2z m116 -114 c22 -24 22 -24 4 -58 -22 -40 -51 -51 -82 -31 -59 39 -28 135 38 118 10 -3 27 -16 40 -29z m875 28 c44 -29 35 -114 -13 -126 -39 -10 -73 17 -73 59 0 54 49 92 86 67z m189 -28 c20 -21 12 -60 -17 -86 -29 -25 -43 -23 -73 9 -30 33 -30 36 -8 74 25 43 57 43 98 3z m-1245 9 c24 -21 26 -55 4 -88 -22 -34 -62 -33 -91 2 -29 33 -29 50 -1 80 26 27 60 30 88 6z m1415 1 c31 -20 32 -53 2 -87 -28 -33 -47 -34 -81 -2 -64 59 5 137 79 89z m-1752 -46 c22 -45 16 -70 -23 -98 -27 -20 -31 -20 -59 -5 -56 28 -64 77 -20 123 33 36 79 27 102 -20z m-1144 -58 c59 -60 52 -137 -18 -184 l-43 -28 -38 17 c-61 27 -83 57 -83 111 0 39 5 51 34 79 47 47 104 48 148 5z m1429 -248 c9 -12 12 -79 12 -257 0 -228 1 -241 20 -258 27 -23 25 -53 -6 -82 -35 -32 -52 -31 -97 6 l-37 30 0 284 0 284 33 9 c37 10 57 6 75 -16z m1220 -8 c25 -12 32 -22 32 -45 0 -50 -16 -69 -58 -69 -31 0 -40 5 -54 30 -20 36 -10 71 26 88 11 6 21 11 22 11 0 1 15 -6 32 -15z m-521 -18 c3 -3 2 -9 -2 -15 -10 -18 -39 -13 -59 11 l-18 21 37 -6 c21 -3 40 -8 42 -11z m-2249 -145 c16 -17 32 -42 36 -58 14 -53 61 -175 69 -177 4 0 25 50 47 113 21 62 47 119 57 126 31 24 93 -1 93 -36 0 -19 -6 -33 -59 -152 -17 -37 -31 -71 -31 -76 0 -5 -6 -22 -14 -38 -8 -15 -21 -44 -30 -63 -8 -19 -29 -65 -45 -103 -17 -37 -31 -71 -31 -76 0 -34 -66 -101 -99 -101 -16 0 -51 42 -51 62 0 10 14 40 30 66 17 27 30 53 30 57 0 5 7 16 16 26 20 22 21 78 2 116 -18 34 -41 84 -63 138 -9 22 -25 58 -36 81 -27 59 -25 90 9 108 36 20 36 20 70 -13z m605 -17 c53 -39 58 -63 55 -248 -3 -147 -5 -170 -20 -180 -13 -8 -25 -6 -47 7 -35 21 -69 21 -95 2 -26 -20 -44 -19 -93 5 -67 32 -86 64 -81 137 4 70 20 93 82 125 30 15 50 19 84 14 56 -8 76 5 60 40 -9 19 -19 24 -50 24 -21 0 -47 -5 -58 -12 -13 -9 -27 -9 -47 -2 -41 14 -44 64 -6 94 25 20 37 22 109 18 59 -3 87 -9 107 -24z m297 16 c82 7 119 4 153 -15 36 -19 36 -19 58 0 17 16 36 20 89 20 81 0 109 -20 134 -93 23 -65 23 -308 0 -340 -17 -25 -77 -31 -91 -9 -4 6 -10 81 -13 166 l-5 154 -28 10 c-19 6 -37 5 -58 -3 l-29 -12 0 -153 c0 -163 -1 -167 -51 -180 -20 -5 -32 -1 -49 17 -21 22 -22 28 -16 160 6 129 6 138 -14 158 -22 22 -60 26 -91 10 -17 -10 -19 -23 -19 -160 0 -81 -3 -155 -6 -164 -4 -11 -19 -16 -45 -16 -29 0 -41 5 -51 23 -15 27 -19 371 -5 404 12 26 32 33 72 26 17 -4 46 -5 65 -3z m1608 -18 c50 -30 102 -105 102 -144 -1 -42 -44 -112 -85 -140 l-40 -27 -323 -1 c-279 0 -327 2 -354 16 -44 23 -65 52 -76 102 -15 66 8 136 55 170 55 39 60 40 380 41 281 1 315 -1 341 -17z m-2966 -402 c51 -64 60 -99 35 -134 -12 -16 -67 -17 -977 -17 l-965 1 -17 22 c-26 34 -22 63 13 97 l30 31 782 2 c1049 4 1095 4 1099 -2z m2367 -111 l23 -30 -23 -34 c-13 -19 -32 -36 -43 -39 -29 -7 -76 21 -78 47 -4 66 10 87 61 87 30 0 42 -6 60 -31z m-2394 -154 c40 -7 73 -63 59 -102 -16 -46 -56 -67 -121 -65 -32 2 -449 5 -928 7 -478 3 -873 5 -877 5 -16 0 -39 62 -33 90 14 62 -9 60 692 59 351 0 647 -1 658 0 206 4 379 12 384 16 5 6 100 0 166 -10z m-72 -274 c93 -12 131 -75 78 -132 -21 -22 -28 -24 -115 -22 -52 2 -106 7 -120 13 -36 13 -1484 13 -1544 0 -49 -12 -71 -4 -91 33 -11 20 -10 29 2 54 32 62 -22 58 841 61 435 2 793 5 796 8 3 3 25 2 50 -1 25 -4 71 -11 103 -14z m27 -288 c25 -32 26 -77 1 -102 -35 -35 -136 -44 -246 -23 -43 9 -264 12 -775 12 l-715 -1 -17 22 c-10 12 -18 28 -18 36 0 24 29 71 47 76 10 3 397 5 860 6 l842 0 21 -26z m-327 -249 c36 -4 57 -11 57 -19 0 -17 -71 -65 -97 -65 -11 0 -35 -11 -54 -25 -19 -14 -42 -28 -52 -31 -14 -5 -17 -14 -14 -33 4 -18 -2 -38 -20 -63 -35 -52 -66 -55 -407 -49 l-288 6 -34 39 c-19 22 -34 45 -34 53 0 11 68 13 370 13 355 0 370 1 380 19 12 24 0 34 -33 26 -13 -4 -49 3 -83 15 -51 18 -81 21 -234 20 -215 0 -332 -6 -388 -21 -43 -12 -44 -11 -82 26 -21 20 -43 34 -49 31 -12 -8 -52 10 -63 28 -4 6 -1 16 6 22 16 11 1017 19 1119 8z"/> <path d="M6517 11504 c-38 -30 -47 -44 -56 -85 -6 -28 -11 -55 -11 -61 0 -19 85 -127 100 -127 27 -1 100 38 129 67 33 32 47 94 32 136 -10 24 -54 70 -85 87 -39 22 -64 18 -109 -17z m121 -74 c28 -38 28 -61 -2 -89 -26 -25 -77 -31 -100 -12 -30 25 -26 102 7 123 29 18 73 8 95 -22z"/> <path d="M5920 11363 c-65 -65 -120 -153 -120 -195 0 -27 121 -155 168 -179 15 -7 34 -22 43 -33 19 -22 55 -15 45 9 -3 8 0 15 6 15 7 0 24 12 39 26 14 14 42 33 60 42 23 11 34 24 35 40 1 13 11 33 23 46 12 12 26 37 31 55 8 29 7 34 -12 39 -13 3 -29 25 -44 58 -15 35 -33 58 -52 68 -16 8 -43 28 -61 45 -53 49 -80 43 -161 -36z m136 -48 c16 -61 24 -75 46 -75 28 0 78 -28 78 -44 0 -34 -13 -46 -50 -46 -44 0 -64 -19 -79 -77 -10 -35 -16 -43 -35 -43 -20 0 -27 9 -43 58 -19 56 -19 57 -61 60 -35 3 -43 7 -48 28 -8 33 10 53 56 60 39 6 40 9 66 102 4 18 12 22 32 20 22 -2 29 -10 38 -43z"/> <path d="M5427 11108 c-16 -11 -43 -50 -59 -85 -23 -47 -44 -74 -80 -101 -107 -79 -178 -160 -178 -201 0 -11 -4 -22 -9 -25 -5 -3 -14 -42 -21 -86 -11 -70 -11 -83 4 -105 9 -13 16 -40 16 -59 0 -29 11 -45 68 -104 113 -116 173 -142 332 -144 52 0 74 5 110 25 71 39 105 43 132 15 13 -13 28 -32 33 -42 6 -10 27 -20 51 -23 37 -5 45 -1 90 37 27 24 53 54 58 68 12 34 -11 98 -45 126 -42 36 -92 131 -86 164 17 84 -68 237 -179 324 -53 42 -54 44 -54 94 0 44 -5 56 -32 86 -58 63 -102 73 -151 36z m105 -55 c26 -24 23 -67 -7 -87 -66 -43 -142 18 -98 78 22 30 76 35 105 9z m54 -223 c48 -21 119 -98 145 -158 28 -64 25 -148 -6 -215 -32 -67 -73 -107 -150 -146 -89 -45 -158 -40 -271 21 -33 18 -74 67 -109 128 -28 51 -27 160 3 223 25 54 85 118 134 143 68 36 174 37 254 4z m309 -465 l35 -36 -15 -36 c-19 -44 -30 -53 -71 -53 -36 0 -66 36 -66 78 0 25 50 82 72 82 5 0 25 -16 45 -35z"/> <path d="M5402 10736 c-54 -19 -100 -71 -108 -122 -7 -46 1 -106 17 -137 6 -10 28 -31 51 -47 35 -25 50 -30 101 -30 95 0 159 52 172 143 9 62 0 96 -38 138 -58 65 -120 83 -195 55z m125 -112 c21 -21 24 -32 20 -60 -12 -72 -94 -99 -135 -44 -28 37 -28 77 0 107 30 32 81 31 115 -3z"/> <path d="M7940 10959 c-58 -31 -220 -183 -220 -205 0 -7 -20 -33 -45 -57 -25 -25 -45 -51 -46 -58 0 -8 0 -37 1 -66 1 -28 -5 -64 -13 -80 -8 -15 -17 -53 -20 -84 -7 -55 -6 -56 39 -110 26 -29 52 -58 59 -64 6 -5 18 -29 25 -52 7 -24 21 -50 32 -59 10 -10 18 -22 18 -29 0 -6 16 -26 35 -45 19 -19 35 -39 35 -44 0 -16 51 -56 72 -56 10 0 27 -9 39 -21 31 -31 110 -28 185 8 45 22 69 43 111 98 64 82 69 86 100 72 24 -11 33 -60 13 -72 -6 -4 8 -32 34 -70 24 -35 47 -76 50 -92 l7 -29 -54 -1 c-48 -1 -58 -6 -95 -40 -22 -21 -53 -46 -67 -57 -26 -18 -26 -19 -8 -36 11 -9 29 -23 41 -29 12 -6 22 -16 22 -22 0 -5 12 -27 26 -49 32 -48 59 -51 90 -12 19 22 26 25 41 16 13 -8 36 -9 73 -3 88 13 100 18 100 38 0 10 9 29 20 43 16 22 18 30 8 61 -6 21 -15 37 -20 37 -4 0 -8 7 -8 15 0 8 6 12 14 9 8 -3 39 15 71 40 30 25 61 46 67 46 7 0 9 13 5 35 -4 24 1 50 14 80 15 34 19 56 14 89 -9 54 -12 60 -55 80 -67 32 -104 55 -112 71 -5 8 -19 15 -31 15 -12 0 -29 4 -37 9 -10 7 -18 4 -27 -9 -8 -11 -33 -28 -56 -38 -24 -11 -55 -37 -72 -60 -31 -43 -57 -58 -76 -47 -23 15 20 117 56 133 18 8 25 20 25 39 0 16 7 41 15 56 15 28 11 81 -7 104 -5 7 -7 45 -3 91 6 68 4 84 -13 118 -29 57 -258 284 -285 284 -13 0 -30 9 -40 20 -25 29 -81 25 -147 -11z m263 -196 c86 -86 157 -165 157 -174 0 -17 -53 -69 -71 -69 -22 0 -5 -28 36 -58 38 -27 45 -38 45 -67 0 -29 -8 -40 -57 -82 -75 -62 -75 -62 -68 -105 5 -35 1 -43 -49 -97 -90 -98 -143 -143 -165 -139 -11 2 -63 45 -115 96 l-96 93 0 52 0 52 -75 60 c-40 33 -76 66 -80 74 -9 22 20 56 80 96 56 38 63 55 20 55 -24 0 -45 25 -45 53 0 20 291 316 311 317 8 0 86 -71 172 -157z m438 -597 c57 -24 83 -63 83 -124 0 -47 -3 -56 -37 -90 -34 -34 -42 -37 -87 -35 -68 2 -112 35 -130 97 -15 53 -9 83 23 118 41 44 94 56 148 34z m-227 -402 c25 -24 20 -67 -10 -93 -23 -20 -30 -21 -54 -11 -30 13 -60 67 -43 78 5 4 12 15 16 25 8 22 69 23 91 1z m166 -6 c24 -26 25 -37 4 -66 -16 -23 -66 -30 -93 -13 -18 11 -19 65 -1 85 18 23 66 20 90 -6z"/> <path d="M7979 10733 c-31 -32 -74 -74 -95 -94 -21 -21 -45 -44 -51 -53 -13 -15 -17 -36 -8 -36 6 0 106 60 125 75 8 7 32 18 52 24 33 11 43 9 91 -13 30 -14 62 -35 72 -46 19 -21 75 -28 75 -9 0 9 -194 209 -203 209 -1 0 -27 -26 -58 -57z"/> <path d="M7990 10535 c-7 -8 -17 -15 -23 -15 -5 0 -28 -15 -51 -33 -23 -19 -52 -40 -66 -47 -56 -29 -53 -46 20 -100 63 -48 77 -67 60 -84 -5 -5 -10 -17 -10 -25 0 -19 97 -121 113 -121 7 0 36 23 65 52 40 38 53 58 52 77 -4 50 0 59 41 86 54 38 63 57 40 84 -10 11 -25 21 -34 21 -22 0 -99 -104 -121 -162 -12 -32 -23 -48 -35 -48 -25 0 -41 20 -41 51 0 19 -16 46 -50 85 -52 60 -58 72 -38 92 18 18 38 15 80 -15 42 -29 52 -27 113 22 l30 24 -35 36 c-37 38 -87 48 -110 20z"/> <path d="M8819 9498 c-52 -48 -119 -153 -119 -186 0 -11 15 -35 34 -54 19 -19 36 -46 38 -59 2 -14 11 -25 23 -27 51 -9 44 -48 -19 -112 -38 -37 -45 -52 -46 -83 0 -73 40 -131 113 -162 43 -18 106 -8 138 22 68 63 69 64 69 120 0 48 -4 57 -34 87 -18 19 -38 48 -44 66 -10 28 -9 34 15 56 20 19 24 27 15 36 -9 9 -5 15 16 23 34 15 66 100 49 131 -6 11 -13 35 -17 54 -4 27 -10 35 -26 35 -11 0 -37 17 -58 38 -33 31 -46 37 -81 37 -29 0 -49 -7 -66 -22z m100 -54 c6 -14 11 -31 11 -39 0 -8 18 -24 41 -35 48 -25 49 -48 1 -72 -21 -10 -42 -32 -54 -57 -11 -23 -26 -41 -32 -41 -7 0 -22 19 -34 43 -12 24 -34 50 -49 58 -51 26 -51 49 -1 70 20 8 36 25 45 48 28 66 49 74 72 25z m30 -413 c19 -15 24 -28 25 -66 1 -41 -3 -50 -29 -71 -39 -31 -63 -30 -105 4 -28 24 -34 36 -34 67 0 71 85 110 143 66z"/> <path d="M3684 8467 c-11 -29 1 -45 118 -166 110 -113 120 -121 156 -121 36 0 72 22 72 44 0 4 -23 30 -51 59 -55 56 -94 116 -104 160 -7 26 -9 27 -74 27 -36 0 -76 3 -88 6 -15 4 -25 1 -29 -9z"/> <path d="M3998 8470 c-10 -6 -18 -16 -18 -23 0 -12 89 -113 197 -225 46 -48 56 -54 80 -47 41 10 65 34 57 59 -4 12 -24 39 -45 61 -51 55 -73 83 -96 130 -19 35 -25 40 -59 41 -22 0 -52 4 -69 7 -17 4 -38 2 -47 -3z"/> <path d="M4550 7362 c0 -5 11 -12 25 -15 16 -3 24 0 22 7 -4 14 -47 21 -47 8z"/> <path d="M4477 7305 c-22 -24 -27 -40 -29 -85 -2 -72 -5 -121 -11 -199 -5 -61 -7 -65 -44 -87 -21 -13 -44 -24 -52 -24 -7 0 -36 -22 -63 -50 -27 -27 -56 -50 -63 -50 -8 0 -22 -12 -32 -26 -10 -14 -30 -40 -44 -57 -14 -18 -29 -45 -33 -62 -4 -16 -18 -44 -31 -60 -44 -59 -215 -89 -215 -39 0 26 -22 14 -83 -48 -34 -34 -68 -61 -74 -59 -18 3 -16 -29 2 -48 8 -9 26 -30 40 -48 46 -58 135 -88 135 -46 0 19 63 13 132 -12 41 -15 52 -26 88 -86 22 -37 46 -72 53 -76 7 -4 20 -20 30 -35 10 -16 23 -28 30 -28 7 0 28 -16 47 -35 18 -19 46 -37 63 -41 16 -3 44 -15 62 -25 18 -11 54 -21 81 -23 27 -2 57 -7 66 -11 10 -4 38 1 62 10 60 23 156 14 156 -15 0 -21 49 -83 50 -62 0 6 -4 12 -10 12 -5 0 -10 20 -10 45 0 37 4 47 27 62 17 11 45 18 73 17 25 0 39 1 33 3 -26 9 -14 69 25 125 22 30 51 80 65 111 15 31 31 58 35 61 5 3 41 2 80 -1 61 -5 72 -9 72 -24 0 -11 -3 -19 -7 -19 -5 0 -16 -14 -25 -31 l-18 -30 53 -54 c28 -29 58 -60 65 -69 26 -32 107 -10 107 29 0 16 6 20 33 17 28 -2 32 1 32 22 0 13 -10 30 -22 38 -26 17 -19 48 12 48 25 0 40 32 19 39 -7 2 -25 16 -40 30 -14 14 -44 39 -67 55 -24 16 -42 37 -42 47 0 21 -34 59 -52 59 -9 0 -9 -3 0 -12 18 -18 15 -53 -6 -71 -24 -22 -167 -24 -217 -3 -30 13 -35 13 -48 -2 -8 -10 -18 -32 -22 -50 -8 -40 -60 -139 -89 -171 -82 -91 -233 -138 -370 -116 -65 10 -92 21 -151 58 -32 20 -115 100 -115 110 0 6 -6 18 -13 26 -47 56 -65 258 -31 338 49 113 84 155 176 215 119 76 276 78 403 4 101 -59 176 -165 190 -268 8 -53 23 -88 38 -88 5 0 15 7 23 15 9 8 30 16 47 17 18 1 43 2 57 3 14 1 46 2 73 3 40 2 47 5 47 22 0 22 -7 23 -113 24 -65 1 -87 18 -87 67 0 15 -11 40 -24 56 -13 15 -27 39 -31 52 -10 32 -131 161 -170 182 -16 9 -44 24 -61 33 -18 9 -36 22 -42 29 -5 6 -13 80 -16 162 -5 98 -12 155 -20 165 -7 8 -16 23 -19 33 -14 38 -25 12 -32 -73 -4 -49 -4 -120 0 -157 6 -61 4 -71 -15 -96 -26 -32 -39 -34 -68 -7 -21 20 -22 26 -16 138 3 64 2 142 -3 172 l-8 54 -28 -29z m-602 -821 c49 -32 21 -114 -38 -114 -25 0 -36 7 -49 30 -15 26 -15 33 -3 56 24 47 50 54 90 28z m193 -22 c15 -19 8 -72 -11 -84 -6 -4 -26 -8 -43 -8 -57 0 -79 64 -37 106 20 20 72 12 91 -14z m1282 -206 l24 -44 -24 -36 c-36 -51 -59 -53 -97 -8 -17 20 -38 37 -47 37 -9 0 -16 5 -16 10 0 5 6 10 13 10 7 0 28 17 46 38 45 50 70 49 101 -7z"/> <path d="M3389 6626 c-64 -61 -71 -75 -78 -157 -7 -86 -19 -105 -83 -141 -21 -12 -38 -28 -38 -35 0 -7 -17 -21 -39 -32 -21 -11 -51 -35 -66 -53 -40 -47 -77 -60 -184 -63 -80 -3 -96 -7 -117 -26 -13 -12 -24 -28 -24 -36 0 -14 -72 -63 -92 -63 -7 0 -27 13 -44 29 -36 34 -101 71 -124 71 -8 0 -41 -25 -72 -56 -77 -75 -78 -101 -8 -173 54 -56 79 -62 133 -34 17 9 43 19 57 23 20 5 26 14 30 46 4 27 10 40 23 42 29 6 77 -19 83 -42 7 -29 -12 -76 -30 -76 -9 0 -21 -10 -27 -22 -6 -12 -29 -40 -51 -62 -33 -34 -38 -46 -34 -70 3 -16 6 -37 6 -47 0 -11 10 -23 24 -29 13 -5 27 -18 31 -29 15 -49 98 -76 148 -49 64 34 142 157 116 183 -5 5 -9 17 -9 27 0 9 -9 22 -20 28 -12 6 -20 21 -20 37 0 21 3 24 23 19 12 -3 32 -6 45 -6 17 0 22 -6 22 -24 0 -15 7 -26 20 -29 14 -4 20 -14 20 -35 0 -23 15 -48 55 -96 78 -91 131 -134 193 -153 29 -9 57 -24 61 -33 5 -8 11 -58 14 -110 6 -97 27 -170 50 -170 9 0 12 25 9 103 -2 56 0 118 5 137 8 30 14 35 41 38 42 4 52 -21 52 -139 0 -81 2 -90 17 -87 20 4 28 38 38 149 l6 67 58 31 c32 17 64 38 71 46 7 8 20 15 30 15 11 0 28 19 45 53 15 28 37 63 50 77 13 14 32 44 44 67 11 23 25 44 31 48 5 3 10 17 10 30 0 12 7 26 16 29 23 9 67 7 84 -4 15 -10 15 -10 -31 -127 -13 -32 -12 -34 26 -73 21 -22 47 -42 56 -45 10 -3 22 -20 28 -37 8 -22 15 -29 27 -24 8 3 27 6 40 6 17 0 24 5 24 20 0 25 24 36 53 23 14 -6 31 -6 49 1 21 8 34 7 50 -3 17 -11 22 -11 29 1 10 15 12 26 10 49 -1 9 7 19 19 22 17 4 20 13 20 54 0 56 -6 68 -39 78 -14 4 -33 17 -42 29 -14 17 -27 21 -71 19 -51 -2 -148 23 -148 39 0 4 11 17 24 30 76 74 71 141 -16 200 -64 44 -120 61 -155 47 -52 -20 -82 -11 -153 46 -42 33 -72 66 -76 81 -5 20 -11 24 -29 20 -15 -4 -28 1 -41 15 -10 12 -31 28 -47 35 -27 14 -28 17 -26 87 2 75 -16 147 -38 147 -7 0 -17 8 -22 18 -5 9 -27 27 -49 39 l-38 21 -35 -32z m92 -78 c11 -42 7 -145 -6 -181 -5 -11 -18 -17 -36 -17 -38 0 -48 26 -51 123 -2 87 11 117 52 117 26 0 31 -5 41 -42z m89 -306 c91 -44 166 -121 201 -204 13 -32 17 -34 33 -12 8 11 43 18 119 26 105 11 107 10 142 -13 37 -25 42 -43 22 -70 -17 -22 -66 -27 -181 -19 -77 5 -101 10 -112 24 -11 15 -12 10 -11 -36 2 -79 -13 -176 -29 -189 -8 -6 -14 -16 -14 -21 0 -21 -62 -88 -113 -121 -29 -19 -83 -42 -122 -51 -66 -16 -73 -16 -140 0 -38 10 -87 29 -108 41 -50 31 -117 92 -117 107 0 7 -5 17 -12 24 -20 20 -48 125 -48 183 0 31 -3 59 -6 62 -4 3 -18 -3 -32 -13 -20 -17 -40 -20 -118 -20 -102 0 -139 11 -148 44 -8 29 44 76 83 76 60 0 187 -22 209 -36 21 -14 23 -13 38 18 28 60 42 83 76 119 43 47 121 91 178 100 64 10 169 0 210 -19z m-1024 -203 c30 -18 34 -26 34 -64 0 -35 -5 -46 -26 -60 -49 -32 -114 7 -114 69 0 27 6 38 33 55 39 25 33 25 73 0z m275 -280 c22 -15 29 -28 29 -54 0 -47 -8 -64 -41 -80 -42 -22 -67 -18 -100 14 -36 36 -37 70 -3 110 31 37 72 41 115 10z m1337 -43 c5 -41 -22 -66 -73 -66 -46 0 -55 10 -55 61 0 22 8 34 32 49 31 19 33 19 63 2 20 -12 31 -27 33 -46z m149 38 c38 -29 42 -51 13 -82 -27 -29 -85 -30 -100 -3 -16 32 -12 69 12 91 28 26 34 25 75 -6z"/> <path d="M3452 6064 c-24 -24 -60 -48 -79 -55 -25 -8 -32 -14 -24 -22 6 -6 11 -27 11 -46 l0 -36 23 27 c12 15 33 28 47 30 20 2 24 8 22 27 -1 16 8 35 29 57 21 22 28 36 23 46 -7 11 -18 5 -52 -28z"/> <path d="M2653 6636 c-4 -8 -28 -23 -53 -34 -25 -11 -51 -27 -59 -36 -7 -9 -21 -16 -29 -16 -9 0 -30 -14 -48 -31 l-31 -30 -39 16 c-50 21 -107 12 -133 -21 -10 -13 -24 -24 -30 -24 -14 0 -8 -98 8 -127 6 -12 20 -25 31 -28 11 -3 20 -11 20 -17 0 -7 22 -9 68 -5 68 7 69 6 109 -28 31 -26 50 -35 78 -35 45 0 95 -28 95 -52 0 -24 36 -24 49 0 6 11 32 27 58 36 26 10 62 24 80 32 17 8 36 14 41 14 6 0 26 14 45 31 38 34 64 109 53 152 -16 64 -175 177 -249 177 -21 0 -27 4 -25 17 4 22 -28 29 -39 9z m32 -93 c19 -9 35 -20 35 -24 0 -7 143 -79 159 -79 24 0 42 -72 21 -85 -6 -4 -40 -15 -76 -25 -35 -10 -83 -33 -106 -49 -23 -17 -52 -31 -65 -31 -29 0 -61 46 -44 63 6 6 11 17 11 25 0 12 -12 14 -66 8 -79 -8 -104 6 -104 60 0 44 26 59 78 44 20 -5 48 -10 61 -10 14 0 33 -7 43 -17 24 -21 36 -9 14 16 -23 25 -32 87 -16 106 15 18 12 19 55 -2z m-326 -96 c36 -18 44 -51 20 -81 -25 -32 -64 -34 -96 -4 -28 26 -29 52 -3 78 23 23 45 25 79 7z"/> <path d="M2160 6429 c0 -20 4 -29 9 -23 15 15 17 47 4 51 -9 3 -13 -6 -13 -28z"/> <path d="M5245 5943 c-38 -6 -132 -69 -140 -94 -4 -10 -17 -31 -29 -47 -13 -15 -26 -40 -30 -57 -4 -16 -10 -40 -13 -53 -3 -15 3 -35 20 -60 14 -20 28 -51 32 -69 4 -22 17 -38 43 -53 35 -21 36 -23 17 -36 -28 -21 -41 -17 -66 19 -34 49 -142 157 -158 157 -7 0 -28 8 -45 19 -17 10 -57 21 -88 25 -53 6 -62 3 -140 -37 -89 -46 -137 -77 -138 -90 0 -5 -13 -22 -30 -39 -16 -16 -30 -36 -30 -44 0 -12 -4 -12 -20 -4 -11 6 -40 12 -63 14 -61 5 -105 17 -117 31 -8 10 -24 8 -78 -11 -60 -21 -72 -22 -105 -10 -25 8 -53 10 -85 5 -26 -4 -80 -8 -120 -8 -82 -1 -146 -27 -201 -81 -56 -57 -38 -113 54 -170 38 -23 52 -25 230 -32 105 -4 201 -8 215 -9 14 -1 65 1 114 5 74 5 94 10 123 32 41 31 67 28 71 -9 2 -19 9 -27 23 -27 23 0 71 -48 63 -62 -9 -15 27 -48 52 -48 12 0 45 -12 72 -26 50 -26 51 -26 96 -9 25 10 58 15 73 12 22 -4 37 2 68 27 22 18 51 39 65 46 14 7 35 25 48 41 13 16 30 29 37 29 8 0 17 9 20 20 11 34 41 44 70 23 13 -10 25 -21 25 -25 0 -15 30 -8 48 10 30 30 51 34 69 12 19 -21 93 -29 93 -10 0 6 18 30 40 52 22 23 40 49 40 58 0 8 -11 32 -25 52 -32 48 -32 80 3 120 68 80 91 149 72 217 -15 57 -128 177 -179 191 -37 10 -44 10 -96 3z m121 -122 c41 -30 64 -75 64 -123 0 -66 -13 -93 -61 -128 -119 -86 -274 28 -228 167 13 40 66 94 102 104 32 10 98 -2 123 -20z m-543 -238 c71 -25 144 -97 159 -155 26 -104 -35 -220 -137 -259 -64 -24 -101 -24 -160 2 -92 41 -135 106 -135 206 0 56 4 71 31 112 36 52 56 69 114 92 53 22 71 22 128 2z m400 -181 c22 -19 21 -51 -2 -79 -23 -27 -57 -30 -83 -6 -34 31 -17 89 32 105 17 6 27 2 53 -20z m172 2 c21 -22 22 -29 13 -52 -12 -28 -44 -62 -59 -62 -15 0 -59 51 -59 69 0 27 38 71 61 71 11 0 31 -12 44 -26z m-1017 0 c25 -12 32 -22 32 -44 0 -58 -12 -60 -355 -60 -265 0 -314 2 -333 16 -24 17 -30 67 -9 81 6 4 134 10 282 13 149 3 288 7 311 8 22 1 55 -5 72 -14z"/> <path d="M4742 5378 c-18 -18 -15 -48 6 -48 23 0 42 19 42 42 0 21 -30 24 -48 6z"/> <path d="M4822 5851 c4 -13 18 -16 19 -4 0 4 -5 9 -11 12 -7 2 -11 -2 -8 -8z"/> <path d="M3425 5150 c3 -5 12 -10 20 -10 8 0 17 5 20 10 4 6 -5 10 -20 10 -15 0 -24 -4 -20 -10z"/> <path d="M6682 10838 c-33 -94 51 -188 169 -188 42 0 46 6 25 35 -10 13 -27 19 -60 20 -63 1 -108 47 -116 120 l-6 50 -12 -37z"/> <path d="M6795 10800 c-18 -19 -17 -20 2 -20 22 0 47 23 36 33 -10 11 -19 8 -38 -13z"/> <path d="M6906 10779 c-15 -22 -25 -43 -23 -46 10 -9 80 64 73 75 -12 20 -22 14 -50 -29z"/> <path d="M6187 9819 c-10 -6 -28 -8 -40 -5 -15 4 -30 -3 -47 -19 -14 -13 -56 -40 -95 -60 -38 -20 -89 -50 -113 -66 -23 -16 -52 -29 -63 -29 -12 0 -23 -8 -26 -18 -2 -11 -20 -25 -39 -32 -19 -8 -40 -20 -46 -27 -6 -7 -19 -13 -29 -13 -10 0 -21 -9 -24 -20 -3 -11 -10 -20 -15 -20 -5 0 -36 -25 -68 -55 -33 -30 -64 -55 -70 -55 -5 0 -13 -11 -16 -25 -4 -14 -11 -25 -17 -25 -15 0 -98 -92 -99 -108 0 -8 -16 -32 -35 -55 -22 -25 -35 -51 -35 -69 0 -21 -9 -34 -34 -50 -24 -16 -36 -32 -39 -56 -3 -18 -19 -49 -35 -70 -24 -30 -30 -50 -34 -104 l-6 -67 60 -61 c44 -46 68 -63 95 -67 33 -6 34 -5 22 15 -7 11 -22 23 -34 27 -44 12 -83 66 -99 136 -9 41 11 91 55 139 63 68 87 102 95 135 23 91 355 432 456 467 16 6 28 14 28 19 0 5 5 9 11 9 6 0 31 14 56 30 24 17 46 30 49 30 3 0 41 28 85 62 78 60 81 61 153 66 70 4 77 3 131 -29 91 -54 117 -134 73 -227 -24 -52 -79 -94 -198 -152 -177 -86 -351 -220 -447 -346 -63 -81 -92 -122 -108 -154 -32 -62 -136 -190 -155 -190 -5 0 -10 -4 -10 -10 0 -15 16 -12 56 11 58 32 104 70 104 85 0 7 16 29 35 48 19 20 35 41 35 49 0 7 11 24 24 36 13 13 27 34 30 47 4 13 11 24 16 24 6 0 10 7 10 15 0 8 14 27 32 42 37 32 102 92 138 128 14 14 29 25 34 25 4 0 21 11 38 25 16 14 35 25 43 25 7 0 31 18 54 41 32 32 46 40 65 35 18 -4 32 2 59 29 20 19 42 35 49 35 7 0 44 31 82 69 l69 68 1 80 c2 71 0 84 -20 107 -13 14 -27 26 -32 26 -5 0 -26 20 -46 45 -31 37 -43 45 -71 45 -19 0 -37 5 -40 10 -8 13 -35 12 -58 -1z"/> <path d="M7620 9489 c0 -17 4 -28 10 -24 6 3 10 17 10 31 0 13 -4 24 -10 24 -5 0 -10 -14 -10 -31z"/> <path d="M7616 9367 c1 -17 2 -37 3 -43 1 -14 70 -88 77 -82 2 3 -2 18 -11 34 -8 16 -15 34 -15 40 0 6 -9 19 -20 29 -11 10 -20 26 -20 37 0 10 -3 18 -7 18 -5 0 -7 -15 -7 -33z"/> <path d="M6262 9152 c-27 -18 -3 -38 40 -34 30 3 43 0 50 -12 5 -9 18 -16 29 -16 22 0 39 32 21 38 -7 2 -19 10 -26 18 -16 15 -93 19 -114 6z"/> <path d="M6202 9118 c3 -7 15 -15 28 -16 21 -3 22 -2 11 12 -16 19 -44 21 -39 4z"/> <path d="M6415 9079 c-4 -6 2 -21 14 -33 30 -32 30 -127 0 -170 -46 -67 -123 -93 -179 -61 -31 18 -40 18 -40 2 0 -6 23 -23 51 -36 69 -31 100 -24 166 42 l53 52 0 71 c0 41 -6 87 -15 108 -15 35 -37 47 -50 25z"/> <path d="M6153 9063 c-13 -8 -23 -26 -23 -38 0 -12 -6 -28 -14 -34 -22 -18 21 -135 52 -139 16 -3 22 2 22 16 0 11 -7 25 -15 32 -19 16 -20 98 -2 125 35 52 25 70 -20 38z"/> <path d="M7970 8915 c0 -8 7 -15 15 -15 8 0 15 4 15 9 0 5 -7 11 -15 15 -9 3 -15 0 -15 -9z"/> <path d="M8045 8830 c3 -5 13 -10 21 -10 8 0 12 5 9 10 -3 6 -13 10 -21 10 -8 0 -12 -4 -9 -10z"/> <path d="M7022 8553 c-18 -9 -38 -25 -44 -36 -11 -21 -5 -328 8 -394 5 -25 2 -34 -10 -39 -20 -8 -38 13 -67 76 -11 25 -24 52 -29 60 -5 8 -32 62 -60 120 -28 58 -56 112 -61 120 -5 8 -13 25 -18 36 -14 32 -60 64 -93 64 -40 0 -82 -23 -95 -53 -8 -17 -12 -146 -12 -396 -1 -319 1 -375 14 -401 19 -37 55 -53 102 -44 60 11 66 32 59 206 -4 84 -9 181 -12 216 -5 51 -3 63 10 68 15 6 55 -30 56 -50 0 -16 72 -161 81 -164 5 -2 9 -11 9 -20 1 -9 12 -35 25 -57 13 -22 35 -62 49 -90 45 -89 66 -108 120 -108 71 0 78 12 87 150 13 205 12 679 -2 701 -12 20 -60 52 -76 52 -4 0 -23 -8 -41 -17z m-307 -239 c24 -83 18 -113 -28 -137 -21 -11 -41 -17 -44 -13 -3 3 1 30 10 58 9 29 19 74 22 101 4 26 10 47 15 47 5 0 16 -25 25 -56z m314 -278 c9 -11 9 -20 2 -35 -6 -11 -11 -33 -11 -50 0 -17 -4 -31 -8 -31 -18 0 -72 67 -67 83 3 9 7 24 10 32 6 19 59 20 74 1z"/> <path d="M5460 8548 c-89 -14 -190 -81 -225 -151 -45 -88 -55 -143 -52 -295 3 -135 13 -198 38 -242 5 -8 15 -29 23 -46 16 -35 82 -95 138 -124 33 -17 58 -20 168 -20 113 0 135 3 170 21 70 37 73 47 76 258 3 241 10 231 -161 231 -103 0 -124 -3 -138 -17 -37 -41 -29 -110 15 -134 13 -7 43 -13 68 -13 l45 -1 3 -77 c3 -71 1 -78 -19 -89 -30 -16 -141 -5 -175 17 -14 10 -37 35 -50 56 -22 35 -24 47 -24 178 0 119 3 147 19 178 29 56 62 81 123 94 59 12 116 2 163 -29 50 -34 119 7 119 70 0 33 -39 97 -59 97 -6 0 -17 6 -23 12 -14 14 -113 37 -152 36 -14 0 -54 -5 -90 -10z"/> <path d="M7498 8548 c-31 -14 -68 -78 -68 -118 0 -14 -7 -34 -15 -44 -8 -11 -15 -29 -15 -41 0 -12 -7 -30 -15 -41 -8 -10 -15 -29 -15 -42 0 -13 -5 -33 -12 -45 -6 -12 -15 -38 -19 -57 -16 -73 -32 -126 -45 -152 -8 -14 -14 -35 -14 -46 0 -11 -6 -33 -14 -49 -25 -51 -46 -127 -46 -169 0 -55 22 -74 87 -74 47 0 53 3 72 34 12 18 21 42 21 52 1 11 7 30 14 43 13 24 17 24 132 23 66 -1 121 -1 124 -2 7 0 30 -61 30 -81 1 -8 12 -27 25 -43 21 -26 30 -30 76 -30 39 0 55 5 65 19 18 25 18 93 -1 129 -8 15 -15 38 -15 50 -1 11 -7 32 -15 46 -8 14 -14 34 -15 45 0 11 -7 33 -15 49 -8 15 -15 36 -15 45 0 9 -7 29 -15 45 -8 15 -15 38 -15 50 0 12 -7 31 -15 42 -8 10 -15 29 -15 41 0 12 -6 34 -14 50 -18 36 -36 89 -46 133 -11 51 -36 103 -58 123 -26 23 -80 30 -114 15z m80 -200 c19 -19 15 -26 -28 -48 -44 -23 -51 -15 -28 35 12 27 36 33 56 13z m-16 -115 c8 -10 18 -40 21 -68 3 -27 13 -65 22 -82 9 -18 15 -45 13 -60 -3 -28 -3 -28 -68 -24 -36 2 -68 5 -71 7 -8 5 10 85 22 99 5 5 9 32 9 61 0 83 18 106 52 67z m146 -275 c-3 -7 -20 -14 -39 -16 -32 -2 -33 -1 -15 13 24 18 59 20 54 3z m-238 -23 c13 -16 6 -35 -14 -35 -18 0 -39 27 -31 40 9 14 31 12 45 -5z"/> <path d="M7995 8537 l-26 -22 0 -404 c-1 -378 1 -405 18 -422 33 -33 106 -29 130 7 15 24 16 62 14 412 -1 211 -6 395 -11 407 -8 21 -55 45 -86 45 -7 0 -25 -10 -39 -23z"/> <path d="M5958 8541 c-7 -2 -21 -13 -30 -25 -16 -19 -18 -56 -18 -403 l0 -381 26 -31 26 -31 228 0 229 0 19 28 c38 55 36 78 -12 130 -20 23 -25 24 -171 22 -82 -2 -156 -2 -163 -1 -10 1 -12 23 -10 89 l3 87 138 0 137 0 25 30 c30 37 31 72 3 105 -20 25 -23 25 -162 25 l-141 0 -3 84 c-2 50 1 88 8 95 7 7 61 9 154 7 162 -3 176 1 207 62 22 42 19 65 -12 93 -19 17 -40 19 -245 19 -123 0 -230 -2 -236 -4z m114 -443 c-9 -9 -15 -9 -23 -1 -7 7 -9 20 -5 29 6 16 8 16 23 1 13 -13 15 -19 5 -29z"/> <path d="M7155 7430 c-4 -6 -10 -8 -16 -5 -10 7 -116 -10 -166 -26 -19 -6 -33 -17 -33 -26 0 -10 -6 -13 -17 -9 -20 8 -93 -59 -93 -86 0 -9 -6 -21 -14 -25 -22 -13 -46 -111 -35 -142 6 -14 7 -47 4 -73 -5 -35 -3 -53 9 -70 9 -12 16 -30 16 -39 0 -9 13 -36 30 -60 16 -24 30 -52 30 -63 0 -10 11 -31 24 -46 20 -24 24 -44 30 -130 7 -95 9 -100 28 -94 16 5 19 2 16 -18 -2 -15 -9 -22 -20 -20 -13 2 -18 -4 -18 -22 0 -14 4 -27 9 -30 12 -8 13 -446 1 -461 -13 -15 -15 -166 -3 -173 6 -4 11 -35 12 -69 1 -50 6 -67 24 -86 12 -13 27 -32 33 -43 7 -10 16 -15 20 -11 5 5 10 248 12 540 l3 532 -53 80 c-28 44 -54 82 -57 85 -9 7 -27 39 -57 100 -16 30 -34 63 -42 72 -17 21 -12 162 7 181 6 6 11 19 11 28 0 9 20 35 44 57 82 76 129 92 272 92 99 0 116 -3 160 -25 99 -51 173 -169 161 -256 -6 -47 -49 -138 -89 -190 -15 -20 -28 -40 -28 -44 0 -4 -13 -24 -30 -45 -16 -21 -30 -41 -30 -44 0 -3 -13 -24 -29 -47 -17 -22 -35 -65 -41 -95 -14 -64 -9 -977 4 -1007 15 -32 39 -14 53 38 9 34 15 147 18 360 2 171 6 378 7 461 l3 151 33 34 c22 22 30 39 26 51 -7 23 21 68 41 68 9 0 26 25 41 57 13 32 28 60 32 63 29 21 72 119 72 162 0 54 -25 136 -49 162 -10 12 -25 34 -32 51 -8 16 -27 36 -42 43 -15 7 -27 19 -27 26 0 22 -34 46 -58 39 -13 -3 -22 -1 -22 6 0 6 -9 11 -20 11 -12 0 -34 7 -51 16 -16 8 -38 12 -49 9 -10 -3 -21 -1 -25 5 -8 13 -32 13 -40 0z"/> <path d="M6148 7422 c-30 -3 -38 -7 -38 -23 0 -13 -7 -19 -22 -19 -13 0 -38 -9 -56 -20 -18 -11 -39 -20 -47 -20 -8 0 -15 -8 -15 -17 0 -9 -10 -27 -22 -40 -19 -20 -20 -26 -8 -33 8 -5 11 -13 6 -17 -5 -4 -11 -2 -13 5 -8 22 -23 12 -23 -16 0 -15 -7 -38 -16 -50 -13 -19 -14 -30 -4 -70 6 -26 15 -70 19 -99 5 -36 17 -64 38 -91 17 -21 36 -58 43 -81 8 -29 18 -45 36 -51 13 -5 24 -16 24 -24 0 -7 11 -21 24 -29 23 -15 27 -28 43 -130 3 -21 11 -41 18 -43 13 -5 9 -101 -6 -119 -4 -6 -4 -17 1 -25 5 -8 5 -21 -1 -31 -9 -17 -6 -159 4 -175 2 -5 8 -28 12 -51 6 -36 4 -43 -9 -43 -20 0 -20 -19 -1 -44 11 -14 12 -23 4 -33 -23 -27 -11 -319 15 -368 9 -16 16 -36 16 -42 0 -17 17 -16 23 1 7 17 9 212 8 673 l-1 371 -60 81 c-33 45 -60 85 -60 89 0 4 -8 15 -17 24 -30 27 -53 61 -85 128 -33 66 -39 117 -25 190 10 47 78 120 152 161 58 32 64 33 165 33 125 -1 172 -18 243 -87 74 -71 90 -112 85 -212 -3 -54 -10 -91 -19 -102 -8 -10 -24 -36 -34 -58 -11 -22 -30 -53 -42 -70 -11 -16 -37 -60 -57 -97 l-36 -67 0 -530 c0 -291 3 -536 6 -545 10 -25 20 -19 57 33 22 30 32 52 26 58 -6 6 -3 24 7 48 11 28 14 56 10 109 -3 39 -5 80 -5 91 0 11 2 179 5 374 6 391 1 363 77 473 56 82 77 119 77 135 0 9 7 24 16 34 18 20 21 106 5 148 -5 14 -12 37 -15 51 -3 14 -16 36 -28 50 -13 13 -32 38 -43 56 -28 44 -122 127 -136 119 -6 -4 -22 4 -36 16 -23 22 -33 24 -136 24 -62 0 -129 -1 -149 -3z"/> <path d="M6168 7164 c-31 -20 -38 -30 -38 -58 0 -18 9 -45 20 -59 11 -14 20 -28 20 -32 0 -3 11 -21 25 -39 14 -18 36 -53 48 -77 34 -63 59 -64 89 -2 13 26 41 78 62 116 44 78 43 103 -7 148 -29 27 -37 29 -107 28 -62 0 -81 -4 -112 -25z m167 -103 c-3 -14 -13 -31 -21 -37 -7 -6 -14 -16 -14 -22 0 -23 -22 -23 -46 -1 -53 50 -10 120 59 96 24 -8 28 -13 22 -36z"/> <path d="M7075 7173 c-75 -39 -82 -69 -34 -159 17 -32 35 -64 40 -70 5 -6 20 -31 32 -55 13 -24 30 -44 38 -44 8 0 34 38 57 85 24 47 47 87 51 90 4 3 17 22 30 42 27 45 22 69 -23 103 -27 21 -44 25 -97 25 -38 -1 -76 -7 -94 -17z m123 -95 c11 -14 2 -81 -14 -111 -9 -16 -12 -16 -31 5 -20 23 -45 102 -35 113 10 10 70 5 80 -7z"/> <path d="M3847 9342 c-40 -42 -36 -56 15 -48 52 8 52 9 41 42 -13 38 -24 39 -56 6z"/> <path d="M3637 9240 c-10 -18 -12 -32 -6 -36 6 -3 9 -18 7 -32 -3 -24 1 -27 30 -30 36 -4 38 1 17 38 -8 14 -14 40 -15 58 0 40 -14 41 -33 2z"/> <path d="M3930 9206 c0 -14 -11 -38 -26 -55 -14 -17 -24 -36 -23 -43 2 -7 -5 -28 -14 -45 -17 -32 -17 -33 2 -33 34 0 50 11 73 51 20 36 25 39 65 39 48 0 58 16 16 26 -42 11 -72 36 -73 62 0 12 -4 22 -10 22 -5 0 -10 -11 -10 -24z"/> <path d="M3772 9084 c10 -11 23 -14 38 -9 18 6 20 9 9 16 -8 5 -25 9 -39 9 -22 0 -23 -1 -8 -16z"/> <path d="M11029 6853 c-5 -17 -21 -36 -34 -43 -14 -7 -25 -22 -25 -32 0 -11 -12 -39 -26 -63 -30 -52 -27 -73 22 -128 19 -20 34 -46 34 -56 0 -31 81 -65 136 -57 61 8 84 22 84 51 0 19 7 26 32 33 28 7 34 14 40 48 3 21 4 65 1 97 -5 47 -11 62 -31 75 -13 9 -39 31 -57 48 -24 23 -46 33 -84 38 -28 4 -58 9 -66 12 -11 4 -19 -3 -26 -23z m112 -63 c4 -8 10 -28 14 -43 4 -22 17 -33 50 -48 25 -11 45 -25 45 -30 0 -27 -22 -49 -50 -49 -31 0 -50 -22 -50 -60 0 -27 -47 -51 -61 -29 -5 8 -9 21 -9 30 0 18 -36 59 -52 59 -16 0 -48 31 -48 46 0 8 15 20 33 28 36 14 67 54 67 84 0 10 3 22 7 26 11 11 45 2 54 -14z"/> <path d="M9267 7693 c-47 -47 -49 -84 -6 -136 27 -32 36 -37 75 -37 34 0 51 6 76 29 28 25 33 36 33 76 0 42 -4 51 -35 76 -50 42 -96 40 -143 -8z"/> <path d="M9616 7682 c-29 -12 -46 -52 -33 -79 10 -22 16 -23 107 -23 73 0 101 4 110 15 6 8 9 18 6 23 -7 11 22 38 31 29 3 -4 6 -19 7 -34 l1 -28 465 -3 c428 -2 466 -1 478 15 19 26 14 60 -10 77 -20 14 -82 16 -475 16 -412 0 -453 -1 -461 -17 -8 -14 -14 -15 -38 -5 -38 14 -164 24 -188 14z"/> <path d="M9307 7317 c-46 -14 -77 -58 -77 -108 0 -52 58 -109 112 -109 72 0 128 79 104 149 -19 59 -76 87 -139 68z"/> <path d="M9852 7253 c-5 -10 -8 -34 -8 -53 l1 -35 465 -3 c428 -2 466 -1 478 15 17 23 15 58 -4 77 -14 14 -70 16 -469 16 -423 0 -455 -1 -463 -17z"/> <path d="M9584 7235 c-14 -22 -15 -30 -4 -50 13 -24 17 -25 109 -24 120 1 134 6 135 48 1 43 -19 51 -134 51 -85 0 -90 -1 -106 -25z"/> <path d="M2450 7328 c-29 -40 -30 -43 -30 -162 1 -141 10 -191 42 -222 23 -22 26 -22 348 -26 212 -2 325 0 325 7 -1 6 -50 60 -109 121 l-108 112 -47 -49 c-33 -34 -55 -49 -73 -49 -54 0 -70 69 -23 103 15 11 53 42 84 69 31 26 65 48 76 48 19 0 136 -123 218 -229 15 -20 33 -38 39 -40 6 -2 64 51 128 118 65 66 124 121 132 121 20 -1 55 -32 62 -57 7 -23 -22 -57 -114 -137 -131 -112 -166 -157 -114 -148 16 3 366 12 466 12 20 0 34 10 53 37 24 36 25 44 25 188 0 156 -5 177 -48 213 -12 9 -159 12 -659 12 l-643 0 -30 -42z m801 -60 c15 -28 5 -109 -18 -148 -20 -34 -26 -36 -46 -16 -16 16 -32 142 -21 169 10 26 70 23 85 -5z m-597 -55 c36 -37 66 -72 66 -78 0 -14 -70 -89 -104 -111 -28 -17 -29 -17 -43 2 -10 13 -12 32 -8 62 5 32 3 43 -9 48 -16 6 -31 56 -27 89 2 19 35 55 51 55 4 0 37 -30 74 -67z m1068 30 c28 -25 24 -77 -9 -102 -25 -17 -26 -22 -15 -40 26 -44 11 -81 -34 -81 -23 0 -114 90 -114 113 0 11 24 44 53 74 56 57 86 66 119 36z"/> <path d="M8682 6634 c-12 -8 -22 -19 -22 -24 0 -4 30 -37 66 -72 l66 -64 67 65 68 66 -24 23 c-21 19 -35 22 -111 22 -63 0 -94 -4 -110 -16z"/> <path d="M8556 6528 c-22 -31 -22 -207 -1 -248 9 -17 21 -30 28 -30 6 0 30 26 52 57 22 30 50 62 63 70 12 9 22 19 22 25 0 5 -27 36 -60 70 -33 34 -60 66 -60 70 0 17 -30 7 -44 -14z"/> <path d="M8933 6481 c-35 -38 -63 -75 -63 -83 1 -7 21 -33 45 -58 25 -25 45 -50 45 -57 0 -11 30 -33 44 -33 3 0 15 18 26 40 26 51 27 157 3 217 -10 24 -22 43 -28 43 -5 0 -38 -31 -72 -69z"/> <path d="M8722 6265 c-34 -35 -62 -70 -62 -77 0 -16 76 -48 115 -48 40 0 145 32 145 45 0 11 -121 145 -130 145 -3 0 -33 -29 -68 -65z"/> <path d="M10282 6208 c4 -28 42 -37 52 -13 9 24 -1 35 -30 35 -21 0 -25 -4 -22 -22z"/> <path d="M8557 5492 c-38 -42 -11 -82 56 -82 41 0 55 15 59 61 l3 34 -51 3 c-39 2 -54 -1 -67 -16z"/> <path d="M9973 5630 c-30 -12 -33 -74 -4 -89 21 -12 585 -18 617 -7 41 13 39 81 -3 97 -31 12 -581 11 -610 -1z"/> <path d="M10685 11210 c-18 -20 -18 -21 2 -48 26 -35 53 -34 73 1 14 27 14 29 -9 48 -30 24 -43 24 -66 -1z"/> <path d="M10687 11072 c-30 -33 -21 -66 24 -96 65 -43 84 -118 57 -219 -8 -31 -21 -50 -43 -64 -30 -20 -50 -22 -239 -26 -204 -4 -206 -4 -206 17 -1 81 -152 105 -155 24 -2 -45 -10 -48 -133 -48 -129 0 -162 -11 -162 -54 0 -44 36 -56 148 -49 125 7 150 2 154 -34 4 -34 32 -42 59 -17 10 9 22 14 26 10 4 -4 8 -55 8 -114 1 -126 19 -186 74 -238 31 -31 40 -35 81 -32 l45 3 0 40 c0 31 -4 40 -20 45 -63 17 -82 68 -87 235 l-3 100 175 2 c182 2 228 9 287 49 51 34 62 50 83 115 41 127 20 236 -62 325 -45 49 -83 57 -111 26z m-480 -432 c5 -20 13 -24 46 -21 21 3 34 -26 18 -42 -6 -6 -11 -19 -11 -29 0 -10 -1 -18 -2 -18 -2 0 -19 6 -38 13 -50 18 -92 60 -83 83 14 38 61 47 70 14z"/> <path d="M2916 10718 c-9 -12 -16 -32 -16 -43 0 -30 -57 -95 -84 -95 -21 0 -56 -27 -56 -43 0 -4 24 -18 54 -31 56 -25 86 -57 86 -92 0 -26 24 -48 43 -41 8 3 17 18 20 34 8 41 38 75 91 101 25 13 46 27 46 31 0 10 -34 41 -44 41 -4 0 -20 10 -36 21 -19 15 -34 40 -47 80 -19 63 -33 72 -57 37z"/> <path d="M9349 10710 c-7 -18 -27 -39 -55 -55 -58 -34 -56 -58 5 -91 25 -13 49 -30 53 -39 13 -21 49 -19 55 4 4 16 18 20 90 26 47 4 109 5 139 2 44 -4 58 -2 79 14 31 25 32 49 2 77 -22 20 -28 21 -127 14 -117 -9 -160 1 -181 40 -24 46 -46 49 -60 8z"/> <path d="M3430 10590 c-19 -22 -40 -40 -47 -40 -24 0 -73 -30 -73 -45 0 -7 10 -16 23 -20 71 -19 100 -30 104 -42 6 -15 49 -18 57 -4 3 4 33 19 66 31 33 12 63 26 66 31 8 14 -34 49 -60 49 -15 0 -35 12 -51 33 -42 50 -49 50 -85 7z"/> <path d="M9300 10340 c-30 -30 -26 -74 9 -99 39 -28 65 -26 90 5 27 34 27 68 -1 94 -28 26 -72 26 -98 0z"/> <path d="M9564 10334 c-30 -29 -27 -68 9 -96 28 -22 51 -22 82 -2 20 13 25 25 25 57 0 68 -66 92 -116 41z"/> <path d="M9828 10347 c-23 -9 -28 -17 -28 -47 0 -43 24 -70 62 -70 56 0 81 77 37 111 -27 21 -33 21 -71 6z"/> <path d="M11022 10226 c-23 -12 -32 -27 -32 -51 0 -50 0 -50 288 -46 256 3 272 2 316 -18 87 -40 156 -124 156 -190 0 -35 -28 -99 -55 -127 -54 -55 -67 -57 -269 -58 l-189 -1 -20 -27 c-17 -23 -19 -33 -11 -55 l9 -28 205 -3 c228 -3 246 1 328 66 95 75 131 191 99 314 -7 27 -18 53 -25 60 -7 7 -12 17 -12 24 0 17 -82 88 -133 115 -45 23 -15 21 -520 32 -65 1 -126 -2 -135 -7z"/> <path d="M10538 10219 c-24 -13 -23 -54 2 -79 27 -27 83 -27 110 2 24 26 25 32 4 63 -13 20 -25 25 -58 25 -22 0 -49 -5 -58 -11z"/> <path d="M10772 10221 c-8 -5 -12 -23 -10 -47 3 -36 6 -40 40 -48 55 -14 88 4 88 47 0 18 -5 38 -12 45 -14 14 -86 16 -106 3z"/> <path d="M1906 10146 c-18 -16 -26 -34 -26 -58 0 -72 86 -105 135 -52 71 76 -34 181 -109 110z"/> <path d="M1504 10141 c-51 -28 -92 -75 -114 -130 -25 -65 -25 -92 0 -164 24 -66 35 -88 71 -137 36 -48 59 -99 59 -127 0 -41 28 -83 55 -83 34 0 55 35 55 96 0 57 8 67 80 101 25 12 60 37 78 56 l33 34 -23 28 c-21 24 -29 27 -64 21 -23 -4 -54 -19 -71 -34 -77 -69 -66 -66 -104 -30 -51 49 -69 89 -69 151 0 80 22 114 84 127 40 9 53 8 72 -5 13 -9 24 -21 24 -28 0 -6 8 -31 18 -54 14 -35 22 -43 43 -43 58 0 75 59 37 132 -25 48 -39 65 -77 90 -35 24 -144 23 -187 -1z m129 -441 c-4 -14 -14 -20 -34 -20 -16 0 -29 5 -29 10 0 6 9 10 19 10 11 0 23 5 26 10 11 18 23 11 18 -10z"/> <path d="M11025 9752 c-37 -8 -55 -33 -55 -77 0 -34 5 -45 30 -63 38 -29 58 -28 92 5 60 57 13 152 -67 135z"/> <path d="M2532 9727 c-27 -29 -28 -51 -1 -88 33 -47 54 -54 94 -29 30 19 35 27 35 60 0 70 -82 106 -128 57z"/> <path d="M10269 9743 c-9 -2 -21 -14 -26 -26 -13 -29 1 -61 34 -76 21 -9 31 -8 57 7 40 23 43 42 12 75 -24 26 -41 30 -77 20z"/> <path d="M10533 9742 c-30 -5 -45 -26 -41 -59 4 -37 55 -54 93 -29 36 24 35 71 -2 83 -16 5 -38 7 -50 5z"/> <path d="M10752 9734 c-54 -38 -7 -134 59 -120 69 13 89 66 44 111 -28 29 -70 32 -103 9z"/> <path d="M1788 9586 c-27 -18 -57 -41 -68 -51 -27 -24 -27 -86 0 -110 19 -18 21 -17 57 1 56 29 135 83 149 102 18 23 17 43 -5 70 -27 32 -75 28 -133 -12z"/> <path d="M10483 9500 c-12 -5 -24 -21 -28 -40 -18 -84 97 -126 130 -47 27 65 -32 115 -102 87z"/> <path d="M1297 9476 c-15 -23 -14 -26 18 -72 19 -26 47 -56 64 -66 28 -18 31 -18 55 -2 41 26 35 68 -18 120 -52 52 -94 59 -119 20z"/> <path d="M1568 9360 c-55 -55 -99 -80 -141 -80 -41 0 -84 -17 -91 -36 -3 -7 -1 -25 3 -41 7 -27 10 -28 74 -31 77 -3 132 8 132 29 0 11 -13 13 -56 11 -81 -4 -85 18 -11 54 31 16 71 39 89 52 22 16 42 22 65 20 25 -2 33 1 36 15 5 24 -15 47 -40 47 -11 0 -38 -18 -60 -40z"/> <path d="M1799 9319 c-11 -8 -8 -15 16 -35 29 -24 29 -25 11 -39 -11 -8 -26 -15 -33 -15 -18 0 -61 -27 -100 -64 -29 -26 -35 -28 -58 -18 -35 16 -45 8 -45 -37 0 -43 14 -61 47 -61 29 0 55 26 75 75 9 22 22 42 29 46 36 17 67 28 94 34 59 11 98 64 73 97 -15 18 -89 30 -109 17z"/> <path d="M10997 9232 c-9 -10 -19 -32 -23 -48 -8 -39 -31 -65 -79 -89 -71 -36 -73 -57 -8 -88 53 -24 82 -53 83 -79 0 -31 33 -88 51 -88 21 0 34 17 43 55 15 61 61 101 149 129 12 4 17 14 15 27 -2 15 -17 27 -54 40 -59 22 -74 38 -98 99 -25 63 -49 76 -79 42z"/> <path d="M2193 8902 c-25 -16 -26 -65 -3 -95 27 -35 68 -36 99 -3 30 32 23 90 -12 100 -31 8 -70 7 -84 -2z"/> <path d="M10887 8623 c-15 -14 -7 -63 12 -73 64 -34 126 24 69 64 -23 16 -69 21 -81 9z"/> <path d="M11192 8620 c-34 -14 -39 -40 -13 -62 53 -42 121 -5 86 48 -16 25 -35 29 -73 14z"/> <path d="M11458 8622 c-37 -3 -38 -4 -38 -43 l0 -39 43 0 c50 0 67 13 67 51 0 30 -14 36 -72 31z"/> <path d="M11677 8623 c-4 -3 -7 -21 -7 -40 0 -27 5 -35 26 -43 56 -22 107 18 85 66 -9 20 -18 24 -54 24 -24 0 -47 -3 -50 -7z"/> <path d="M12158 8599 c-26 -14 -25 -109 0 -132 27 -24 58 -21 81 9 54 69 -9 165 -81 123z"/> <path d="M1430 8451 c-31 -9 -47 -51 -34 -88 8 -25 15 -28 59 -31 55 -4 75 12 75 58 0 50 -44 77 -100 61z"/> <path d="M1657 8432 c-20 -22 -22 -73 -5 -90 7 -7 33 -12 58 -12 40 0 48 4 58 25 15 33 15 56 -2 78 -18 24 -87 23 -109 -1z"/> <path d="M1896 8431 c-40 -44 10 -120 71 -107 17 4 36 19 47 36 16 29 16 31 -1 60 -15 26 -23 30 -59 30 -28 0 -46 -6 -58 -19z"/> <path d="M2137 8432 c-10 -10 -17 -33 -17 -50 0 -62 87 -82 130 -30 25 29 25 40 -1 72 -25 32 -86 37 -112 8z"/> <path d="M12170 8391 c-5 -11 -10 -49 -10 -85 0 -62 1 -66 25 -72 45 -11 55 9 51 95 -2 42 -5 77 -5 79 -1 1 -12 2 -26 2 -14 0 -29 -8 -35 -19z"/> <path d="M1445 8210 c-33 -4 -77 -15 -99 -25 -43 -18 -140 -110 -156 -147 -5 -13 -14 -30 -19 -38 -5 -8 -16 -37 -25 -65 -22 -68 -23 -378 -2 -427 8 -18 17 -40 20 -48 16 -41 76 -106 122 -131 48 -27 113 -33 136 -12 19 17 20 17 29 0 12 -20 38 -22 64 -3 14 10 19 28 20 72 3 74 -7 96 -43 92 -25 -3 -27 -7 -32 -58 -5 -50 -7 -55 -30 -58 -15 -2 -36 6 -49 18 -13 11 -29 20 -35 20 -7 0 -31 18 -54 40 -48 44 -56 75 -65 237 -5 85 18 277 35 297 5 6 17 25 27 42 10 17 43 47 74 67 l55 37 211 0 c203 0 211 1 221 21 7 11 9 31 6 44 -5 18 -15 24 -52 29 -60 8 -281 5 -359 -4z"/> <path d="M12172 8168 c-16 -20 -18 -124 -2 -142 17 -21 47 -20 57 2 4 9 8 46 8 82 0 62 -1 65 -26 68 -14 2 -31 -3 -37 -10z"/> <path d="M11712 8067 c-40 -43 -19 -117 34 -117 61 1 89 81 42 120 -31 26 -50 25 -76 -3z"/> <path d="M12171 7947 c-6 -8 -12 -42 -13 -76 -3 -66 7 -84 47 -79 17 3 21 13 27 73 7 73 0 95 -32 95 -10 0 -23 -6 -29 -13z"/> <path d="M12178 7729 c-14 -8 -18 -24 -18 -75 0 -58 2 -66 23 -73 41 -16 56 3 56 72 -1 81 -17 102 -61 76z"/> <path d="M1465 7673 c-21 -21 -17 -129 6 -144 38 -24 61 -1 67 64 7 85 -29 124 -73 80z"/> <path d="M12166 7504 c-13 -34 -6 -142 10 -159 32 -32 48 -15 56 60 10 95 5 115 -31 115 -17 0 -31 -6 -35 -16z"/> <path d="M12165 7268 c-8 -27 -12 -146 -5 -158 4 -6 20 -10 36 -8 l29 3 3 88 3 87 -31 0 c-17 0 -32 -6 -35 -12z"/> <path d="M1463 7248 c-11 -19 -3 -142 11 -150 39 -25 66 9 66 82 0 48 -4 61 -19 70 -26 14 -48 13 -58 -2z"/> <path d="M1456 7032 c-3 -5 -2 -37 2 -72 6 -52 11 -64 29 -71 38 -14 54 13 51 85 l-3 61 -37 3 c-20 2 -39 -1 -42 -6z"/> <path d="M1453 6830 c-27 -11 -43 -65 -31 -101 5 -15 24 -34 42 -44 35 -19 53 -14 97 23 25 22 26 83 0 106 -23 21 -78 29 -108 16z"/> <path d="M11910 6806 c-61 -10 -65 -13 -68 -40 -2 -16 0 -32 5 -37 14 -14 316 -19 492 -8 213 13 265 4 327 -58 l42 -43 7 -107 c4 -60 5 -156 2 -215 -8 -126 -16 -145 -92 -206 -24 -19 -94 -32 -120 -22 -15 6 -31 8 -36 4 -5 -3 -34 -5 -64 -5 -100 0 -134 37 -150 165 -9 69 -42 136 -66 136 -12 0 -39 -68 -39 -97 0 -13 -12 -44 -26 -68 -31 -54 -26 -74 27 -109 38 -26 109 -121 109 -147 0 -19 40 -99 50 -99 16 0 34 33 39 73 l6 42 100 1 c213 2 323 86 355 269 13 80 9 330 -7 387 -22 77 -104 158 -181 181 -52 16 -629 18 -712 3z m296 -653 c-12 -12 -29 15 -21 34 7 17 8 16 18 -5 5 -12 7 -25 3 -29z m88 -107 c4 -18 11 -23 25 -19 16 4 19 1 14 -16 -7 -26 -14 -26 -45 -1 -33 25 -43 60 -18 60 11 0 20 -10 24 -24z"/> <path d="M1460 6615 c-19 -23 -7 -135 16 -152 22 -16 26 -16 49 1 17 12 19 24 17 77 -2 35 -8 69 -14 76 -14 18 -53 16 -68 -2z"/> <path d="M1236 6478 c-20 -23 -36 -48 -36 -55 0 -7 -5 -13 -10 -13 -12 0 -50 -59 -50 -78 0 -21 38 9 49 39 5 14 27 45 50 69 23 24 41 52 41 62 0 25 -4 23 -44 -24z"/> <path d="M12230 6446 c0 -16 28 -42 36 -33 7 6 -18 47 -28 47 -5 0 -8 -6 -8 -14z"/> <path d="M1456 6384 c-8 -22 -7 -127 2 -140 12 -18 42 -24 63 -14 16 9 19 22 19 78 0 40 -5 73 -12 80 -17 17 -65 15 -72 -4z"/> <path d="M12290 6376 c0 -17 14 -29 23 -20 8 8 -3 34 -14 34 -5 0 -9 -6 -9 -14z"/> <path d="M1110 6296 c0 -7 -7 -19 -15 -26 -17 -14 -20 -40 -5 -40 5 0 17 16 25 36 18 43 18 44 5 44 -5 0 -10 -6 -10 -14z"/> <path d="M12380 6251 c0 -6 11 -22 25 -37 19 -20 25 -23 25 -10 0 9 -4 16 -9 16 -5 0 -11 9 -14 20 -5 20 -27 28 -27 11z"/> <path d="M1460 6144 c-13 -33 -13 -100 0 -125 13 -24 65 -26 74 -3 10 25 7 114 -4 135 -16 29 -58 25 -70 -7z"/> <path d="M1021 6138 c-12 -34 -2 -56 16 -32 16 21 17 40 3 49 -6 3 -14 -4 -19 -17z"/> <path d="M990 6038 c0 -25 3 -29 10 -18 13 20 13 50 0 50 -5 0 -10 -15 -10 -32z"/> <path d="M967 5973 c-11 -10 -8 -53 3 -53 6 0 10 6 10 14 0 8 3 21 6 30 6 16 -7 22 -19 9z"/> <path d="M1460 5920 c-13 -24 -11 -120 3 -137 12 -17 52 -17 65 0 17 20 18 137 1 148 -24 15 -58 10 -69 -11z"/> <path d="M1700 5860 c-24 -24 -25 -32 -5 -69 20 -40 43 -46 72 -20 30 29 30 73 1 93 -30 21 -44 20 -68 -4z"/> <path d="M11866 5864 c-22 -22 1 -78 34 -82 26 -4 59 30 60 60 0 35 -66 50 -94 22z"/> <path d="M12534 5705 c-4 -8 -2 -36 4 -63 l10 -47 1 63 c1 61 -4 77 -15 47z"/> <path d="M1435 5608 c-50 -17 -59 -23 -92 -67 -52 -67 -43 -136 26 -213 23 -26 31 -28 98 -28 l73 0 50 48 c47 46 50 51 50 100 0 71 -35 126 -96 153 -50 21 -64 22 -109 7z m123 -94 c29 -33 28 -59 -4 -101 -25 -33 -57 -43 -69 -22 -5 6 -11 4 -19 -7 -18 -25 -64 -11 -78 24 -6 15 -10 32 -8 37 1 6 2 19 2 30 0 12 14 31 36 47 47 35 105 31 140 -8z"/> <path d="M11886 5585 c-66 -35 -95 -98 -80 -175 9 -43 65 -80 122 -80 135 0 188 156 81 241 -41 32 -79 37 -123 14z m64 -80 c0 -8 9 -19 20 -25 39 -21 19 -80 -27 -80 -53 0 -85 84 -40 106 32 16 47 16 47 -1z"/> <path d="M12533 5534 c-3 -8 -1 -25 5 -37 10 -20 11 -18 11 16 1 39 -5 48 -16 21z"/> <path d="M1770 5453 c-35 -44 -10 -112 42 -113 65 -1 100 70 57 116 -31 33 -72 32 -99 -3z"/> <path d="M2138 5229 c-24 -13 -22 -58 2 -87 24 -29 50 -25 70 11 13 24 13 30 0 55 -17 29 -45 38 -72 21z"/> <path d="M11640 5183 c-20 -37 -37 -54 -75 -73 -28 -14 -52 -26 -54 -27 -11 -7 20 -53 35 -53 26 0 84 -40 84 -58 0 -9 10 -33 21 -52 l21 -34 20 24 c10 13 22 36 25 52 6 31 44 61 88 68 23 4 31 11 33 30 2 21 -5 29 -50 50 -29 14 -55 32 -59 40 -18 44 -39 75 -51 78 -7 1 -25 -19 -38 -45z"/> <path d="M12446 5172 c-4 -13 -5 -26 -2 -29 10 -11 18 4 14 29 l-4 23 -8 -23z"/> <path d="M1020 4925 c0 -8 5 -15 10 -15 6 0 10 7 10 15 0 8 -4 15 -10 15 -5 0 -10 -7 -10 -15z"/> <path d="M2259 4928 c-3 -47 4 -125 13 -135 14 -17 73 -17 86 0 6 7 10 27 10 44 -1 18 5 39 12 48 11 13 10 19 -5 35 -21 23 -114 29 -116 8z"/> <path d="M2417 4890 c15 -27 15 -30 -1 -54 -18 -28 -14 -46 10 -46 16 0 74 53 74 67 -1 20 -32 45 -64 53 l-36 8 17 -28z"/> <path d="M2157 4903 c-16 -16 -6 -50 18 -61 23 -11 27 -9 35 12 5 13 15 28 22 32 9 6 6 10 -12 15 -34 10 -55 10 -63 2z"/> <path d="M10750 4844 c-11 -25 -20 -52 -20 -60 0 -8 -26 -27 -57 -42 -42 -20 -59 -34 -61 -50 -2 -15 2 -22 13 -22 29 0 96 -40 104 -63 35 -91 39 -97 63 -88 15 5 25 20 29 41 12 55 28 75 80 95 67 26 67 53 2 87 -41 20 -51 32 -69 77 -20 49 -37 70 -57 71 -4 0 -17 -21 -27 -46z"/> <path d="M1197 4783 c-30 -29 -37 -44 -37 -75 0 -49 30 -90 81 -113 46 -21 82 -14 97 20 10 21 19 25 51 25 36 0 40 3 46 30 4 17 4 44 0 60 -6 27 -10 30 -45 30 -33 0 -39 4 -49 30 -9 28 -14 30 -59 30 -43 0 -53 -4 -85 -37z"/> <path d="M1530 4740 c-23 -23 -26 -58 -7 -85 12 -15 23 -17 78 -12 106 9 99 32 99 -319 l0 -304 25 -12 c17 -7 35 -8 57 -2 l33 10 3 312 2 312 -25 40 c-34 53 -71 70 -166 75 -69 4 -82 2 -99 -15z"/> <path d="M3263 4550 c-18 -11 -33 -25 -33 -32 0 -6 -7 -19 -16 -29 -9 -10 -14 -25 -10 -34 5 -13 22 -15 103 -13 93 3 98 4 101 26 4 26 -27 69 -64 88 -35 18 -43 18 -81 -6z m48 -56 c12 -14 11 -16 -5 -13 -11 2 -21 10 -24 17 -5 17 13 15 29 -4z"/> <path d="M4175 4553 c-77 -38 -94 -131 -37 -202 26 -32 35 -36 83 -39 64 -4 106 15 132 59 66 116 -57 241 -178 182z m52 -135 c27 -25 29 -38 8 -38 -8 0 -15 5 -15 10 0 6 -7 10 -15 10 -8 0 -15 9 -15 20 0 26 8 25 37 -2z"/> <path d="M11518 4533 c18 -2 45 -2 60 0 15 2 0 4 -33 4 -33 0 -45 -2 -27 -4z"/> <path d="M10237 4502 c-27 -30 -22 -87 9 -111 36 -28 48 -27 78 10 30 35 33 65 10 97 -19 28 -74 30 -97 4z"/> <path d="M3106 4425 c-14 -13 -26 -31 -26 -39 0 -22 66 -69 89 -63 14 3 31 -9 61 -44 22 -26 49 -51 59 -54 32 -10 69 12 108 65 31 42 42 50 70 50 33 0 63 28 63 61 0 26 -35 51 -67 47 -23 -2 -27 -7 -25 -26 7 -50 -42 -106 -63 -72 -8 13 -96 13 -131 0 -35 -14 -54 2 -54 44 0 58 -39 73 -84 31z"/> <path d="M8182 4433 c-13 -2 -47 -27 -75 -54 l-52 -50 0 -83 c0 -81 1 -84 37 -128 20 -25 53 -53 72 -62 87 -41 201 -3 264 91 17 24 22 46 22 96 0 58 -3 70 -32 108 -51 66 -77 81 -149 84 -35 2 -74 1 -87 -2z m130 -95 c55 -37 68 -73 48 -132 -31 -94 -172 -106 -219 -19 -29 55 -3 131 57 162 50 27 59 26 114 -11z"/> <path d="M8217 4288 c-50 -46 -39 -108 19 -108 30 0 74 41 74 70 0 23 -33 60 -54 60 -8 0 -26 -10 -39 -22z"/> <path d="M5171 4378 c-18 -50 37 -100 78 -72 23 16 27 44 11 75 -16 29 -78 27 -89 -3z"/> <path d="M2425 4312 c-72 -25 -105 -105 -70 -172 35 -68 107 -89 171 -50 30 19 74 78 74 101 0 23 -35 86 -57 103 -27 20 -86 29 -118 18z"/> <path d="M8562 4287 c-44 -47 -16 -97 55 -97 32 0 44 5 57 25 22 33 20 48 -7 73 -31 29 -77 29 -105 -1z"/> <path d="M8792 4290 c-24 -23 -28 -50 -12 -81 8 -15 21 -19 60 -19 39 0 52 4 60 19 37 71 -49 135 -108 81z"/> <path d="M9022 4287 c-41 -44 -19 -97 42 -99 69 -2 105 71 51 106 -34 22 -68 20 -93 -7z"/> <path d="M9249 4297 c-44 -33 -30 -102 23 -109 48 -8 75 6 83 42 10 45 -16 80 -58 80 -17 0 -39 -6 -48 -13z"/> <path d="M9461 4284 c-12 -15 -21 -34 -21 -44 0 -49 96 -69 131 -27 24 29 24 52 -1 77 -30 30 -83 27 -109 -6z"/> <path d="M4641 4145 c-24 -25 -49 -45 -55 -45 -6 -1 -23 -11 -37 -23 -23 -19 -27 -32 -31 -93 -6 -83 -1 -96 53 -130 22 -13 57 -40 78 -60 46 -41 65 -38 126 25 21 23 44 41 50 41 6 0 21 10 33 23 18 19 22 35 22 89 l0 66 -57 48 c-32 27 -68 61 -81 77 -13 15 -31 27 -40 27 -10 -1 -37 -21 -61 -45z m118 -119 c24 -24 42 -48 40 -54 -9 -24 -81 -92 -96 -92 -24 1 -103 76 -103 98 0 23 70 90 95 91 12 1 39 -18 64 -43z"/> <path d="M4980 4030 c-27 -27 -25 -66 5 -95 29 -30 68 -32 95 -5 24 24 27 82 4 104 -22 23 -80 20 -104 -4z"/> <path d="M5231 4033 c-49 -40 -17 -123 46 -123 29 0 73 45 73 74 -1 54 -75 85 -119 49z"/> <path d="M3355 4010 c-65 -9 -129 -30 -147 -48 -7 -7 -17 -12 -24 -12 -12 0 -104 -96 -104 -109 0 -5 -7 -14 -15 -21 -8 -7 -15 -22 -15 -34 0 -11 -7 -30 -15 -40 -21 -28 -21 -233 0 -283 8 -19 15 -44 15 -55 0 -11 7 -34 16 -51 10 -18 24 -45 32 -62 36 -72 79 -95 175 -95 73 0 156 26 193 61 29 27 64 101 64 134 0 30 17 43 65 47 38 3 40 5 45 43 l5 40 79 3 c74 3 81 5 131 43 66 50 85 78 100 150 19 88 2 149 -57 212 -45 48 -48 50 -66 34 -23 -21 -61 -22 -98 -2 -16 8 -38 15 -49 15 -11 0 -38 6 -60 14 -52 18 -194 26 -270 16z m210 -121 c54 -10 211 -56 235 -68 10 -6 16 -27 18 -63 3 -54 2 -57 -35 -87 -21 -17 -53 -34 -73 -37 -51 -10 -81 -27 -143 -84 -30 -27 -58 -50 -62 -50 -19 0 -73 -54 -78 -78 -3 -15 -19 -43 -35 -62 -24 -29 -32 -32 -44 -22 -12 10 -18 9 -28 -3 -19 -23 -52 -18 -93 16 -46 38 -60 71 -75 172 -23 154 -8 231 53 271 14 9 30 27 36 39 11 25 79 56 124 58 17 1 41 5 55 9 26 8 59 6 145 -11z"/> <path d="M9950 4010 c-60 -5 -105 -16 -170 -43 -51 -20 -91 -25 -130 -15 -46 12 -60 4 -94 -52 -38 -61 -49 -115 -36 -174 17 -71 41 -107 105 -155 52 -39 57 -41 128 -41 l74 0 7 -40 c6 -41 12 -45 75 -52 26 -3 27 -5 65 -90 32 -71 66 -108 114 -125 45 -16 170 -28 205 -19 46 11 103 106 151 251 23 72 23 268 -2 321 -21 48 -74 124 -99 144 -45 36 -83 60 -93 60 -6 0 -23 6 -38 14 -31 16 -168 24 -262 16z m247 -140 c61 -26 106 -81 132 -158 23 -68 26 -117 10 -177 -6 -22 -12 -51 -13 -65 -5 -42 -34 -99 -63 -125 -44 -38 -143 -34 -143 6 0 11 -7 19 -17 19 -10 0 -42 31 -73 69 -30 39 -61 70 -68 70 -7 1 -29 16 -48 34 -19 17 -40 37 -47 43 -15 13 -144 74 -156 74 -15 0 -71 57 -71 73 0 26 43 85 70 96 14 5 50 15 80 22 30 6 80 20 110 30 75 25 228 19 297 -11z"/> <path d="M1722 3943 c-30 -47 -26 -92 10 -112 20 -12 34 -13 55 -5 25 8 28 15 31 59 2 47 1 51 -30 70 -18 11 -35 21 -38 22 -3 1 -15 -14 -28 -34z"/> <path d="M11112 3960 c-77 -43 -112 -100 -112 -184 0 -48 5 -60 43 -113 24 -32 58 -70 75 -85 28 -24 51 -61 66 -111 12 -38 37 -31 89 23 28 29 68 63 89 76 29 19 38 31 38 53 0 32 -27 61 -56 61 -11 0 -34 -13 -52 -30 -18 -16 -43 -30 -55 -30 -28 1 -108 97 -121 143 -19 71 43 127 114 103 32 -10 35 -15 41 -59 8 -70 46 -88 89 -42 22 23 23 28 11 77 -21 92 -79 138 -173 137 -32 0 -66 -7 -86 -19z"/> <path d="M11500 3963 c-23 -8 -50 -45 -50 -69 0 -31 41 -64 79 -64 36 0 70 31 70 65 1 44 -58 84 -99 68z"/> <path d="M8197 3932 c-11 -12 -17 -36 -17 -69 0 -43 4 -53 26 -68 23 -15 28 -15 48 -1 13 8 29 29 36 47 12 29 12 36 -7 68 -24 42 -60 52 -86 23z"/> <path d="M8943 3860 c-31 -13 -73 -79 -73 -117 0 -20 12 -47 33 -75 30 -40 37 -43 85 -46 41 -2 58 2 83 20 31 23 69 84 69 113 0 27 -50 95 -76 105 -31 12 -91 12 -121 0z"/> <path d="M7488 3693 c-43 -27 -44 -85 -1 -117 25 -19 27 -19 60 -1 54 30 57 90 5 116 -15 7 -29 15 -32 16 -3 1 -17 -5 -32 -14z"/> <path d="M8199 3697 c-9 -7 -21 -22 -28 -35 -15 -28 2 -67 40 -89 24 -15 28 -14 58 7 42 32 44 80 2 109 -33 24 -49 26 -72 8z"/> <path d="M6008 3684 c-39 -20 -42 -76 -6 -106 29 -25 46 -22 79 13 33 36 35 46 11 75 -23 30 -52 36 -84 18z"/> <path d="M6236 3674 c-24 -23 -19 -62 10 -89 33 -31 54 -31 82 -2 29 31 28 61 -4 86 -32 25 -67 27 -88 5z"/> <path d="M10993 3511 c-33 -28 -29 -59 13 -98 41 -37 73 -42 97 -15 27 30 20 58 -25 96 -48 41 -55 42 -85 17z"/> <path d="M3769 3449 c-6 -13 -20 -30 -29 -39 -10 -8 -23 -35 -30 -60 -6 -25 -17 -65 -24 -90 -16 -62 -38 -99 -96 -166 -61 -69 -64 -89 -15 -80 95 18 158 63 204 146 18 33 41 205 34 252 -7 50 -28 67 -44 37z"/> <path d="M11200 3370 c-18 -18 -20 -28 -14 -80 8 -76 -8 -79 -66 -16 -52 56 -92 67 -126 35 -13 -12 -24 -28 -24 -34 0 -15 50 -61 133 -123 37 -28 77 -62 88 -76 30 -38 63 -34 107 14 21 23 47 46 59 53 12 7 47 29 77 50 63 43 79 76 51 107 -31 34 -68 25 -123 -29 -62 -60 -77 -56 -67 22 6 48 4 58 -14 76 -27 27 -55 27 -81 1z"/> <path d="M9695 3318 c-3 -9 -1 -27 6 -40 8 -13 14 -42 15 -65 1 -39 40 -111 66 -121 5 -2 15 -11 23 -19 9 -9 23 -12 33 -8 15 6 15 8 2 18 -8 7 -28 31 -44 55 -16 23 -32 42 -37 42 -4 0 -11 25 -14 55 -4 30 -11 55 -16 55 -6 0 -14 10 -18 23 -8 19 -10 20 -16 5z"/> <path d="M5046 3298 c-10 -14 -16 -45 -16 -83 0 -33 -7 -85 -15 -115 -8 -30 -15 -72 -15 -94 0 -21 -6 -68 -14 -105 -19 -86 -37 -199 -47 -286 -9 -78 -21 -162 -46 -307 -14 -83 -19 -97 -37 -102 -41 -10 -117 -69 -139 -107 -22 -38 -23 -39 -80 -39 -33 0 -71 -6 -85 -14 -98 -50 -124 -54 -198 -30 -83 28 -90 38 -208 287 -153 323 -182 370 -268 434 -77 56 -117 73 -174 73 -57 0 -70 10 -80 57 -3 17 -24 48 -45 69 l-39 38 -186 4 c-197 5 -240 -1 -297 -43 -30 -21 -67 -82 -67 -110 0 -10 -9 -15 -28 -15 -16 0 -37 -7 -48 -15 -10 -8 -27 -15 -36 -15 -21 0 -143 -117 -158 -151 -5 -13 -14 -31 -19 -39 -25 -42 -59 -160 -71 -250 -4 -30 -13 -68 -19 -83 -6 -16 -11 -43 -11 -62 0 -19 -5 -46 -11 -62 -6 -15 -15 -57 -20 -93 -5 -36 -15 -99 -22 -140 l-13 -75 -114 -2 c-63 0 -131 -2 -150 -2 -27 -1 -46 -11 -77 -39 -40 -38 -64 -94 -44 -106 5 -3 2072 -6 4593 -6 l4583 0 3 21 c5 32 -28 87 -68 112 -32 20 -48 22 -175 22 l-140 0 -7 67 c-3 37 -10 72 -14 79 -4 6 -10 39 -15 73 -9 70 -25 149 -44 221 -8 28 -19 75 -25 105 -28 142 -46 200 -68 222 -7 7 -12 16 -12 20 0 12 -39 66 -75 104 -37 39 -136 94 -168 94 -19 0 -26 7 -31 32 -10 49 -53 97 -109 122 -50 22 -59 22 -227 16 -96 -4 -187 -12 -202 -18 -41 -17 -105 -86 -113 -121 -6 -30 -8 -31 -60 -31 -59 0 -110 -19 -166 -62 -20 -16 -43 -28 -51 -28 -16 0 -71 -72 -82 -107 -14 -43 -30 -32 -94 59 -50 72 -158 216 -174 232 -10 10 -18 26 -18 36 0 22 26 50 46 50 24 0 84 51 84 70 0 10 -16 32 -37 49 l-36 30 -43 -31 c-23 -16 -55 -43 -70 -59 -15 -16 -31 -29 -34 -29 -3 0 -31 34 -61 75 -59 80 -94 104 -128 86 -11 -6 -25 -21 -31 -32 -12 -21 3 -45 92 -148 21 -24 38 -49 38 -56 0 -14 -68 -86 -130 -137 -25 -20 -61 -51 -80 -67 l-35 -31 21 -38 c24 -40 47 -51 67 -30 13 12 46 39 126 104 29 24 36 26 63 16 31 -11 62 -6 52 9 -3 5 -15 9 -26 9 -29 0 -47 28 -48 76 0 43 22 74 52 74 16 0 44 -39 82 -115 11 -22 39 -66 63 -97 24 -31 43 -60 43 -65 0 -4 27 -37 60 -73 33 -36 62 -74 66 -85 5 -20 -4 -51 -25 -85 -9 -14 -57 -118 -85 -185 -67 -155 -88 -181 -167 -209 -56 -20 -80 -18 -159 14 -30 13 -86 26 -125 29 -61 5 -70 9 -75 29 -6 27 -67 92 -86 92 -23 0 -41 42 -53 130 -7 47 -19 117 -26 155 -17 82 -33 184 -44 276 -4 36 -11 71 -15 78 -5 7 -12 47 -17 89 -4 42 -13 106 -19 142 -6 36 -18 111 -27 168 l-16 102 -793 0 -794 0 0 -47 c0 -27 5 -66 11 -88 6 -22 15 -76 20 -120 5 -44 13 -93 19 -109 5 -16 10 -55 10 -86 0 -32 7 -77 15 -100 8 -23 15 -67 15 -97 0 -30 4 -63 10 -73 5 -10 12 -44 15 -76 4 -33 12 -90 20 -129 19 -101 36 -200 46 -280 5 -38 15 -101 22 -139 l13 -68 493 1 c364 2 507 -1 545 -10 51 -13 106 -52 106 -76 0 -7 5 -13 10 -13 6 0 10 -5 10 -11 0 -7 -7 -8 -17 -4 -83 35 -118 35 -1527 32 -760 -3 -1398 -8 -1418 -12 -30 -6 -39 -4 -44 8 -8 21 23 49 78 70 42 17 90 18 587 15 l541 -3 15 67 c8 37 15 89 15 117 0 27 4 61 10 75 5 14 12 56 15 93 3 38 12 100 20 138 16 82 34 209 46 315 4 41 12 93 18 115 6 22 11 61 11 87 0 26 4 58 10 72 5 14 12 56 15 93 3 38 13 101 22 140 13 59 13 75 3 88 -11 13 -106 15 -796 15 l-783 0 -15 -22z m3256 -128 c17 -1 38 -35 38 -63 1 -18 7 -43 15 -57 8 -15 14 -53 15 -91 0 -39 6 -79 15 -95 8 -16 15 -56 15 -89 0 -37 6 -68 15 -79 9 -12 15 -43 15 -80 1 -38 6 -68 15 -80 10 -13 15 -43 15 -82 0 -34 7 -78 15 -97 16 -38 19 -84 9 -111 -10 -26 -34 -18 -40 13 -4 17 -12 32 -20 35 -10 4 -14 24 -14 68 -1 39 -6 70 -15 82 -11 14 -15 46 -15 109 0 65 -4 92 -15 103 -10 11 -15 36 -15 83 0 49 -4 72 -15 81 -11 9 -15 32 -15 79 0 37 -4 71 -10 77 -5 5 -13 37 -16 69 l-6 60 -607 -1 c-333 -1 -614 0 -623 3 -21 5 -25 59 -5 66 8 3 1175 1 1249 -3z m-1836 -45 c-7 -56 -25 -169 -37 -240 -6 -33 -15 -94 -20 -136 -4 -41 -13 -88 -19 -103 -5 -15 -10 -51 -10 -79 0 -29 -5 -68 -11 -87 -5 -19 -14 -66 -19 -105 -4 -38 -13 -99 -19 -135 -6 -36 -14 -91 -17 -122 l-5 -58 -458 0 -457 0 -10 28 c-11 28 -93 92 -118 92 -8 0 -19 6 -25 14 -11 14 -26 17 -153 32 l-58 6 0 35 c0 19 5 43 10 53 6 11 15 55 20 97 10 84 22 161 45 288 9 44 15 97 15 119 0 21 6 64 14 95 8 31 17 94 21 141 4 47 10 90 15 95 5 6 236 10 655 10 l647 0 -6 -40z m689 -75 c8 -6 19 -10 27 -9 35 4 41 -1 25 -19 -10 -10 -17 -24 -17 -31 0 -7 -7 -26 -17 -41 -14 -24 -14 -33 -3 -59 7 -17 17 -31 22 -31 6 0 9 -27 7 -62 -3 -68 5 -103 29 -131 9 -10 19 -48 23 -90 9 -85 40 -217 63 -269 8 -20 32 -49 51 -64 19 -14 35 -32 35 -40 0 -24 18 -24 47 -1 54 45 88 52 147 32 50 -17 53 -17 80 0 20 14 30 15 39 6 6 -6 21 -11 33 -11 27 0 89 -49 62 -50 -9 0 -18 6 -21 13 -4 14 -57 -31 -57 -50 0 -15 -35 -26 -59 -18 -33 10 -376 9 -395 -2 -14 -8 0 -12 60 -17 116 -9 654 -6 654 3 0 16 -30 21 -117 21 -63 0 -84 3 -80 13 4 11 18 12 144 5 18 -1 44 5 58 12 19 10 28 11 36 3 15 -15 3 -63 -16 -63 -8 0 -15 -9 -15 -19 0 -11 -5 -23 -11 -27 -6 -3 -169 -8 -361 -10 -215 -3 -357 -8 -369 -14 -27 -15 -59 4 -59 35 0 18 -5 25 -19 25 -20 0 -31 34 -31 93 0 16 -7 66 -15 111 -8 45 -20 108 -26 141 -6 33 -14 65 -19 70 -4 6 -10 46 -14 90 -8 92 -23 193 -57 384 -8 46 -6 57 8 74 15 16 27 18 67 13 26 -3 54 -10 61 -16z m183 -92 c12 -11 17 -75 6 -102 -4 -9 -18 -16 -34 -16 -59 0 -99 109 -47 130 23 9 54 4 75 -12z m833 -17 c19 -24 14 -51 -13 -67 -19 -12 -202 -4 -210 9 -8 13 -11 71 -4 78 2 2 50 4 107 3 93 0 103 -2 120 -23z m-286 -26 l0 -40 -220 -5 c-121 -3 -226 -3 -232 -1 -8 2 -13 21 -13 47 l0 44 233 -2 232 -3 0 -40z m-4428 -26 c51 -9 67 -16 83 -39 27 -38 25 -64 -6 -85 -25 -16 -28 -16 -65 0 -32 15 -54 17 -136 10 -250 -18 -263 -17 -263 31 0 12 11 35 24 51 22 25 32 28 112 34 146 10 184 10 251 -2z m6911 -13 c21 -11 31 -24 34 -48 9 -57 10 -57 -160 -54 -154 3 -260 -4 -294 -18 -23 -10 -41 26 -33 65 9 41 43 60 127 69 109 13 289 5 326 -14z m-2080 -69 c2 -15 -1 -27 -7 -27 -6 0 -11 3 -11 8 0 4 -3 18 -7 31 -4 18 -2 23 8 19 8 -2 15 -17 17 -31z m-909 -26 c28 -39 29 -106 2 -121 -41 -21 -61 -12 -81 36 -24 55 -24 58 -4 89 22 34 57 32 83 -4z m792 -1 c14 -8 19 -21 19 -50 0 -22 -3 -40 -7 -41 -5 0 -162 -3 -351 -5 -379 -5 -364 -7 -345 59 l9 32 309 5 c171 3 318 6 328 8 10 1 27 -3 38 -8z m-4414 -67 c76 -37 147 -120 204 -234 99 -199 169 -347 169 -357 0 -23 101 -145 136 -165 55 -29 250 -32 304 -3 23 12 63 20 120 24 l85 4 53 -41 c41 -33 52 -47 52 -70 0 -45 -9 -61 -28 -52 -82 41 -222 57 -222 26 0 -17 -16 -20 -25 -5 -4 6 -39 8 -88 5 -45 -3 -140 -7 -211 -9 -114 -3 -133 -1 -163 16 l-33 20 0 -21 c0 -14 9 -25 26 -31 14 -6 24 -16 22 -23 -6 -17 -46 -21 -64 -7 -11 10 -17 10 -28 1 -10 -9 -84 -12 -253 -11 -131 0 -444 0 -697 0 -310 0 -463 3 -471 10 -23 19 13 95 40 87 12 -4 55 155 55 206 0 21 7 68 17 104 12 49 13 70 5 83 -18 30 1 170 33 237 51 108 69 126 169 178 90 46 94 47 132 35 50 -17 411 -17 427 -1 17 17 37 13 37 -9 0 -11 -9 -38 -21 -60 -25 -47 -29 -96 -18 -199 6 -54 14 -81 28 -95 11 -11 23 -17 26 -14 3 3 7 81 8 174 2 141 4 169 17 171 18 4 52 -47 68 -102 16 -57 23 -190 11 -222 -13 -36 -4 -40 31 -15 16 12 42 22 58 22 25 0 31 -7 61 -75 19 -41 38 -75 43 -75 19 0 18 30 -1 49 -12 12 -21 34 -21 50 0 17 -4 33 -10 36 -5 3 -10 17 -10 30 0 12 -7 25 -15 29 -17 6 -21 46 -5 46 6 0 10 16 10 35 0 21 -5 35 -12 35 -7 0 -24 17 -38 38 -26 40 -62 88 -83 112 -18 19 -27 46 -20 54 12 11 34 6 90 -21z m6734 -5 c86 -52 147 -121 190 -212 42 -91 59 -177 39 -201 -26 -31 11 -205 46 -219 8 -3 14 -16 14 -28 -1 -23 -1 -23 -16 -3 -15 19 -16 18 -11 -20 9 -67 19 -99 37 -120 10 -11 27 -39 39 -63 l22 -42 -25 -10 c-28 -10 -274 -13 -946 -9 -19 0 -154 0 -300 0 -145 0 -268 3 -272 5 -16 10 -8 34 11 34 18 0 56 39 47 48 -3 2 -15 -2 -27 -9 -26 -14 -76 -22 -131 -21 -21 0 -38 -4 -38 -9 0 -12 -77 -12 -85 1 -3 5 -29 9 -58 9 -29 -1 -54 0 -57 1 -3 1 -52 3 -110 4 -58 2 -113 6 -123 10 -10 5 -26 2 -42 -8 -15 -10 -26 -12 -30 -6 -9 15 -36 12 -56 -6 -23 -21 -39 -10 -39 28 0 42 66 104 121 113 53 9 175 -3 219 -22 23 -10 69 -15 135 -15 115 0 161 17 214 79 26 30 85 142 137 258 7 17 27 60 43 98 17 37 31 71 31 76 0 4 14 35 31 67 55 105 193 214 272 214 42 0 34 -28 -29 -94 -50 -52 -56 -64 -65 -119 -6 -33 -12 -64 -15 -69 -10 -16 7 -46 29 -52 12 -3 32 -20 44 -38 15 -21 37 -36 63 -44 49 -15 60 -4 19 20 -27 16 -29 22 -31 84 -1 37 -1 89 0 117 5 87 66 177 109 161 9 -4 19 -3 22 2 3 5 111 12 239 15 152 3 238 9 245 16 17 17 30 14 88 -21z m-2197 -38 c9 -22 19 -58 22 -80 4 -22 11 -43 15 -46 5 -3 9 -25 9 -50 0 -52 -15 -63 -56 -41 -25 13 -28 19 -25 59 2 34 -2 48 -18 62 -27 25 -27 75 0 110 11 14 24 26 29 26 4 0 15 -18 24 -40z m-871 -58 c21 -24 32 -94 18 -120 -30 -56 -95 -30 -105 43 -12 78 43 126 87 77z m188 -56 c8 -16 8 -34 2 -53 -8 -22 -16 -28 -39 -28 -36 0 -54 40 -36 80 16 34 58 35 73 1z m584 -6 c12 -24 13 -33 3 -49 -11 -19 -25 -20 -239 -20 -124 0 -230 -1 -235 -2 -5 -1 -19 -1 -31 0 -20 1 -23 6 -23 45 0 34 4 45 18 48 9 2 124 5 254 6 l237 2 16 -30z m-720 -147 c29 -49 28 -80 -5 -123 -16 -21 -21 -23 -42 -12 -28 15 -58 65 -58 97 0 13 9 39 20 58 27 45 51 40 85 -20z m860 6 c0 -7 -8 -15 -17 -17 -18 -3 -25 18 -11 32 10 10 28 1 28 -15z m-675 -29 c26 -26 25 -53 -3 -86 -21 -24 -26 -25 -48 -14 -30 16 -39 29 -39 58 0 59 50 82 90 42z m638 -38 c3 -37 1 -42 -23 -48 -15 -4 -53 -4 -85 -1 -35 4 -62 3 -65 -3 -9 -15 -334 -13 -365 3 -31 15 -37 52 -14 78 16 17 32 19 194 19 120 0 180 -4 188 -12 8 -8 15 -8 24 0 16 13 94 20 123 11 15 -5 21 -16 23 -47z m106 -177 c11 -8 27 -15 37 -15 9 0 30 -7 45 -15 16 -8 39 -15 50 -15 34 0 92 -28 104 -49 16 -30 12 -38 -20 -44 -16 -4 -47 -25 -69 -48 -33 -33 -42 -51 -47 -91 -4 -28 -13 -52 -20 -55 -18 -7 -73 19 -105 49 -41 38 -102 83 -140 102 -29 15 -50 18 -108 14 -74 -6 -86 -1 -76 30 6 21 105 96 168 128 51 26 152 31 181 9z m-3297 -36 c65 -15 192 -80 199 -101 8 -28 -4 -38 -46 -38 -21 0 -42 -4 -45 -10 -3 -5 -13 -10 -21 -10 -14 0 -93 -56 -153 -109 -47 -41 -80 -36 -81 12 0 52 -80 157 -119 157 -48 0 -36 50 17 70 99 38 173 47 249 29z"/> <path d="M5350 3033 c-21 -8 -30 -24 -30 -53 0 -35 17 -50 57 -50 51 0 71 52 33 90 -20 20 -33 23 -60 13z"/> <path d="M5570 3027 c-26 -6 -30 -12 -30 -41 0 -27 5 -35 23 -39 33 -9 689 -10 709 -2 35 14 31 71 -7 81 -35 9 -661 10 -695 1z"/> <path d="M5319 2847 c-45 -34 -29 -97 24 -97 40 0 57 15 57 51 0 49 -44 74 -81 46z"/> <path d="M5532 2838 c-17 -17 -15 -53 6 -70 14 -13 46 -15 187 -13 202 4 180 1 199 21 20 19 21 60 2 67 -8 3 -97 6 -198 6 -131 1 -187 -2 -196 -11z"/> <path d="M5293 2670 c-18 -7 -23 -17 -23 -44 0 -60 70 -77 99 -24 13 23 13 30 1 52 -14 27 -37 32 -77 16z"/> <path d="M5494 2649 c-19 -21 -18 -43 4 -62 16 -15 52 -17 299 -17 261 0 282 1 304 19 20 16 22 23 14 47 l-10 29 -298 0 c-259 0 -300 -2 -313 -16z"/> <path d="M5242 2478 c-31 -31 1 -88 51 -88 42 0 68 80 31 94 -26 10 -69 7 -82 -6z"/> <path d="M5467 2481 c-29 -10 -36 -51 -11 -75 13 -14 60 -16 363 -16 324 0 349 1 364 18 22 24 21 35 -2 56 -18 16 -52 18 -360 19 -188 1 -347 0 -354 -2z"/> <path d="M5224 2286 c-8 -21 4 -36 29 -36 12 0 42 -7 67 -16 25 -9 102 -20 173 -25 147 -11 173 -5 162 39 -3 15 -13 32 -21 38 -9 7 -84 12 -209 13 -164 1 -196 -1 -201 -13z"/> <path d="M5772 2277 c-28 -30 -28 -48 1 -75 58 -55 134 8 97 79 -15 28 -70 25 -98 -4z"/> <path d="M3610 2311 c0 -11 21 -19 38 -14 21 8 13 23 -13 23 -14 0 -25 -4 -25 -9z"/> <path d="M2857 2227 c-3 -21 -3 -45 0 -54 11 -28 22 19 14 58 l-7 34 -7 -38z"/> <path d="M3890 2181 c0 -11 5 -23 11 -26 5 -4 14 -18 19 -31 5 -13 14 -24 20 -24 14 0 13 13 -5 36 -8 10 -15 29 -15 42 0 13 -6 22 -15 22 -8 0 -15 -9 -15 -19z"/> <path d="M3964 2059 c-3 -6 -2 -15 4 -21 15 -15 46 -5 50 15 3 12 -3 17 -22 17 -14 0 -28 -5 -32 -11z"/> <path d="M4013 1975 c-3 -9 1 -23 9 -33 8 -9 18 -25 21 -34 4 -10 13 -18 22 -18 12 0 14 4 5 20 -6 10 -17 23 -26 28 -13 7 -14 13 -5 31 10 17 9 21 -4 21 -9 0 -18 -7 -22 -15z"/> <path d="M9904 2653 c-3 -15 -10 -44 -15 -63 -10 -37 -13 -240 -4 -240 3 0 15 8 26 19 16 15 24 44 35 135 l15 116 -25 31 -25 30 -7 -28z"/> <path d="M9599 2418 c0 -2 -2 -36 -2 -76 -2 -52 -6 -75 -17 -82 -8 -5 -11 -13 -6 -17 4 -4 17 3 28 17 14 17 18 34 15 57 -4 24 -1 35 15 45 21 14 21 15 2 36 -16 19 -32 28 -35 20z"/> <path d="M9540 2185 c0 -14 5 -25 10 -25 6 0 10 11 10 25 0 14 -4 25 -10 25 -5 0 -10 -11 -10 -25z"/> <path d="M10604 2196 c-8 -21 3 -49 16 -41 5 3 10 15 10 25 0 25 -18 36 -26 16z"/> <path d="M9490 2132 c0 -10 22 -32 32 -32 4 0 8 9 8 20 0 13 -7 20 -20 20 -11 0 -20 -4 -20 -8z"/> <path d="M9470 2051 c0 -12 6 -21 16 -21 9 0 14 7 12 17 -5 25 -28 28 -28 4z"/> <path d="M9427 1970 c-10 -16 -15 -30 -11 -30 9 0 54 43 54 53 0 18 -27 4 -43 -23z"/> <path d="M9900 3235 c0 -8 5 -15 10 -15 6 0 10 7 10 15 0 8 -4 15 -10 15 -5 0 -10 -7 -10 -15z"/> <path d="M10287 3142 c-21 -23 -13 -78 14 -93 15 -8 20 -5 24 14 9 34 2 90 -11 94 -6 2 -18 -5 -27 -15z"/> <path d="M9300 2945 c0 -3 10 -16 21 -28 12 -12 34 -39 49 -59 32 -44 106 -108 124 -108 25 0 24 13 -1 54 -37 59 -82 105 -127 127 -39 19 -66 24 -66 14z"/> <path d="M9165 2630 c-9 -15 44 -65 57 -52 7 7 4 18 -7 36 -18 27 -39 34 -50 16z"/> <path d="M11292 1591 c-9 -26 -20 -32 -79 -49 -66 -19 -101 -20 -1278 -16 -665 2 -1217 4 -1225 4 -8 0 -447 -2 -975 -4 -528 -3 -1007 -5 -1065 -5 -58 0 -1068 2 -2245 3 -1551 2 -2150 6 -2175 14 -19 7 -45 24 -56 38 -25 31 -44 25 -44 -15 0 -28 26 -59 67 -80 16 -8 1202 -11 4498 -11 4973 0 4546 -6 4593 66 16 24 22 44 18 60 -8 32 -22 30 -34 -5z"/> </g> </svg> 